<?xml version="1.0" encoding="utf-8"?>
<!-- Generator: Adobe Illustrator 21.1.0, SVG Export Plug-In . SVG Version: 6.00 Build 0)  -->
<svg version="1.1" xmlns="http://www.w3.org/2000/svg" xmlns:xlink="http://www.w3.org/1999/xlink" x="0px" y="0px"
	 viewBox="0 0 250 250" style="enable-background:new 0 0 250 250;" xml:space="preserve">
<style type="text/css">
	.st0{display:none;}
	.st1{display:inline;fill:#2A263D;}
	.st2{display:inline;fill:#265DBA;}
	.st3{display:inline;fill:none;}
	.st4{display:inline;fill:#121315;}
	.st5{display:inline;fill:#272F31;stroke:#121315;stroke-miterlimit:10;}
	.st6{display:inline;fill:#989A9E;}
	.st7{display:inline;fill:#51414E;}
	.st8{fill:#141416;}
	.st9{fill:#2A263D;}
	.st10{fill:#2B2941;}
	.st11{fill:#265DBA;}
	.st12{fill:#1E1B2C;}
	.st13{opacity:0.47;fill:#7097C4;}
	.st14{fill:#120C0C;}
	.st15{fill:#2E2B40;}
</style>
<g id="Layer_1" class="st0">
</g>
<g id="Layer_2" class="st0">
	<rect x="57" y="200.1" class="st7" width="129.4" height="15.9"/>
	<path class="st7" d="M82.1,84.2h-1.3c-1.6,0-3-1.3-3-3V55.4c0-1.6,1.3-3,3-3h1.3c1.6,0,3,1.3,3,3v25.7
		C85.1,82.8,83.7,84.2,82.1,84.2z"/>
	<path class="st7" d="M151.7,73.2h-1.3c-1.6,0-3-1.3-3-3V44.4c0-1.7,1.4-3,3-3h1.3c1.6,0,3,1.3,3,3v25.7
		C154.7,71.8,153.3,73.2,151.7,73.2z"/>
	<path class="st7" d="M116.3,79.3h-1.3c-1.6,0-3-1.3-3-3V31c0-1.6,1.3-3,3-3h1.3c1.7,0,3,1.3,3,3v45.3
		C119.3,77.9,117.9,79.3,116.3,79.3z"/>
	<path class="st2" d="M176.6,119.6v-15.9c0,0,1.2-4.9-7.3-4.9S68,98.8,68,98.8s-7.3,0-7.3,3.7S52.1,205,118,205
		c34.2,0,48.8-36.6,48.8-36.6s36.6-12.2,36.6-30.5S193.7,113.5,176.6,119.6z M193.7,140.3c-1.2,7.3-22,14.6-22,14.6l4.2-21.1
		c0.4-2,2-3.6,4-4c3.2-0.6,7.8-1.3,10.1-0.5C193.7,130.5,194.9,133,193.7,140.3z"/>
</g>
<g id="Layer_3">
</g>
</svg>
