<svg xmlns="http://www.w3.org/2000/svg" xmlns:xlink="http://www.w3.org/1999/xlink" width="397.197" height="126.229" viewBox="0 0 397.197 126.229">
  <defs>
    <linearGradient id="linear-gradient" x1="0.576" y1="-1.537" x2="0.247" y2="0.257" gradientUnits="objectBoundingBox">
      <stop offset="0" stop-color="#fff"/>
      <stop offset="1" stop-color="#fd6262"/>
    </linearGradient>
  </defs>
  <path id="Path_5" data-name="Path 5" d="M782.647,405.757c2.692-8.176-54.355-11.971-81.1-26.575s-61.318-37.293-82.209-33.523-20.565,13.835-37.51,10.266-54.363-7.423-61.544-4.063,8.627,9.1,7.448,11.7-17.129-1.764-20.983,4.673,2.608,18.952-6.7,25.28-22.429,5.442-32.411,9.421-.619,10.416-16.661,6.947-32.862-3.845-36.5,4.9,3.427,15.382-9.881,16.293-19.177,4.857-19.052,8.059,48.971,15.524,69.168,18.517,19.378,6.554,28.833,12.08,23.19-3.988,34.96-3.235,45.268,2.842,60.19,3.921,69.586,1.245,85.629-8.493,38.12-20.682,45.067-21.786,2.282-8.878,14.019-12.23S778.007,419.859,782.647,405.757Z" transform="translate(-385.542 -345.242)" fill="url(#linear-gradient)"/>
</svg>
