<svg xmlns="http://www.w3.org/2000/svg" xmlns:xlink="http://www.w3.org/1999/xlink" width="509.442" height="161.9" viewBox="0 0 509.442 161.9">
  <defs>
    <linearGradient id="linear-gradient" x1="0.576" y1="-1.537" x2="0.247" y2="0.257" gradientUnits="objectBoundingBox">
      <stop offset="0" stop-color="#fff"/>
      <stop offset="1" stop-color="#fd6262"/>
    </linearGradient>
  </defs>
  <path id="Path_120" data-name="Path 120" d="M894.866,422.857c3.452-10.486-69.715-15.354-104.016-34.085s-78.646-47.831-105.441-43-26.376,17.745-48.11,13.167-69.726-9.521-78.936-5.211,11.065,11.666,9.553,15.011S545.947,366.48,541,374.737s3.346,24.307-8.6,32.424-28.768,6.98-41.57,12.084-.793,13.36-21.369,8.91-42.149-4.932-46.813,6.283,4.4,19.729-12.673,20.9-24.6,6.229-24.436,10.336,62.81,19.911,88.715,23.75,24.854,8.406,36.98,15.493,29.743-5.114,44.84-4.149,58.06,3.646,77.2,5.029,89.251,1.6,109.827-10.894,48.893-26.527,57.8-27.942,2.927-11.387,17.981-15.686S888.916,440.946,894.866,422.857Z" transform="translate(-385.542 -345.242)" fill="url(#linear-gradient)"/>
</svg>
