<?xml version="1.0" encoding="utf-8"?>
<!-- Generator: Adobe Illustrator 21.1.0, SVG Export Plug-In . SVG Version: 6.00 Build 0)  -->
<svg version="1.1" id="Layer_1" xmlns="http://www.w3.org/2000/svg" xmlns:xlink="http://www.w3.org/1999/xlink" x="0px" y="0px"
	 viewBox="0 0 250 250" style="enable-background:new 0 0 250 250;" xml:space="preserve">
<style type="text/css">
	.st0{fill:#141416;}
	.st1{fill:#2A263D;}
	.st2{fill:#2B2941;}
	.st3{fill:#265DBA;}
	.st4{fill:#1E1B2C;}
	.st5{opacity:0.47;fill:#7097C4;}
	.st6{fill:#120C0C;}
	.st7{fill:#2E2B40;}
</style>
<path class="st0" d="M70,241h-0.5c-1.3,0-2.4-1.1-2.4-2.4v-5.8c0-1.3,1.1-2.4,2.4-2.4H70c1.3,0,2.4,1.1,2.4,2.4v5.8
	C72.5,239.9,71.4,241,70,241z"/>
<path class="st0" d="M117.9,240.4h-0.5c-1.3,0-2.4-1.1-2.4-2.4v-5.8c0-1.3,1.1-2.4,2.4-2.4h0.5c1.3,0,2.4,1.1,2.4,2.4v5.8
	C120.3,239.3,119.2,240.4,117.9,240.4z"/>
<path class="st0" d="M178.7,241h-0.5c-1.3,0-2.4-1.1-2.4-2.4v-5.8c0-1.3,1.1-2.4,2.4-2.4h0.5c1.3,0,2.4,1.1,2.4,2.4v5.8
	C181.2,239.9,180.1,241,178.7,241z"/>
<path class="st0" d="M124.4,240.4h-0.6c-1.6,0-3-1.3-3-3v-23c0-1.6,1.3-3,3-3h0.6c1.6,0,3,1.3,3,3v23
	C127.4,239.1,126.1,240.4,124.4,240.4z"/>
<path class="st1" d="M169.9,160.1h7.7c0,0,4.1-0.6,7.7-4.1c3.5-3.5,4.1-5.9,4.1-9.5c0-3.5,0.6-23.6,0.6-23.6l-6.8-1.5v17.7
	c0,0,1.2,10.6-3,13c-4.1,2.4-8.9,1.8-10.6,1.8S169.9,160.1,169.9,160.1z"/>
<path class="st1" d="M79.1,160.6h-7.9c0,0-4.3-0.6-7.9-4.2c-3.7-3.6-4.3-6-4.3-9.6s-0.6-24-0.6-24l7-1.5v18c0,0-1.2,10.8,3,13.2
	c4.3,2.4,9.1,1.8,11,1.8S79.1,160.6,79.1,160.6z"/>
<rect x="115" y="132.9" class="st2" width="17.1" height="19.5"/>
<path class="st3" d="M164.9,164.5H84.5c-3.6,0-6.5-2.9-6.5-6.5v-1.2c0-3.6,2.9-6.5,6.5-6.5h80.4c3.6,0,6.5,2.9,6.5,6.5v1.2
	C171.4,161.6,168.5,164.5,164.9,164.5z"/>
<rect x="120.3" y="176.6" class="st4" width="7.7" height="7.1"/>
<path class="st4" d="M128,176.6l23.6-11.8l-59.7-1.2l17.1,8.3l-8.3,0.6c0,0-4.1,3.5-8.3,5.9c-4.1,2.4-4.1,2.4-4.1,2.4
	s-4.7,3-3.5,4.1c1.2,1.2,7.1-3.5,7.1-3.5l8.6-7.4h12.4l7.1,2.4L128,176.6z"/>
<path class="st3" d="M68.7,124H54.3c-2.4,0-4.3-1.9-4.3-4.3v-0.8c0-2.4,1.9-4.3,4.3-4.3h14.4c2.4,0,4.3,1.9,4.3,4.3v0.8
	C73,122.1,71.1,124,68.7,124z"/>
<path class="st3" d="M194,122.8h-14.4c-2.4,0-4.3-1.9-4.3-4.3v-0.8c0-2.4,1.9-4.3,4.3-4.3H194c2.4,0,4.3,1.9,4.3,4.3v0.8
	C198.3,120.9,196.4,122.8,194,122.8z"/>
<path class="st5" d="M162.4,160.4H87.1c-2.4,0-4.3-1.9-4.3-4.3v-0.8c0-2.4,1.9-4.3,4.3-4.3h75.3c2.4,0,4.3,1.9,4.3,4.3v0.8
	C166.7,158.4,164.7,160.4,162.4,160.4z"/>
<rect x="116.8" y="195.5" class="st6" width="14.8" height="19.5"/>
<polyline class="st7" points="116.8,215 116.8,195.5 125,195.8 125,215.6 116.8,215 "/>
<rect x="119.1" y="183.1" class="st6" width="10.6" height="12"/>
<polyline class="st7" points="119.1,195.1 119.1,183.1 125.1,183.3 125.1,195.5 119.1,195.1 "/>
<path class="st0" d="M175.3,232.1l-0.6-5.3c0,0-10-6.5-22.5-9.5s-20.7-3.5-27.8-3.5s-17.1,1.2-29,4.1s-18.3,5.3-20.1,7.1
	c-1.8,1.8-2.4,2.4-2.4,4.1c0,0.9,0,2.2,0.1,3.2c0,0.2-0.1,0.4-0.1,0.6v5.3c0,1.5,1.2,2.7,2.7,2.7s2.7-1.2,2.7-2.7v-4.9V233
	c0-1-0.5-1.8-1.3-2.3l1.9-1.6c0,0,0-1.8,13.6-4.7s33.1-3,33.1-3s16.5,0,26,2.4s18.9,3.5,18.9,5.9c0,0.5,0,1,0,1.6
	c-0.4,0.5-0.6,1-0.6,1.6v5.3c0,1.5,1.2,2.7,2.7,2.7s2.7-1.2,2.7-2.7V233c0-0.3-0.1-0.5-0.1-0.8L175.3,232.1z"/>
<path class="st3" d="M169.3,45.4c-6.8-28.3-49.6-24.8-49.6-24.8c-16.5,0-27.2,10.6-34.3,19.5c-5.1,6.3-6.1,18.7-6.2,25.2
	c-0.2,0.6-0.3,1.3-0.3,2v58.5c0,3.9,3.2,7.1,7.1,7.1h78c3.9,0,7.1-3.2,7.1-7.1l-0.6-62"/>
<path class="st5" d="M159,73.8H91.1c-4.4,0-8-3.6-8-8v-10c0-4.4,3.6-8,8-8H159c4.4,0,8,3.6,8,8v10C167,70.2,163.4,73.8,159,73.8z"/>
<path class="st5" d="M159,101.6H91.1c-4.4,0-8-3.6-8-8v-10c0-4.4,3.6-8,8-8H159c4.4,0,8,3.6,8,8v10C167,98,163.4,101.6,159,101.6z"
	/>
<path class="st5" d="M158.4,129.3H90.5c-4.4,0-8-3.6-8-8v-10c0-4.4,3.6-8,8-8h67.9c4.4,0,8,3.6,8,8v10
	C166.4,125.7,162.8,129.3,158.4,129.3z"/>
</svg>
