<svg xmlns="http://www.w3.org/2000/svg" width="2025.685" height="490.143" viewBox="0 0 2025.685 490.143">
  <path id="Path_14" data-name="Path 14" d="M347.554,884.97s2032.922-4.832,2025.666-4.832-7.248-481.043-7.248-481.043-176.457,12.088-236.888,4.84-114.821-11.185-133.856-7.557-30.822,2.717-38.982-.9-48.946,9.062-57.105,10.876-23.574-3.628-36.265,0-216.642,67.981-216.642,67.981-74.334,32.636-121.475,43.512-104.237,11.787-138.687,26.291-203.952,45.318-231.146,45.318-73.432-6.345-98.812-.9-120.555,14.5-152.288,25.38-165.882,40.8-232.96,76.148S419.774,804.29,392.58,805.2s-34.45.9-34.45.9Z" transform="translate(-347.554 -394.826)" fill="#7a0456"/>
</svg>
