<?xml version="1.0" encoding="utf-8"?>
<!-- Generator: Adobe Illustrator 21.1.0, SVG Export Plug-In . SVG Version: 6.00 Build 0)  -->
<svg version="1.1" xmlns="http://www.w3.org/2000/svg" xmlns:xlink="http://www.w3.org/1999/xlink" x="0px" y="0px"
	 viewBox="0 0 400 400" style="enable-background:new 0 0 400 400;" xml:space="preserve">
<style type="text/css">
	.st0{display:none;}
	.st1{fill:#7C7E7D;}
	.st2{fill:#2C2F2E;}
	.st3{fill:#CCCECF;}
	.st4{fill:#E1DFDF;}
	.st5{fill:#727272;}
	.st6{fill:#646263;}
	.st7{fill:#DADADB;}
	.st8{fill:#656461;}
	.st9{fill:#CECDCB;}
	.st10{fill:#333132;}
	.st11{fill:#302F30;}
	.st12{fill:#3E3C3D;}
	.st13{fill:#E0DFDD;}
	.st14{fill:#6E6C6D;}
	.st15{fill:#FFFFFF;}
	.st16{fill:#D6D3D4;}
	.st17{fill:#171415;}
	.st18{fill:#211D1F;}
	.st19{fill:#716E6F;}
	.st20{fill:#4B4849;}
	.st21{fill:#5E5B5C;}
	.st22{fill:#A5A1A3;}
	.st23{fill:#514D4E;}
	.st24{fill:#C4C1C2;}
	.st25{fill:#7F7C7D;}
	.st26{fill:#ECF2F2;}
	.st27{fill:#D0DBD5;}
	.st28{fill:#87948B;}
	.st29{fill:#070000;}
	.st30{fill:#391F1E;}
	.st31{fill:#646158;}
	.st32{fill:#A69E93;}
	.st33{fill:#48372D;}
	.st34{fill:#1E1D18;}
	.st35{fill:#9D796B;}
	.st36{fill:#9C8C7F;}
	.st37{fill:#8F6A58;}
	.st38{fill:#110809;}
	.st39{fill:#424348;}
	.st40{fill:#020005;}
	.st41{fill:#95908D;}
	.st42{fill:#CEC3BD;}
	.st43{fill:#232426;}
	.st44{fill:#D3CAC9;}
	.st45{fill:#37383C;}
	.st46{fill:#2B1E25;}
	.st47{fill:#EFE8EC;}
	.st48{fill:#6B6D75;}
	.st49{fill:#FFFBFA;}
	.st50{fill:#F2E4E5;}
	.st51{fill:#421615;}
	.st52{fill:#583030;}
	.st53{opacity:0.44;fill:#EFE8EB;}
</style>
<g id="Layer_1" class="st0">
</g>
<g id="murray_leinster">
</g>
<g id="Layer_3">
</g>
<g id="Layer_4">
	
		<image style="overflow:visible;" width="945" height="1417" xlink:href="AEBB016F.jpg"  transform="matrix(0.2802 0 0 0.2802 61 1.75)">
	</image>
	<path class="st2" d="M61,328.8c0,0,47-13,50-20s37-18,37-18s99,15,107,8s10-28,10-28s-4,6,6,11s17,7,26,9s13,7,19,10s23,12,30,16
		s31,11,33,11s16,1,19,9s2,70,2,70H-5c0,0,10-55,33-67S61,328.8,61,328.8z"/>
	<path class="st6" d="M111.3,175.4c0,0-15.3-49.7,0.7-72.7s46-47,63-48s57,0,63,11s18,50,20,62s9,39,9,39s7-5,8-10s9-8,9-22
		s0-14,0-14l-3-14c0,0-4-16-7-20s1-12-10-21s-42-33-55-34s-15,1-15,1s-14-11-32-5s-44,21-57,41s-17,43-17,54s3,33,6,39s6,7,6,7
		L111.3,175.4z"/>
	<path class="st7" d="M113,179.8c0,4,4,25,4,30s10,32,10,32s1,10,5,14s45,24,51,27s18,5,23,4s19-8,23-12s13-13,16-15s12-12,16-16
		s6-9,7-15s2-14,2-17s0-11,0-14s1-8,1-16s-3-17-4-22s-3-14-4-22s1-19-1-26s-6-22-12-31s-21-29-41-31s-50,1-62,9s-31,19-34,28
		s-10,31-9,45S113,179.8,113,179.8z"/>
	<path class="st5" d="M148,297.8c0,0,4,16,10,21s28,20,34,22s14,2,15,4s1,5,5,5s4,0,4,0l8-6l17-14c0,0,18-18,20-22s7-17,7-18
		s-2-15-2-15l-2-33.3c0,0-20,19-24,23.7c-4,4.7-10,9.7-13,11.7s-18,10-21,10s-12,0-23-4s-25-14.3-32-15.7c-7-1.3-8-3.3-8-3.3
		s4.5,10.5,4.5,17.5S148,297.8,148,297.8z"/>
	<path class="st10" d="M142.5,233.3c0,0,10,10,14,15s9,14,11,17s15,11,22,11s8-1,11-1s15-1,19-6s15-12,16-16s1-11,3-16s9-10,9-18
		s-2-16-2-16s4,9,4,12s-6,18-6,19s-4,6-4,11s2,7,5,4s9-11,9-11s7-8,8-18s2-26,1-29s0-10-3-16s-4-11-2-14s6-7,1-16s-11-12-13-16
		s-9-6-8-18s6-14,6-25s-5.2-20.5-5.2-20.5s22.7,20,23.7,48c0.8,22,0.5,14.5,0.5,22.5s5,24,5,24l4,22l-1,16c0,0-0.7,26.3-1.8,28.2
		c-1.2,1.8-1.2,11.8-5.2,14.8s-19.3,19.7-21.2,21.8c-1.8,2.2-20.8,17.5-24.3,18.3c-3.5,0.8-5.5,5.8-11.5,5.8s-19.3-4.3-26.2-6.2
		c-6.8-1.8-13.8-13.8-15.8-16.8s-6-12-10-16S142.5,233.3,142.5,233.3z"/>
	<path class="st10" d="M166.5,185.3c0,0-8,6-9,10s-6,14-8,17s-3,3-3,5s7,13,7,15s1-8-1-11s-6-1,0-12s10-14,11-17
		S166.5,185.3,166.5,185.3z"/>
	<path class="st9" d="M270.5,198.3c8-2,8-2,8-2s1,0,2-7s1-9,2-11s3-15,3-19s-2-5-2-10s4-7,2-12s-5-2-7,5s-6,15-7,17
		s-3.3,4.3-3.2,5.2c0.2,0.8,3.2,9.8,3.2,17.8S270.5,198.3,270.5,198.3z"/>
	<path class="st9" d="M119.5,222.3c-4-12-3.3-13-3.2-15.5c0.2-2.5-2.2-18.2-3-23.3c-0.8-5.2-4.8-18.2-11.8-17.2s-4,4-4,4s1,2,4,9
		s3,15,3,16s3,7,5,11s2,8,4,11S119.5,222.3,119.5,222.3z"/>
	<path class="st10" d="M188.5,139.3c2,3,0,10,0,11s5,5,4,7s-2,8-1,11s6,3,7,7s-1,12-3,14s-4,7-7,7s-4-3-8-5s-7-1-7-1s-4,1-3,2
		c0,0,2-2,4-1s4-1,10,5s3,5,3,5s5,0,5-1s0-4,3-7s5-6,7-6s4,3,3,5s-2,2-2,2s5,0,6-3s1-5,0-8s-5-3-6-4s-6-7-5-10s-2-4-2-7
		S188.5,139.3,188.5,139.3z"/>
	<path class="st8" d="M191,137.8l5,4c0,0,11.8-8.5,17.4-8.8s23.6-2.3,23.6-2.3s-13-3-19-3s-15,0-19,3S191,137.8,191,137.8z"/>
	<path class="st8" d="M174,144.8l2-4c0,0-8-6-18-3s-26,12-26,12l-4,4c0,0,27-11,33-11S174,144.8,174,144.8z"/>
	<path class="st43" d="M102,163.8c0,0,7-4,10-4s3-1,5,0s5,6,6,6s-2-4-1-7s-1-6,2-8s7-5,16-6s16-2,21-1s10,2,12,6s2,6,1,9s-2,5-2,5h2
		c0,0,4-10,5-12s3-3,5-3s4.8,0.3,6.4,3.6s4.1,7.4,5.9,8.4s1.8-1,1.8-1s-3-1.3-3-3.1s-4-8.9-1-11.9s13-10,22-11s18-2,23,0s5,4,6,7
		s2,5,1,7s-1,2-1,2l-1,1c0,0,2,1,3-1s1-7,3-8s25-5,25-5v-4c0,0-21,4-24,4s-5-1-7-2s-2-2-6-3s-20,0-24,1s-15.5,5.5-18.5,7.5
		s-3.5,4.5-5.3,4.3s-12.8,1.8-14.8,1.8s-1-1-7-3s-9-2-16-2s-13,1-18,2s-9,3-10,4s-5,6-8,7s-11,2-11,2l-4,3L102,163.8z"/>
	<path class="st44" d="M139.8,161.3c0,0,4.3,6.5,11.3,4.5s12-4,12-6s0-3-2-4s-9.8-2.8-11.9-1.4S139.8,161.3,139.8,161.3z"/>
	<path class="st6" d="M121,168.8c0,0,7,0,10-1s12-11,17-12s8-1,13,1s8,1,8,1s0,0-3-1s-6-2-6-2s-6-1-8-1s-6,1-7,2s-11,9-13,10
		S121,168.8,121,168.8z"/>
	<path class="st45" d="M145,159.8c0,0,0,4,4,4s9-1,9-3s-0.3-5.8-0.6-5.4s-6.4-1.6-9.4,0.4S145,159.8,145,159.8z"/>
	<path class="st46" d="M147.5,158.3c0,0,0,1,1,2s5,2,5-1s-2-3-2-3S147.5,156.3,147.5,158.3z"/>
	<circle class="st47" cx="151" cy="158.8" r="0.5"/>
	<path class="st8" d="M136.5,175.3c0,0,1-3,5-3s14-2,17-4s6-4,9-4s2-3,0-3s-4-2-7-1s-4.5,3.8-9.3,3.4s-8.8-1.4-8.8-1.4l-2.8-1
		c0,0-1.3,3-4.3,5s-6,5-6,5s1-1,4-1S136.5,175.3,136.5,175.3z"/>
	<path class="st44" d="M209,150.8c0,1,5,4,11,3s12-2,11-5s-7-5-10-5s-7-1-9,2S209,150.8,209,150.8z"/>
	<path class="st48" d="M214,148.8c0,0,1,5,6,4s6-2,6-4s1-5-4-5s-6,0-7,1S214,148.8,214,148.8z"/>
	<circle class="st43" cx="219.5" cy="148.3" r="3"/>
	<circle class="st49" cx="219" cy="147.8" r="1"/>
	<path class="st6" d="M203,152.8c0,0,5.1-0.5,6.1-2.3s3.9-5.8,4.9-5.8s5-1,8,0s6,2,8,3s3,3,6,3s6,0,6,0s10,0,10-1c0,0-13,1-15,0
		s-2-2-4-4s-8-4-8-4s-4-1-8,0s-7,5-9,7s-5,2-5,3S203,152.8,203,152.8z"/>
	<path class="st8" d="M208,153.8c0,0,2,1,3,1s6,1,4,2s-6,2-5,2s9,3,15,2s11-3,12-2s7,6,7,7l-7-8c0,0-5,0-4-1s3-2,3-3s-2-3-3-3
		s-1-1-1-1l-1-1c0,0,0-1-1,1s-7,4-11,4s-9-2-9-2s-2,0-2,1S208,153.8,208,153.8z"/>
	<path class="st50" d="M160,223.8c0,0,14,9,15,10s14,5,19,4s19-5,23-11s11-11,11-13s-5-3-8-3s-18-1-21,0s-5,2-7,2s-7-2-10,0
		s-13,5-15,6S160,223.8,160,223.8z"/>
	<path class="st51" d="M165,224.8c0,0,5,2,7,2s9,2,10,2s10,0,12-1s0-2,0-2s-1,2-4,2s-5-1-5-1s0,1-2,1s-3-1-4-2s1,1-1,1
		S165,224.8,165,224.8z"/>
	<path class="st52" d="M219,216.8l6-3c0,0-2-1-3-1s-12-1-16,0s-10,4-13,4s-6,0-9,0s-13,1-16,3s-4,3-4,3l3,2c0,0,0.5-1.5,1.5-0.5
		s1,1,1,1s0-3,1-3s3,2,3,2s-2-4,0-4s4,3,4,3s0-5,2-5c1.7,0,4.2,2.2,4.8,3.5c0.1,0.2,0.2,0.4,0.2,0.5c0,1-1-5,3-5s6,3,6,5s0,2,0,2
		s0-7,1-7s6-3,7-2s2,5,2,5s1-7,2-7s2,0,3,2s1,3,1,3v1c0,0,0-6,2-6s3,1,3,1l1,2c0,0,1-3,2-2S219,216.8,219,216.8z"/>
	<path class="st9" d="M160,223.8c0,0,14.2,9.3,16.6,10.7c2.4,1.3,12.6,3.5,16,3.4c3.4-0.1,13.9-3.4,14.7-4.3
		c0.8-0.8,6.1-1.3,7.9-4.6c1.8-3.3,5.2-6.9,6.5-7.6c1.3-0.7,5.8-6.3,5.8-6.3s1.5-1.3,0.5-1.3s-3,0-3,0s-6.5,3.5-8.5,4.5s-15,7-17,8
		s-5,2-7,2s-9,1-12,0s-9.7-1.2-9.3-1.6c0.3-0.4-0.4,0-0.4,0s-4.3-3.4-6.3-3.4S160,223.8,160,223.8z"/>
	<path class="st8" d="M160,223.8c0,0,5.8-4.5,6.4-4.8c0.6-0.3,10.9-3.8,13.3-5c2.3-1.3,2.5-1.6,4.4-1.9c1.9-0.3,7.9,0.7,8.9,0.7
		s3-1.7,7-2.3c4-0.7,16,0.3,17,0.3s8.2,0.2,9.1,1.1c0.9,0.9,2.2,2.3,2.2,2.3l-3.3-0.3c0,0-3-0.8-7.3-1.2c-4.3-0.3-9.6-1.2-13.9,0.8
		c-4.3,1.9-8,2.9-9.7,3.4c-1.7,0.5-7.2-0.5-11.4,0s-6.3,0.5-10.3,1.5s-6.2,2.2-7.1,3.6c-0.9,1.4-0.9,1.4-0.9,1.4L160,223.8z"/>
	<path class="st53" d="M122,152.8c0,0-2.3,10.7,0.8,12.3c3.2,1.7,8.2,5.7,15.2,5.7s32-6,34-9s2-10,0-12s-8-9-23-6
		S127,144.8,122,152.8z"/>
	<path class="st53" d="M243.1,136c0,0,5.3,9.5,2.7,12.1c-2.6,2.5-6.3,7.8-13.1,9.8c-6.8,2-32.7,3.5-35.5,1.2
		c-2.8-2.3-4.8-9-3.4-11.5s5.8-12.3,21.2-13.8S235.9,129.8,243.1,136z"/>
</g>
</svg>
