<?xml version="1.0" encoding="utf-8"?>
<!-- Generator: Adobe Illustrator 21.1.0, SVG Export Plug-In . SVG Version: 6.00 Build 0)  -->
<svg version="1.1" id="Layer_1" xmlns="http://www.w3.org/2000/svg" xmlns:xlink="http://www.w3.org/1999/xlink" x="0px" y="0px"
	 viewBox="0 0 250 250" style="enable-background:new 0 0 250 250;" xml:space="preserve">
<style type="text/css">
	.st0{fill:#2A263D;}
	.st1{fill:#265DBA;}
	.st2{fill:none;}
	.st3{fill:#121315;}
	.st4{fill:#272F31;stroke:#121315;stroke-miterlimit:10;}
	.st5{fill:#989A9E;}
	.st6{fill:#51414E;}
</style>
<path class="st0" d="M219.8,166.5c0,0,5.4-10.2,7.2-18.7c1.8-8.4,3-9.6,1.8-11.4c-1.2-1.8-7.2-4.2-9-2.4s-1.2,3.6-1.8,6.6
	c-0.6,3-3.6,8.4-3.6,8.4L219.8,166.5z"/>
<path class="st1" d="M188.2,222.8c0,0,19.9,0.6,25.3-10.8s7.8-18.1,7.8-35.5s0.6-29.5-9-38.5c-9.6-9-4.8-7.8-12.6-9.6
	S188.2,222.8,188.2,222.8z"/>
<path class="st2" d="M201.5,162c-0.1,0.6-0.6,9-3,25.9c-2.5,17.2-9.6,33.7-10.2,37.3c-0.6,3.6-0.6,4.2,1.8,4.8s13.2-34.3,15.7-45.8
	s1.2-32.5,0.6-43.3c-0.6-10.8-1.2-16.9-4.8-18.1s-4.2,0.6-3.6,1.8S203.9,142.7,201.5,162z"/>
<path class="st3" d="M164.7,225.8c0,0,7.2,3.6,10.8,3.6s12.4,1.8,17.7-18.7c5.2-20.5,7-30.1,7.6-45.2c0.6-15.1,0-40.3-4.2-43.9
	c-4.2-3.6-6.6-6-13.8-5.4c-7.2,0.6-18.1,0.6-24.1,43.3S158.1,222.2,164.7,225.8z"/>
<path class="st4" d="M172.9,173.7c1.8-18.7,1.8-42.7-0.6-42.7c-2.4,0-10.8,27.1-10.8,39.7c0,12.6-2.4,37.3,1.8,36.1
	C167.4,205.6,172.9,173.7,172.9,173.7z"/>
<path class="st0" d="M200.9,197.5c3.6-17.5,6-34.9,5.4-50.6c-0.6-15.7-1.8-24.1-5.4-24.1s-2.8,1.6-2.6,3.8s1.4,11.8,2,29.3
	c0.6,16.7-3.2,31.7-5.8,41.7c-2.6,10-11,29.3-5.6,29.3C194.2,227,200.9,197.5,200.9,197.5z"/>
<path class="st0" d="M28.1,157.5c0,0-4.5-9.7-5.5-17.4c-1-7.7-2.1-8.9-0.7-10.4c1.4-1.5,7.9-2.9,9.5-1c1.7,1.8,0.9,3.3,1.2,6.1
	s2.8,7.9,2.8,7.9L28.1,157.5z"/>
<path class="st1" d="M54.7,211.2c0,0-20.5-1.9-24.8-12.7s-6.1-17-4.3-32.4s2.5-26.2,13.3-33c10.8-6.8,5.8-6.3,14-7
	S54.7,211.2,54.7,211.2z"/>
<path class="st3" d="M78.5,216.7c0,0-7.8,2.3-11.5,1.9c-3.7-0.4-13,0.1-16.2-18.7c-3.2-18.8-4-27.5-3.1-40.9
	c1-13.4,4.2-35.7,8.9-38.4c4.7-2.7,7.4-4.5,14.8-3.1s18.5,2.7,20.2,41.3C93.3,197.4,85.6,214.3,78.5,216.7z"/>
<path class="st4" d="M75.6,169.6c0.1-16.8,2.6-38.1,5.1-37.8s8.3,25.3,7,36.5c-1.3,11.2-1.5,33.4-5.7,31.8
	C77.8,198.5,75.6,169.6,75.6,169.6z"/>
<path class="st0" d="M44.3,187.2c-1.9-15.9-2.5-31.7-0.2-45.5s4.4-21.1,8.1-20.7c3.7,0.4,2.7,1.8,2.3,3.7
	c-0.4,1.9-2.7,10.3-5.1,25.7c-2.3,14.7,0,28.5,1.6,37.7c1.6,9.2,8.3,27.3,2.7,26.6C48,214.2,44.3,187.2,44.3,187.2z"/>
<path class="st5" d="M223.4,138.2c2.4,0.6,4.2-9.6,3.6-16.9s-2.4-27.7-12.6-43.3c-10.2-15.7-24.1-30.1-33.1-33.1
	c-9-3-51.8-10.8-78.3-6.6S61.5,48.5,53.7,55.7S36.2,77.4,29,94.8s-5.4,34.9-4.8,39.1s0.6,5.4,3,4.8s1.2-11.4,1.8-18.1
	c0.6-6.6,6.6-36.7,15.1-47s13.2-16.9,23.5-21.1s47.6-10.2,63.2-10.2s45.8,4.2,53.6,9.6s22.9,20.5,30.7,36.1s7.2,42.1,6.6,45.8
	S223.4,138.2,223.4,138.2z"/>
<path class="st6" d="M62.7,52.1c4.1,5.5,14.4,7.8,19.9,6c2.4-0.8,20.8-8.1,34.6-7.5c13.8,0.6,33.1,0.6,41.5,4.2
	c8.4,3.6,10.8,4.2,15.7,3.6c4.8-0.6,9.6-3.6,9.6-7.8s-2.4-11.4-17.5-16.3c-15.1-4.8-36.7-7.2-46.4-6c-9.6,1.2-31.9,4.2-40.9,7.2
	S59.1,47.3,62.7,52.1z"/>
</svg>
