<svg xmlns="http://www.w3.org/2000/svg" width="51.534" height="49.555" viewBox="0 0 51.534 49.555">
  <g id="Group_71" data-name="Group 71" transform="translate(-623.579 -3956.275)">
    <g id="Group_12" data-name="Group 12" transform="translate(625.143 3959.344)">
      <ellipse id="Ellipse_6" data-name="Ellipse 6" cx="22.667" cy="22.667" rx="22.667" ry="22.667" transform="translate(0 0)" fill="#43ccad"/>
    </g>
    <path id="Path_20" data-name="Path 20" d="M13.026,13.282V27.559l1.252,2.094h1.788l1.3-2.145V2.2A2.111,2.111,0,0,1,18.019.651,2.111,2.111,0,0,1,19.565,0a2.061,2.061,0,0,1,1.507.639,2.061,2.061,0,0,1,.639,1.507V28.2a2.906,2.906,0,0,1-.536,1.354l-1.992,3.295a2,2,0,0,1-1.865,1.1H13.282a2.315,2.315,0,0,1-2.452-1.737,2.3,2.3,0,0,1-2.35,1.737H4.7a2.521,2.521,0,0,1-2.35-1.2L.511,29.654A2.939,2.939,0,0,1,0,28.2V2.2A2.111,2.111,0,0,1,.651.651,2.111,2.111,0,0,1,2.2,0,1.973,1.973,0,0,1,3.665.651,2.155,2.155,0,0,1,4.291,2.2V27.61l1.252,2.043H7.381l1.354-2.145V13.282a2.137,2.137,0,0,1,2.145-2.145,2.137,2.137,0,0,1,2.145,2.145Z" transform="translate(623.579 3972.906) rotate(-50)" fill="#707070"/>
    <path id="Path_18" data-name="Path 18" d="M17.174,0,13.492,12.281H11.453L8.923,3.49a5.729,5.729,0,0,1-.192-1.139H8.683a5.378,5.378,0,0,1-.252,1.115L5.685,12.281H3.718L0,0H2.063L4.605,9.235a5.563,5.563,0,0,1,.168,1.1h.1a5.161,5.161,0,0,1,.216-1.127L7.915,0h1.8l2.543,9.259a6.61,6.61,0,0,1,.18,1.1h.1a5.1,5.1,0,0,1,.2-1.1L15.231,0Z" transform="matrix(0.695, 0.719, -0.719, 0.695, 662.357, 3984.115)" fill="#ecffa2" stroke="#707070" stroke-width="1"/>
  </g>
</svg>
