<?xml version="1.0" encoding="utf-8"?>
<!-- Generator: Adobe Illustrator 21.1.0, SVG Export Plug-In . SVG Version: 6.00 Build 0)  -->
<svg version="1.1" xmlns="http://www.w3.org/2000/svg" xmlns:xlink="http://www.w3.org/1999/xlink" x="0px" y="0px"
	 viewBox="0 0 400 400" style="enable-background:new 0 0 400 400;" xml:space="preserve">
<style type="text/css">
	.st0{display:none;}
	.st1{fill:#7C7E7D;}
	.st2{fill:#2C2F2E;}
	.st3{fill:#CCCECF;}
	.st4{fill:#E1DFDF;}
	.st5{fill:#727272;}
	.st6{fill:#646263;}
	.st7{fill:#DADADB;}
	.st8{fill:#656461;}
	.st9{fill:#CECDCB;}
	.st10{fill:#333132;}
	.st11{fill:#302F30;}
	.st12{fill:#3E3C3D;}
	.st13{fill:#E0DFDD;}
	.st14{fill:#6E6C6D;}
	.st15{fill:#FFFFFF;}
	.st16{fill:#D6D3D4;}
	.st17{fill:#171415;}
	.st18{fill:#211D1F;}
	.st19{fill:#716E6F;}
	.st20{fill:#4B4849;}
	.st21{fill:#5E5B5C;}
	.st22{fill:#A5A1A3;}
	.st23{fill:#514D4E;}
	.st24{fill:#C4C1C2;}
	.st25{fill:#7F7C7D;}
</style>
<g id="Layer_1" class="st0">
	
		<image style="display:inline;overflow:visible;" width="150" height="216" xlink:href="Murray_Leinster.jpg"  transform="matrix(2.4815 0 0 2.4815 -410 5.75)">
	</image>
</g>
<g id="murray_leinster">
	<path class="st1" d="M-128,280.8c0,0,4,28,28,29s63,2,63,2l19,3l1,86c0,0-177.5,3.5-178.5,2.5l-152,1c0,0,13-53,20-62s24-16,37-22
		s13-6,13-6l49-21L-128,280.8z"/>
	<path class="st2" d="M-232.5,305.3c0,0-60,84-64,98c0,0,98.5,0,99,0c0,0,47-45,54-50s27-17,30-25s27.5-18,27.5-18s-18.5,3-26.5-3
		s-15-19-16-27S-232.5,305.3-232.5,305.3z"/>
	<path class="st3" d="M-192.5,333.3c0,0-12,5-14,6c0,0-5,33,0,35s6-14,5,2s-1,16-1,16l37-32L-192.5,333.3z"/>
	<path class="st4" d="M-223.5,310.3c2,22,2,22,2,22l-29,59l-4,6c0,0,22-2,24-13s2-11,2-11s15-18,16-18c0,0,1-17,3-17l12-7
		L-223.5,310.3z"/>
	<path class="st5" d="M-197.5,403.3c37-35,37-35,37-35s-2.3-1.6,19-18c13-10,16-3,23-14s7-11,7-11c26-15,26-15,26-15l23,0.5
		c0,0-29,27.5-31,40.5s-17,36-22,44s-7.5,8-7.5,8H-197.5z"/>
	<path class="st6" d="M-218.5,312.3c0,0,19,9,23,8s22-3,32-9s46-41,49-50s15-32,18-37s17-25,20-35s3-23-3-24s-8,1-6-11s5-30,4-35
		s-3-25-19-37s-14-11-18-17s-18-18-29-19s-20-5-23-10s-8-12-8-15s-5,6-3,9c0,0-5-7-4-11s-5,3-4,6c0,0-7-6-7-11s1.9,9.3-1,8
		c-9-4-6-1-9-4s11,9-2,7c0,0-10-8-23-3s-19,15-24,22s-1,10-6,12s-12,2-15,17s-5,23-6,37s1,42,1,51s2,20,2,20s53,128,56,129
		S-218.5,312.3-218.5,312.3z"/>
	<path class="st7" d="M-274.5,209.3c0,0,1,27,6,37s12,33,22,40s11,14,14,19s14,3,14,3s2,5,8,5s23,1,36-10s20-25,22-32s0-14,2-20
		s0-13,9-23s11-9,12-21s-1-16-4-19s-11-12-11-19s1-8,2-9s3-7,2-11s-7-5-6-12s6-12,6-20s2-22-6-26s-22-6-32-7s-48-1-53,1s-4,7-11,7
		s-9-7-11-7s-12-4-18,18s-5,30-5,37c0,0,0,22,0,24s-2,15-2,15s-1-4-5-2S-274.5,209.3-274.5,209.3z"/>
	<path class="st8" d="M-242.5,259.3c0,0,20-1,24-1s5,2,10,2s6-1,10-1s31,5,31,5s-10,8-38,6s-28-2-28-2l-9-8V259.3z"/>
	<path class="st9" d="M-242.5,259.3c0,2,3,3,6,7s10,9,16,8s9-3,15-1s8,4,17,2s13-6,16-7s7-4,4-4s-19-2-24-1s-11,3-16,1s-15-2-18-2
		S-242.5,259.3-242.5,259.3z"/>
	<path class="st10" d="M-189.5,183.3c8-9,8-9,8-9s4-5,12-5s14,2,17,3s2,6-1,8s3,6-2,7s-10,2-10,2s12,2,18,1s15,0,15,8s0,9-1,17
		s3,3,3,3s2.3-15,2.2-17.5c-0.2-2.5-0.5-5.5-7.3-14c-6.8-8.5-11.8-14.2-9.3-19.3c2.5-5.2-3.5-9.2-13.5-9.2s-29,3-37,5s-20,5-19,7
		s10,3,10,3s0,54,1,54s1,0,1,0s2-9,7-9s11,2,11,6s-2,9-5,9s-8-3-12,0s-3,7-8,7s-2-4-7-3s-6-2-9-4s-4,0-3,2s5,2,5,2s7,0,8,1s7,8,9,8
		s20,15,26,6s10-12,3-21s-8-12-10-17S-189.5,183.3-189.5,183.3z"/>
	<path class="st11" d="M-226.5,185.3c0,0,6,1,5-6s-4-9-13-11s-23-1-29,2s-9,7-9,10s2,6,3,6s-2-10,14-11s25,0,25,3s-15-5-24,2
		s-10,10-10,10s13-10,23-8S-226.5,185.3-226.5,185.3z"/>
	<rect x="-172" y="178.8" class="st12" width="3" height="3"/>
	<rect x="-175" y="176.8" width="3" height="3"/>
	<rect x="-179" y="178.8" class="st13" width="3" height="3"/>
	<rect x="-172" y="181.8" class="st14" width="3" height="3"/>
	<rect x="-177" y="181.8" class="st15" width="3" height="3"/>
	<rect x="-169" y="181.8" class="st14" width="3" height="3"/>
	<rect x="-239" y="186.8" class="st16" width="2" height="2"/>
	<rect x="-249" y="184.8" class="st17" width="2" height="2"/>
	<rect x="-251" y="184.8" class="st18" width="2" height="2"/>
	<rect x="-251" y="186.8" class="st19" width="2" height="2"/>
	<rect x="-249" y="186.8" class="st20" width="2" height="2"/>
	<rect x="-247" y="186.8" class="st21" width="2" height="2"/>
	<rect x="-241" y="186.8" class="st22" width="2" height="2"/>
	<rect x="-241" y="184.8" class="st23" width="2" height="2"/>
	<rect x="-241" y="188.8" class="st24" width="2" height="2"/>
	<rect x="-243" y="188.8" class="st24" width="2" height="2"/>
	<rect x="-243" y="186.8" class="st25" width="2" height="2"/>
	<image style="overflow:visible;" width="405" height="270" xlink:href="8EC6FDFF.jpg"  transform="matrix(1 0 0 1 -145 67.75)">
	</image>
</g>
<g id="Layer_3">
</g>
</svg>
