<?xml version="1.0" encoding="utf-8"?>
<!-- Generator: Adobe Illustrator 21.1.0, SVG Export Plug-In . SVG Version: 6.00 Build 0)  -->
<svg version="1.1" id="this_could_be_you" xmlns="http://www.w3.org/2000/svg" xmlns:xlink="http://www.w3.org/1999/xlink" x="0px"
	 y="0px" viewBox="0 0 1366 768" style="enable-background:new 0 0 1366 768;" xml:space="preserve">
<style type="text/css">
	.st0{fill:#51414E;}
	.st1{fill:#265DBA;}
	.st2{fill:#CCCCCC;}
	.st3{fill:#B4B5B4;}
	.st4{fill:#141416;}
	.st5{fill:#2A263D;}
	.st6{fill:#2B2941;}
	.st7{fill:#1E1B2C;}
	.st8{opacity:0.47;fill:#7097C4;}
	.st9{fill:#120C0C;}
	.st10{fill:#2E2B40;}
	.st11{fill:#CBC8CA;}
	.st12{fill:#DFD7CE;}
	.st13{fill:#4F68C0;}
	.st14{fill:#7C92B3;}
	.st15{fill:#C4A5C6;}
	.st16{fill:#232426;}
	.st17{opacity:0.44;fill:#EFE8EB;}
	.st18{fill:#A6ADC9;}
	.st19{fill:#9BE0C6;}
	.st20{fill:#7F4453;}
	.st21{fill:#A57E53;}
	.st22{fill:#E21A45;}
	.st23{fill:#D19C5D;}
	.st24{fill:none;}
	.st25{fill:#121315;}
	.st26{fill:#989A9E;}
	.st27{fill:#FFF286;}
	.st28{fill:#1A507F;}
	.st29{fill:#E1ECEE;}
</style>
<image style="display:none;overflow:visible;" width="400" height="540" xlink:href="295CC8D5.jpg"  transform="matrix(1 0 0 1 57 104)">
</image>
<image style="display:none;overflow:visible;" width="450" height="450" xlink:href="295CC8D7.jpg"  transform="matrix(1 0 0 1 589 317)">
</image>
<image style="display:none;overflow:visible;" width="626" height="626" xlink:href="295CC8D2.jpg"  transform="matrix(1 0 0 1 -3 -373)">
</image>
<g id="coffee_cup">
	<g>
		<rect x="887" y="387.1" class="st0" width="72.4" height="8.9"/>
		<path class="st0" d="M900.7,322.2L900.7,322.2c-1.1,0-2.1-0.9-2.1-2.1v-13.7c0-1.1,0.9-2.1,2.1-2.1l0,0c1.1,0,2,0.9,2,2.1v13.7
			C902.7,321.3,901.8,322.2,900.7,322.2z"/>
		<path class="st0" d="M939.6,316L939.6,316c-1.1,0-2.1-0.9-2.1-2v-13.7c0-1.1,0.9-2.1,2-2.1h0c1.1,0,2,0.9,2,2.1V314
			C941.7,315.1,940.7,316,939.6,316z"/>
		<path class="st0" d="M919.8,319.5L919.8,319.5c-1.1,0-2-0.9-2-2.1v-24.6c0-1.1,0.9-2,2-2l0,0c1.1,0,2,0.9,2,2v24.6
			C921.8,318.5,920.9,319.5,919.8,319.5z"/>
		<path class="st1" d="M954,342v-8.9c0,0,0.7-2.7-4.1-2.7c-4.8,0-56.7,0-56.7,0s-4.1,0-4.1,2.1c0,2-4.8,57.4,32.1,57.4
			c19.1,0,27.3-20.5,27.3-20.5s20.5-6.8,20.5-17.1S963.5,338.6,954,342z M963.5,353.6c-0.7,4.1-12.3,8.2-12.3,8.2l2.4-11.8
			c0.2-1.1,1.1-2,2.3-2.2c1.8-0.3,4.4-0.7,5.6-0.3C963.5,348.2,964.2,349.5,963.5,353.6z"/>
	</g>
</g>
<rect x="-4" y="577" class="st2" width="1374" height="190"/>
<path class="st2" d="M769,353H562c-6.6,0-12-5.4-12-12V203c0-6.6,5.4-12,12-12h207c6.6,0,12,5.4,12,12v138
	C781,347.6,775.6,353,769,353z"/>
<path class="st3" d="M648,310c0,0,33,62,21,75s-17.7,13.3-17.7,13.3L712,398l-39-89L648,310z"/>
<image style="display:none;overflow:visible;" width="335" height="519" xlink:href="295CC8D3.jpg"  transform="matrix(1.6146 0 0 1.6146 466.6358 38)">
</image>
<g id="chair">
	<path class="st4" d="M218,656h-2.3c-2.5,0-4.5-2-4.5-4.5V638c0-2.5,2-4.5,4.5-4.5h2.3c2.5,0,4.5,2,4.5,4.5v13.5
		C222.5,654,220.5,656,218,656z"/>
	<path class="st4" d="M319.4,654.7h-2.3c-2.5,0-4.5-2-4.5-4.5v-13.5c0-2.5,2-4.5,4.5-4.5h2.3c2.5,0,4.5,2,4.5,4.5v13.5
		C323.9,652.7,321.9,654.7,319.4,654.7z"/>
	<path class="st4" d="M448.3,656H446c-2.5,0-4.5-2-4.5-4.5V638c0-2.5,2-4.5,4.5-4.5h2.3c2.5,0,4.5,2,4.5,4.5v13.5
		C452.8,654,450.7,656,448.3,656z"/>
	<path class="st4" d="M334.4,654.7h-4.8c-2.5,0-4.5-2-4.5-4.5v-52.3c0-2.5,2-4.5,4.5-4.5h4.8c2.5,0,4.5,2,4.5,4.5v52.3
		C338.9,652.7,336.9,654.7,334.4,654.7z"/>
	<path class="st5" d="M429,484.6h16.3c0,0,8.8-1.3,16.3-8.8c7.5-7.5,8.8-12.5,8.8-20s1.3-50,1.3-50l-14.4-3.1v37.5
		c0,0,2.5,22.5-6.3,27.5c-8.8,5-18.8,3.8-22.5,3.8S429,484.6,429,484.6z"/>
	<path class="st5" d="M236.5,485.8h-16.8c0,0-9-1.3-16.8-8.9c-7.7-7.6-9-12.7-9-20.3s-1.3-50.8-1.3-50.8l14.8-3.2v38.1
		c0,0-2.6,22.9,6.4,28c9,5.1,19.3,3.8,23.2,3.8C241,472.5,236.5,485.8,236.5,485.8z"/>
	<rect x="312.6" y="427" class="st6" width="36.3" height="41.3"/>
	<path class="st1" d="M424.1,494H242.4c-4.4,0-8-3.6-8-8v-14c0-4.4,3.6-8,8-8h181.7c4.4,0,8,3.6,8,8v14
		C432.1,490.4,428.5,494,424.1,494z"/>
	<rect x="323.9" y="519.6" class="st7" width="16.3" height="15"/>
	<path class="st7" d="M340.2,519.6l50-25l-126.4-2.5l36.3,17.5l-17.5,1.3c0,0-8.8,7.5-17.5,12.5c-8.8,5-8.8,5-8.8,5s-10,6.3-7.5,8.8
		s15-7.5,15-7.5L282,514h26.3l15,5L340.2,519.6z"/>
	<path class="st1" d="M215.8,408.3H183c-4.4,0-8-3.6-8-8v-4c0-4.4,3.6-8,8-8h32.8c4.4,0,8,3.6,8,8v4
		C223.8,404.7,220.2,408.3,215.8,408.3z"/>
	<path class="st1" d="M481.1,405.8h-32.8c-4.4,0-8-3.6-8-8v-4c0-4.4,3.6-8,8-8h32.8c4.4,0,8,3.6,8,8v4
		C489.1,402.2,485.5,405.8,481.1,405.8z"/>
	<path class="st8" d="M414.1,485.2H252.4c-4.4,0-8-3.6-8-8v-4c0-4.4,3.6-8,8-8h161.7c4.4,0,8,3.6,8,8v4
		C422.1,481.6,418.5,485.2,414.1,485.2z"/>
	<rect x="316.4" y="559.7" class="st9" width="31.3" height="41.3"/>
	<polyline class="st10" points="316.4,600.9 316.4,559.7 333.9,560.3 333.9,602.2 316.4,600.9 	"/>
	<rect x="321.4" y="533.4" class="st9" width="22.5" height="25.5"/>
	<polyline class="st10" points="321.4,558.9 321.4,533.4 334,533.8 334,559.7 321.4,558.9 	"/>
	<path class="st4" d="M440.3,637.2L439,626c0,0-21.3-13.8-47.5-20c-26.3-6.3-43.8-7.5-58.8-7.5c-15,0-36.3,2.5-61.3,8.8
		c-25,6.3-38.8,11.3-42.5,15c-3.8,3.8-5,5-5,8.8c0,2,0.1,4.7,0.2,6.8c-0.1,0.4-0.2,0.9-0.2,1.3v11.3c0,3.1,2.5,5.6,5.6,5.6
		c3.1,0,5.6-2.5,5.6-5.6V640v-0.9c0-2.1-1.1-3.8-2.8-4.8l4-3.3c0,0,0-3.8,28.8-10s70.1-6.3,70.1-6.3s35,0,55.1,5
		c20,5,40,7.5,40,12.5c0,1,0,2.1,0,3.4c-0.8,1-1.3,2.2-1.3,3.5v11.3c0,3.1,2.5,5.6,5.6,5.6s5.6-2.5,5.6-5.6v-11.3
		c0-0.6-0.1-1.1-0.3-1.6L440.3,637.2z"/>
	<path class="st1" d="M427.7,241.8c-14.4-60-105.1-52.6-105.1-52.6c-35,0-57.6,22.5-72.6,41.3c-10.7,13.4-12.8,39.5-13.2,53.4
		c-0.4,1.3-0.6,2.7-0.6,4.2V412c0,8.3,6.8,15,15,15h165.2c8.3,0,15-6.8,15-15l-1.3-131.4"/>
	<path class="st8" d="M414.7,301.9H253.1c-4.4,0-8-3.6-8-8v-39.1c0-4.4,3.6-8,8-8h161.7c4.4,0,8,3.6,8,8v39.1
		C422.7,298.3,419.1,301.9,414.7,301.9z"/>
	<path class="st8" d="M414.7,360.7H253.1c-4.4,0-8-3.6-8-8v-39.1c0-4.4,3.6-8,8-8h161.7c4.4,0,8,3.6,8,8v39.1
		C422.7,357.1,419.1,360.7,414.7,360.7z"/>
	<path class="st8" d="M413.5,419.5H251.8c-4.4,0-8-3.6-8-8v-39.1c0-4.4,3.6-8,8-8h161.7c4.4,0,8,3.6,8,8v39.1
		C421.5,415.9,417.9,419.5,413.5,419.5z"/>
</g>
<g>
	<path class="st11" d="M260,216c3-5,51-98,51-98l80-4l44,101l-50,19l-50,7h-18L260,216z"/>
	<path class="st12" d="M326.5,212.5l32,41c0,0,7,4,10,2s12-9,16-22s6-18,9-23s7-62,2-69s-67,4-67,4L326.5,212.5z"/>
	<polygon class="st13" points="322.5,241.5 326.5,213.5 341.5,232.5 336.8,241 	"/>
	<path class="st14" d="M384.5,233.5l19-6.2l-3-88.2h-10c0,0,4-1.1,5,2.1s1.5,52,0.8,54.9s-6.8,20.1-7.8,25.5
		S384.5,233.5,384.5,233.5z"/>
	<path class="st15" d="M351,215c0,0,15,9,20,9s12-5,12-6s-3-1-6-2s-6,0-6,0s-4-2-6-1S351,215,351,215z"/>
	<g>
		<path class="st0" d="M353.8,157.2c-1.7,0-3.4,0-5.1-0.1c-1.7,0-3.4-0.1-5.1-0.2c-1.7,0-3.4,0.1-4.9,0.9c-0.8,0.4-1.4,0.9-2.1,1.4
			c-0.7,0.5-1.3,1.1-2,1.6c0.6-0.6,1.3-1.2,1.9-1.8c0.6-0.6,1.3-1.2,2.1-1.6c1.6-0.9,3.4-1,5.1-1c1.7,0.1,3.4,0.2,5.1,0.3
			C350.3,156.9,352.1,157.1,353.8,157.2z"/>
	</g>
	<g>
		<path class="st0" d="M375,156.5c1.5-0.1,3.1-0.3,4.5-0.6c1.5-0.4,3-0.8,4.5-1c3.1-0.4,6.3-0.2,9.2,0.9c-3.1-0.3-6.1-0.3-9.1,0.1
			c-1.5,0.2-3,0.6-4.5,0.8C378.1,156.9,376.5,156.8,375,156.5z"/>
	</g>
	<path class="st14" d="M368.5,164.5c0,0-1,3,0,6s17,25,17,25l-19,3l1-34"/>
	<circle class="st0" cx="346.5" cy="171.5" r="3"/>
	<circle class="st0" cx="385" cy="168" r="2.5"/>
	<path class="st16" d="M325,174.3c0,0,4-2.6,5.6-2.4c1.6,0.2,1.7-0.6,2.7,0.3c1,0.8,2.3,4.6,2.8,4.7c0.5,0.1-0.8-3-0.1-5.2
		s-0.2-4.4,1.5-5.7c1.7-1.3,4-3.3,8.9-3.6c4.9-0.3,8.6-0.6,11.2,0.3c2.6,1,5.2,2,6,5c0.8,3,0.7,4.5,0,6.6c-0.7,2.1-1.4,3.5-1.4,3.5
		l1.1,0.1c0,0,2.7-7.1,3.4-8.5c0.7-1.4,1.8-2,2.8-1.9c1.1,0.1,2.5,0.4,3.2,3c0.7,2.5,1.8,5.6,2.6,6.4c0.9,0.8,1-0.6,1-0.6
		s-1.5-1.1-1.4-2.4c0.1-1.4-1.6-6.7,0.2-8.7c1.8-2,7.5-6.6,12.4-6.9c4.9-0.3,9.7-0.5,12.3,1.2s2.4,3.2,2.8,5.4
		c0.4,2.2,0.8,3.7,0.1,5.2c-0.7,1.4-0.7,1.4-0.7,1.4l-0.6,0.7c0,0,1,0.8,1.7-0.6c0.7-1.4,0.9-5.1,2.1-5.7c1.1-0.6,13.6-2.4,13.6-2.4
		l0.2-2.9c0,0-11.4,1.8-13,1.7c-1.6-0.2-2.6-1-3.6-1.8c-1-0.8-0.9-1.6-3-2.5c-2.1-0.9-10.7-1-12.8-0.5c-2.2,0.5-8.6,3.2-10.3,4.5
		s-2.1,3.1-3,2.8c-0.9-0.3-6.9,0.6-8,0.5c-1.1-0.1-0.5-0.8-3.6-2.5c-3.1-1.8-4.7-1.9-8.4-2.3c-3.7-0.4-7,0.1-9.7,0.5
		c-2.7,0.5-5,1.7-5.6,2.4c-0.6,0.7-3,4.1-4.7,4.7s-6,0.9-6,0.9l-2.3,2L325,174.3z"/>
	<circle class="st17" cx="348.5" cy="173.5" r="12.5"/>
	<circle class="st17" cx="388.5" cy="170.5" r="12.5"/>
	<path class="st18" d="M316,170l-6,20c0,0-11-6-8-13S316,170,316,170z"/>
	<path class="st19" d="M337,241l-11,27c0,0-70,23-75,23s-3,7-3,10s-4,81-4,81l-36-36c0,0-1-1-5-1s-12,37-17,43s-12,13-10,14
		s17-10,17-14s4-11,4-11s-3,3,0,4s10-19,10-19l44,48c0,0,3,3,6,3s20.5-71.5,18.5-82.5s55,5,55,5L359,312l69.5,55.5c0,0,3,2,6,2
		s44-61,46-63s9,7,12,9s10,2,10,1s-22-14-19-14s29,12,32,12s30,0,16-6s-33-7-40-12s-13-8-16-5s-42,51-42,51s-45-45-48-48
		s-24-3-29-11s-5-19-2-25s5-10,5-10l-14.8-13.8L337,241z"/>
	<path class="st20" d="M461.5,541.5L428,652c0,0,58,9,66,24s-99-7-99-7l50.5-151l24.5,7L461.5,541.5z"/>
	<path class="st21" d="M507.5,423.5c0,0-53.5,197.5-59.5,204.5s-13,1-13,1s8-34,1-36c-15.7-4.5-21,17-22,22s-4,12-4,12s-10-15-5-22
		s73-181,73-181L507.5,423.5z"/>
	<path class="st22" d="M479.4,490.4l-48.5,104.8c0,0,56.2,17,62,32.9c5.8,16-97.1-20.7-97.1-20.7l71-142.5l23.3,10.3L479.4,490.4z"
		/>
	<path class="st23" d="M273,451c0,0,6,38,17,40s161-33,174-37c0,0-37,76-36,79s3,4,3,4s11-26,25-21s0,26,0,26h11c0,0,42-116,41-124
		s3-12-6-11s-124,29-130,24s-28-27.5-28-27.5s-64,5.5-68,23.5s-4,18-4,18L273,451z"/>
	<path class="st18" d="M322,269.5c0,0,4,10.5,16,14.5s18-1,18-1s7,7,14,8s13,0,15,3s16,10,16,12s-1.5,2.5-1.5,2.5S395,308,390,310
		s-13,13-11,17s5,5,5,5s-4,0-6-2s-8-10-13-9s-30,67-25,77s11,13,15,15s-17-3-29,3s-42,20-47,29c-3.4,6.2-4,14-4,14s-2,4-6-7
		s10-108,8-113l-3,11.3c0,0-3-7.3-14-11.3s-14,1-14,4s0,5,0,5s-8-3-7-8s3.5-46,9.3-48.5S322,269.5,322,269.5z"/>
</g>
<g id="headphones">
	<path class="st5" d="M429.7,173.7c0,0,3.4-5.6,4.4-10.1s1.7-5.2,0.8-6c-1-0.9-5.4-1.7-6.6-0.7c-1.2,1.1-0.7,1.9-1,3.5
		S425,165,425,165L429.7,173.7z"/>
	<path class="st1" d="M423.4,195.9c0,0,9-0.8,10.3-7.8c1.4-7,1.7-10.8-1.8-19.2c-3.5-8.4-5.4-14.3-13.7-16
		c-8.3-1.7-4.8-2.4-10.4-1.1S423.4,195.9,423.4,195.9z"/>
	<path class="st24" d="M416.2,172.5c0,0.3,0,4.7-1,13.6c-1,9.1-5.4,18.1-5.7,20c-0.3,1.9-0.2,2.2,1.5,2.4c1.8,0.2,8-18.6,9.2-24.7
		c1.2-6.1-0.6-16.9-1.6-22.5c-0.9-5.6-1.6-8.7-4.3-9c-2.7-0.4-3,0.6-2.5,1.2C412.3,154,417,162.4,416.2,172.5z"/>
	<path class="st5" d="M290.6,181.4c0,0-3.7-4.7-4.8-8.7c-1.1-3.9-1.9-4.5-1-5.3c1-0.8,5.6-2,6.8-1.2s0.8,1.7,1.1,3.1
		c0.3,1.4,2.4,3.9,2.4,3.9L290.6,181.4z"/>
	<path class="st1" d="M304.8,198.9c0,0-10.1,0.4-12.5-4.5c-2.4-5-3.5-7.8-3-15.5c0.5-7.6,0.5-12.9,5.6-16.9c5.1-4,2.6-3.5,6.6-4.3
		C305.6,156.8,304.8,198.9,304.8,198.9z"/>
	<path class="st25" d="M316.6,200c0,0-3.7,1.6-5.6,1.7c-1.8,0-6.3,0.9-8.4-8c-2.1-8.9-2.7-13.1-2.6-19.7c0.1-6.6,1.1-17.6,3.3-19.2
		c2.2-1.6,3.5-2.7,7.1-2.5c3.6,0.2,9.1,0.1,11,18.7C323.3,189.6,320,198.3,316.6,200z"/>
	<path class="st25" d="M426.5,194.2c0,0-0.7,2.1-1.3,2.4c-0.6,0.3-1.8,1.8-5.8-6.1s-5.7-11.8-8-17.9c-2.3-6.1-6-16.6-5.9-18.5
		s0.2-3.1,1.5-3.5c1.3-0.4,3.1-1.4,10.5,15.7S427.1,192.1,426.5,194.2z"/>
	<path class="st5" d="M299.1,187.9c-1.3-7.6-2.1-15.2-1.4-22.1c0.7-6.8,1.6-10.5,3.4-10.6c1.8,0,1.4,0.7,1.2,1.6
		c-0.2,1-1,5.2-1.8,12.8c-0.7,7.3,0.8,13.8,1.8,18.2s4.8,12.7,2,12.8C301.7,200.8,299.1,187.9,299.1,187.9z"/>
	<path class="st26" d="M431,158.8c1.8,0.2,2.6-5.3,1.8-9c-0.8-3.7-3-14.2-11.1-21.6c-8.1-7.4-18.8-14-25.5-15
		c-6.7-1-37.9-2.3-56.9,1.6s-29.6,8-34.9,12.2c-5.3,4.2-11.6,12.3-16,21.9c-4.4,9.5-2.3,18.4-1.7,20.6s0.7,2.8,2.4,2.3
		s0.3-6,0.5-9.5s3.1-19.4,8.7-25.3s8.8-9.6,16-12.4c7.2-2.8,33.9-8.4,45.2-9.4c11.3-1,33.3-0.8,39.2,1.5s17.5,9.1,23.9,16.7
		c6.4,7.6,7.2,21.4,6.9,23.3C429.2,158.6,431,158.8,431,158.8z"/>
	<path class="st0" d="M310.8,124.6c3.2,2.6,10.8,3.1,14.6,1.8c1.7-0.6,14.6-5.5,24.7-6.1c10-0.6,24-1.8,30.2-0.5
		c6.3,1.3,8,1.5,11.5,0.9c3.5-0.6,6.8-2.5,6.6-4.7s-2.3-5.8-13.4-7.3c-11.1-1.5-26.9-1.4-33.8-0.1s-22.9,4.2-29.3,6.4
		C315.6,117.1,307.9,122.3,310.8,124.6z"/>
	<circle class="st27" cx="836.9" cy="122.6" r="19.4"/>
	<path class="st28" d="M901.1,122.1c-0.6-34.3-28.6-61.9-63-61.9s-62.4,27.6-63,61.9H901.1z"/>
	<rect x="834.2" y="1" class="st25" width="8.8" height="63"/>
	<rect x="547" y="399" class="st29" width="492" height="30"/>
	<rect x="604" y="422" class="st29" width="21" height="292"/>
	<rect x="946" y="422" class="st29" width="21" height="292"/>
</g>
</svg>
