<?xml version="1.0" encoding="utf-8"?>
<!-- Generator: Adobe Illustrator 21.1.0, SVG Export Plug-In . SVG Version: 6.00 Build 0)  -->
<svg version="1.1" xmlns="http://www.w3.org/2000/svg" xmlns:xlink="http://www.w3.org/1999/xlink" x="0px" y="0px"
	 viewBox="0 0 400 400" style="enable-background:new 0 0 400 400;" xml:space="preserve">
<style type="text/css">
	.st0{display:none;}
	.st1{fill:#7C7E7D;}
	.st2{fill:#2C2F2E;}
	.st3{fill:#CCCECF;}
	.st4{fill:#E1DFDF;}
	.st5{fill:#727272;}
	.st6{fill:#646263;}
	.st7{fill:#DADADB;}
	.st8{fill:#656461;}
	.st9{fill:#CECDCB;}
	.st10{fill:#333132;}
	.st11{fill:#302F30;}
	.st12{fill:#3E3C3D;}
	.st13{fill:#E0DFDD;}
	.st14{fill:#6E6C6D;}
	.st15{fill:#FFFFFF;}
	.st16{fill:#D6D3D4;}
	.st17{fill:#171415;}
	.st18{fill:#211D1F;}
	.st19{fill:#716E6F;}
	.st20{fill:#4B4849;}
	.st21{fill:#5E5B5C;}
	.st22{fill:#A5A1A3;}
	.st23{fill:#514D4E;}
	.st24{fill:#C4C1C2;}
	.st25{fill:#7F7C7D;}
	.st26{fill:#ECF2F2;}
	.st27{fill:#D0DBD5;}
	.st28{fill:#87948B;}
	.st29{fill:#070000;}
	.st30{fill:#391F1E;}
	.st31{fill:#646158;}
	.st32{fill:#A69E93;}
	.st33{fill:#48372D;}
	.st34{fill:#1E1D18;}
	.st35{fill:#9D796B;}
	.st36{fill:#9C8C7F;}
	.st37{fill:#8F6A58;}
	.st38{fill:#110809;}
	.st39{fill:#424348;}
	.st40{fill:#020005;}
	.st41{fill:#95908D;}
	.st42{fill:#CEC3BD;}
</style>
<g id="Layer_1" class="st0">
</g>
<g id="murray_leinster">
</g>
<g id="Layer_3">
	
		<image style="display:none;overflow:visible;" width="405" height="270" xlink:href="22766A82.jpg"  transform="matrix(1.2099 0 0 1.2099 -175 60.75)">
	</image>
	<path class="st26" d="M402.2,225.7c0,0-39.1-20.9-45.6-20.9s-14.3-1.3-14.3-1.3s-11.7-14.3-16.9-14.3c0,0,0,26.1-13,43
		c-13,16.9-30,20.9-37.8,33.9c-7.8,13-2.6,22.2-2.6,22.2s6.5,23.5,7.8,23.5l-11.7-7.8c0,0-11.7-10.4-11.7-15.6
		c0-5.2-5.2-10.4-5.2-10.4l-11.7-23.5c0,0-6.5-1.3-9.1-1.3c-2.6,0-11.7-1.3-11.7-1.3s-23.5,7.8-30,27.4c-6.5,19.6-6.5,43-7.8,45.6
		s-6.5,26.1-7.8,32.6s-14.3,36.5-19.6,39.1c-5.2,2.6-9.1,3.9-7.8,5.2c1.3,1.3,10.4-3.9,18.3,9.1c7.8,13,7.8,18.3,7.8,18.3l230.1-0.7
		L402.2,225.7z"/>
	<path class="st27" d="M342.8,239.3c-14.3,40.4-1.3,18.3-14.3,39.1s-3.9,3.9-13,20.9s-9.1,16.9-9.1,16.9l-11.7-22.2
		c0,0-9.1-20.9-11.7-15.6s-7.8,14.3-7.8,14.3l3.9,27.4l-2.6,22.2c0,0-6.5,19.6-7.8,26.1c-1.3,6.5-1.3,19.6,0,28.7
		c1.3,9.1,0.2,31.5,0.2,31.5l14.3,0.9c0,0,1.1-18,2.4-28.5c1.3-10.4,0-22.2,0-28.7s5.2-14.3,5.2-20.9s2.6-27.4,2.6-32.6
		c0-5.2-7.8-24.8-1.3-15.6s7.8,15.6,11.7,15.6s10.4-11.7,10.4-11.7s13-19.6,19.6-32.6S342.8,239.3,342.8,239.3z"/>
	<path class="st28" d="M213.8,428.7c-5.9-31,0.7-34.9-5.9-53.1s-1.3-10.4-6.5-18.3c-5.2-7.8-5.2-7.8-5.2-7.8l-7.8-26.1l9.1,35.2
		l9.1,30v5.2c0,0,6.5,15.6-6.5-13c-13-28.7-13-28.7-13-28.7l7.8,26.1c0,0,11.7,24.8,10.4,30c-1.3,5.2-7.8,5.2-13,1.3
		s-19.6-26.1-22.2-23.5c-2.6,2.6,26.1,30,26.1,30s-5.2,0-13-2.6s-20.9-13-7.8-2.6c13,10.4,9.1,6.5,13,10.4c3.9,3.9,3.9,3.9,3.9,3.9
		l-10.1,3.9L213.8,428.7z"/>
	<path class="st7" d="M326.6,206.1c-3.9,10.4-3.9,11.7-3.9,11.7s-5.2,5.2-26.1,39.1c-20.9,33.9-22.2,6.5-20.9,32.6
		c1.3,26.1,5.2,30,1.3,27.4s-2.6-2.6-2.6-2.6l-20.9-22.2c0,0-1.3-13-5.2-20.9c-3.9-7.8-3.9-7.8-3.9-7.8l-5.9-8.5
		c0,0-14.3,0-18.3-3.9c-3.9-3.9-7.8-14.3-10.4-15.6c-2.6-1.3-13-13-15.6-18.3c-2.6-5.2-2.6-9.1-5.2-13c-2.6-3.9-6.5-10.4-6.5-16.9
		c0-6.5,2.6-13,0-18.3c-2.6-5.2-2.6-11.7-2.6-11.7s-3.9-2.6-3.9-10.4s0-16.9,0-27.4s0-19.6,3.9-28.7c3.9-9.1,13-35.2,37.8-41.7
		s50.2-5.9,59.3-4.6c9.1,1.3,6.5,18.3,13,24.8c6.5,6.5,2.6,13,6.5,16.9c3.9,3.9-2,7.2-2,15s7.2,12.4,9.8,16.3
		c2.6,3.9-5.9,24.1-2,26.7c3.9,2.6,7.8,0,11.7-6.5c3.9-6.5-4.6-0.7,3.3-12.4c7.8-11.7,12.4-11.1,16.3-7.2c3.9,3.9,5.2,11.7,5.2,26.1
		c0,14.3-6.5,22.2-9.1,24.8c-2.6,2.6-6.5,6.5-6.5,6.5s2.6,16.9,2.6,22.2C325.9,202.8,326.6,206.1,326.6,206.1z"/>
	<path class="st6" d="M328.5,54.2l-11.7-1.3c0,0-11.7,0-9.1-1.3s7.8-1.3,7.8-1.3s-2.6-5.2-7.8-3.9c-5.2,1.3-9.1,0-6.5-3.9
		s7.8-3.9,7.8-3.9s-7.8-1.3-10.4,0c-2.6,1.3,2.6-3.9,3.9-5.2c1.3-1.3-6.5,0-7.8,2.6c-1.3,2.6,1.3-6.5,5.2-7.8
		c3.9-1.3-9.1,0-10.4,2.6c-1.3,2.6-3.9-5.2,1.3-7.8c5.2-2.6-10.4,1.3-10.4,3.9s-6.5,5.2-9.1-5.2s-2.6-11.7-2.6-14.3
		s-7.8,5.2-5.2,10.4s0,1.3,0,1.3s-5.2-3.9-3.9-7.8c1.3-3.9-6.5,2.6-3.9,7.8c2.6,5.2,2.6,5.2,2.6,5.2s-5.2-3.9-13-1.3
		c-7.8,2.6-11.7,7.8-18.3,5.2c-6.5-2.6-9.1-10.4-6.5-16.9c0,0-10.4,5.2-5.2,11.7c0,0-9.1,6.5-9.1-3.9s1.3-11.7,1.3-11.7
		s-16.9,5.2-14.3,15.6c2.6,10.4-5.2,16.9-7.8,6.5c-2.6-10.4,1.3-19.6,1.3-19.6s-23.5,1.3-20.9,24.8c2.6,23.5,6.5,30,9.1,31.3
		c2.6,1.3-1.3,5.2-1.3,5.2s-9.1,16.9-9.1,22.2s-2.6,19.6,0,24.8c2.6,5.2,11.7,16.9,11.7,16.9s0.7-25.4,2-30.6
		c1.3-5.2,4.6-21.5,5.9-22.8c1.3-1.3,3.9,5.2,11.7,1.3s23.5-16.9,30-22.2c6.5-5.2,12.4-16.3,17.6-15c5.2,1.3,25.4-0.7,31.9,3.3
		c6.5,3.9-3.9,2.6-2.6,5.2c1.3,2.6,10.4,19.6,14.3,22.2c3.9,2.6-1.3,3.9,1.3,6.5c2.6,2.6,6.5,6.5,6.5,11.7c0,5.2-3.9,11.7-1.3,18.3
		c2.6,6.5,6.5,7.8,6.5,14.3c0,6.5-2.6,14.3,2.6,16.9c5.2,2.6,11.7-5.2,13-7.8c1.3-2.6,9.1-19.6,14.3-19.6c5.2,0,10.4,11.7,9.1,24.8
		c-1.3,13-11.1,28-16.3,34.6l2,8.5c0,0,5.2-11.7,9.1-14.3c3.9-2.6,5.2-11.7,6.5-13c1.3-1.3,5.2-7.8,5.2-11.7c0-3.9,0-10.4,2.6-13
		s3.9-7.8,3.9-10.4c0,0,0,3.9-2.6,5.2c-2.6,1.3-5.2,0-2.6-3.9s-5.2-3.9-2.6-6.5c2.6-2.6,1.3-3.9,1.3-5.2c0-1.3-2.6-6.5,0-6.5
		c2.6,0,2.6-3.9,2.6-5.2c0-1.3-2.6-1.3-1.3-6.5c1.3-5.2,1.3-9.1,0-11.7c-1.3-2.6,0-6.5,0-9.1c0-2.6-5.2-6.5-5.2-6.5s5.2,0,6.5,1.3
		c1.3,1.3-1.3-5.2-3.9-5.2s-1.3,0-1.3,0s2.6-2.6,5.2-2.6s-7.8-1.3-10.4,0c0,0-1.3-3.9,1.3-3.9s-7.8-1.3-9.1,0c-1.3,1.3,0-1.3,0-1.3"
		/>
	<path class="st6" d="M215.7,142.2c0,0,5.2-2.6,6.5-3.9c1.3-1.3-1.3-7.8,3.9-7.8s23.5-1.3,28.7-1.3s7.8,1.3,14.3,2.6
		c6.5,1.3,11.7,7.8,11.7,7.8s0.7,2-5.9-0.7c-6.5-2.6-7.8-2.6-13-3.9c-5.2-1.3-14.3-1.3-18.3,1.3c-3.9,2.6-5.2,7.8-7.8,7.8
		c-2.6,0-5.2-2.6-7.8-1.3C225.5,144.2,215.7,142.2,215.7,142.2z"/>
	<path class="st6" d="M236.6,153.9c0,0,0,2.6,3.9,3.9c3.9,1.3,11.7,1.3,11.7,1.3s-2.6,1.3-7.8-1.3c-5.2-2.6-5.2-3.9-2.6-3.9
		c2.6,0,11.7,2.6,15.6,1.3c3.9-1.3,9.1-2.6,7.8-3.9c-1.3-1.3-7.8,1.3-11.7,1.3s-9.1,0-10.4-1.3S236.6,153.9,236.6,153.9z"/>
	<path class="st10" d="M220.9,143.5c0,0,3.9,3.9,2.6,9.1c-1.3,5.2-6.5,16.9-6.5,19.6s-1.3,7.8,0,7.8s5.2,2.6,6.5,0
		c1.3-2.6,1.3-6.5,5.2-6.5c3.9,0,9.1,0,9.1,5.2c0,5.2-1.3,7.8-6.5,9.1c-5.2,1.3-7.8,2.6-9.1,5.2c-1.3,2.6,0,3.9,1.3,3.9
		c1.3,0,0,1.3-5.2,1.3s-9.1-2.6-10.4-5.2c-1.3-2.6-1.3-3.9-2.6-3.9c-1.3,0-2.6-2.6-2.6-3.9c0-1.3,4.6-0.7,4.6-3.3
		c0-2.6,2.6-7.8,2.6-15.6s0-11.7,0-11.7s-2.6,1.3-2.6,10.4s-1.3,14.3-2.6,15.6c-1.3,1.3-12.3,17.5-9.1,15.6c6.5-3.9,3.9-5.2,6.5-3.9
		c2.6,1.3,9.1,5.2,9.1,7.8c0,2.6,2.6,6.5,5.2,6.5c2.6,0,10.4,1.3,13-3.9s-5.2-6.5-1.3-7.8c3.9-1.3,7.8-2.6,10.4-6.5
		c2.6-3.9,5.2-5.2,7.8-3.9c2.6,1.3,6.5,6.5,9.1,6.5c2.6,0,9.1,0,11.7,5.2c2.6,5.2,2.6,6.5,2.6,6.5s-1.3-10.4-3.9-11.7
		c-2.6-1.3-9.1,0-10.4-2.6c-1.3-2.6-3.9-5.2-6.5-6.5s-7.8-1.3-9.1-2.6c-1.3-1.3-1.3-6.5-6.5-6.5c-5.2,0-6.5-1.3-3.9-5.2
		s5.2-6.5,3.9-9.1s-3.9-3.9-3.9-7.8c0-3.9,3.9-5.2,0-6.5C225.5,142.9,220.9,143.5,220.9,143.5z"/>
	<path class="st29" d="M193.3,145c-1.1,3.7,0.2,7.6,2.8,8.9c2.6,1.3,6.5,1.3,7.8,0c1.3-1.3,3.9-3.9,2.6-6.5c-1.3-2.6,0-2.6-6.5-2.6
		S193.3,145,193.3,145z"/>
	<path class="st30" d="M210.5,151.3c0,0-0.7-5.9-5.9-7.2s-11.7-2.6-15.6,1.3c-3.9,3.9-5.2,5.2-5.2,6.5s3.9,3.9,5.2,3.9
		c0,0-3.9-2.6-2.6-5.2s1.3-3.9,5.2-5.2c3.9-1.3,11.7,0,13,1.3c1.3,1.3,1.3,1.3,2.6,2.6s3.9,2.6,3.9,2.6L210.5,151.3z"/>
	<path class="st30" d="M179.2,143.5c6.5-2.6,11.7-5.2,18.3-3.9c6.5,1.3,10.4,1.3,10.4,1.3s-1.3-2.6-2.6-2.6c-1.3,0-9.1-2.6-10.4-2.6
		c-1.3,0-7.8,0-11.7,2.6S179.2,143.5,179.2,143.5z"/>
	<rect x="191" y="152.6" class="st31" width="1.3" height="1.3"/>
	<rect x="188.3" y="151.3" class="st32" width="1.3" height="1.3"/>
	<rect x="194.9" y="152.6" class="st33" width="1.3" height="1.3"/>
	<rect x="193.6" y="151.3" class="st34" width="1.3" height="1.3"/>
	<rect x="193.6" y="152.6" class="st35" width="1.3" height="1.3"/>
	<rect x="193.6" y="152.6" class="st36" width="1.3" height="1.3"/>
	<rect x="194.9" y="153.9" class="st37" width="1.3" height="1.3"/>
	<rect x="192.3" y="148.7" class="st34" width="1.3" height="1.3"/>
	<path class="st34" d="M209.2,208.7c0,0-1.3-2.6-3.9-1.3c-2.6,1.3-2.6,3.9-1.3,3.9c1.3,0,9.1,2.6,11.7,2.6c2.6,0,16.9,0,19.6-1.3
		s20.9-5.2,22.2-3.9c1.3,1.3,3.9,0,3.9-1.3s-2.6-3.9-5.2-2.6c-2.6,1.3-28,7.2-31.9,7.2c-3.9,0-10.4,0-11.7-1.3
		S209.2,208.7,209.2,208.7z"/>
	<path class="st34" d="M217,245.2c0,0,2.6,3.9,5.2,3.9c2.6,0,3.9-1.3,5.2-1.3s2.6,1.3,3.9,1.3c1.3,0,6.5,2.6,11.7-1.3
		c0,0,1.3,1.3-1.3,2.6c-2.6,1.3-11.7,3.9-15.6,2.6c-3.9-1.3-6.5-1.3-7.8-3.9S217,245.2,217,245.2L217,245.2z"/>
	<path class="st34" d="M215.7,220.4c0,0,2.6,3.9,7.8,3.9c5.2,0,20.9,0,23.5-2.6c2.6-2.6,6.5-5.2,5.2-6.5c0,0-5.2,5.2-16.9,6.5
		C228.8,222.5,215.7,220.4,215.7,220.4z"/>
	<path class="st34" d="M235.9,146.8c0,0,1.3,2.6,2.6,1.3s5.2-9.1,9.1-9.1c3.9,0,11.7,0,18.3,2.6c6.5,2.6,7.8,2.6,7.8,2.6
		s-7.8-6.5-14.3-7.8c-6.5-1.3-11.1-2.6-14-0.7s-5.5,4.6-6.8,5.9s0,2.6-2.6,2.6c-2.6,0-3.2-0.9-3.2-0.9L235.9,146.8z"/>
	<path class="st10" d="M308.3,198.3c0,0,1.3,2.6-1.3,9.1s-15.6,18.3-18.3,20.9c-2.6,2.6-15.6,11.7-20.9,14.3s-24.8,10.4-30,10.4
		c-5.2,0-19.6-2.6-11.7,0c7.8,2.6,6.5,2.6,6.5,2.6s3.9-2.6,6.5,1.3c2.6,3.9,14.3,23.5,15.6,24.8c1.3,1.3,16.9,24.8,16.9,24.8
		s-2.6-18.3,1.3-24.8s9.1-11.7,9.1-11.7l19.6-26.1c0,0-7.8,5.2-2.6-9.1c5.2-14.3,10.4-19.6,10.4-23.5
		C309.6,207.4,308.3,198.3,308.3,198.3z"/>
	<rect x="256.1" y="139.6" class="st38" width="1.3" height="1.3"/>
	<rect x="256.1" y="140.9" class="st38" width="1.3" height="1.3"/>
	<rect x="257.4" y="139.6" class="st38" width="1.3" height="1.3"/>
	<rect x="257.4" y="140.9" class="st38" width="1.3" height="1.3"/>
	<rect x="258.8" y="139.6" class="st38" width="1.3" height="1.3"/>
	<rect x="256.1" y="142.2" class="st38" width="1.3" height="1.3"/>
	<rect x="254.8" y="142.2" class="st38" width="1.3" height="1.3"/>
	<rect x="253.5" y="142.2" class="st38" width="1.3" height="1.3"/>
	<rect x="252.2" y="142.2" class="st38" width="1.3" height="1.3"/>
	<rect x="252.2" y="140.9" class="st38" width="1.3" height="1.3"/>
	<rect x="253.5" y="140.9" class="st38" width="1.3" height="1.3"/>
	<rect x="254.8" y="140.9" class="st38" width="1.3" height="1.3"/>
	<rect x="254.8" y="139.6" class="st38" width="1.3" height="1.3"/>
	<rect x="252.2" y="143.5" class="st38" width="1.3" height="1.3"/>
	<rect x="250.9" y="142.2" class="st38" width="1.3" height="1.3"/>
	<rect x="250.9" y="140.9" class="st38" width="1.3" height="1.3"/>
	<rect x="250.9" y="142.2" class="st38" width="1.3" height="1.3"/>
	<rect x="250.9" y="143.5" class="st38" width="1.3" height="1.3"/>
	<rect x="252.2" y="139.6" class="st39" width="1.3" height="1.3"/>
	<rect x="253.5" y="139.6" class="st40" width="1.3" height="1.3"/>
	<rect x="249.6" y="139.6" class="st40" width="1.3" height="1.3"/>
	<rect x="248.3" y="139.6" class="st41" width="1.3" height="1.3"/>
	<rect x="248.3" y="140.9" class="st41" width="1.3" height="1.3"/>
	<rect x="248.3" y="142.2" class="st42" width="1.3" height="1.3"/>
	<rect x="247" y="142.2" class="st42" width="1.3" height="1.3"/>
	<rect x="247" y="140.9" class="st42" width="1.3" height="1.3"/>
	<rect x="247" y="139.6" class="st42" width="1.3" height="1.3"/>
	<rect x="245.7" y="140.9" class="st42" width="1.3" height="1.3"/>
	<rect x="249.6" y="142.2" class="st42" width="1.3" height="1.3"/>
	<rect x="248.3" y="143.5" class="st42" width="1.3" height="1.3"/>
</g>
</svg>
