<?xml version="1.0" encoding="utf-8"?>
<!-- Generator: Adobe Illustrator 21.1.0, SVG Export Plug-In . SVG Version: 6.00 Build 0)  -->
<svg version="1.1" id="Layer_1" xmlns="http://www.w3.org/2000/svg" xmlns:xlink="http://www.w3.org/1999/xlink" x="0px" y="0px"
	 viewBox="0 0 1341 895" style="enable-background:new 0 0 1341 895;" xml:space="preserve">
<style type="text/css">
	.st0{fill:none;stroke:#B6D0EB;stroke-miterlimit:10;}
	.st1{opacity:0.57;}
	.st2{opacity:0.57;fill:#0025FF;}
	.st3{opacity:0.57;fill:#FFFFFF;stroke:#282526;stroke-miterlimit:10;}
	.st4{opacity:0.57;fill:#F9FF00;}
	.st5{opacity:0.57;fill:#20FF00;}
	.st6{opacity:0.9;fill:#FFFFFF;stroke:#282526;stroke-miterlimit:10;}
	.st7{fill:#F9FF00;}
	.st8{fill:#20FF00;}
	.st9{display:none;}
	.st10{fill:#EF2975;}
	.st11{fill:url(#SVGID_1_);}
	.st12{fill:#999898;}
	.st13{fill:#343434;}
	.st14{fill:#EFB0F4;}
	.st15{fill:url(#SVGID_2_);}
	.st16{fill:#ED1C24;}
	.st17{fill:url(#SVGID_3_);}
	.st18{fill:#102D11;}
</style>
<g id="grid">
	<line class="st0" x1="153" y1="95.9" x2="153" y2="766.1"/>
	<line class="st0" x1="249" y1="95.9" x2="249" y2="766.1"/>
	<line class="st0" x1="345" y1="96.9" x2="345" y2="767.1"/>
	<line class="st0" x1="441" y1="96.9" x2="441" y2="767.1"/>
	<line class="st0" x1="552" y1="95" x2="552" y2="765.2"/>
	<line class="st0" x1="648" y1="95" x2="648" y2="765.2"/>
	<line class="st0" x1="744" y1="95.9" x2="744" y2="766.1"/>
	<line class="st0" x1="840" y1="95.9" x2="840" y2="766.1"/>
	<line class="st0" x1="954" y1="96.9" x2="954" y2="767.1"/>
	<line class="st0" x1="1050" y1="96.9" x2="1050" y2="767.1"/>
	<line class="st0" x1="1146" y1="97.8" x2="1146" y2="768"/>
	<line class="st0" x1="1242" y1="97.8" x2="1242" y2="768"/>
	<g>
		<line class="st0" x1="56" y1="694.4" x2="1332.4" y2="694.4"/>
		<line class="st0" x1="56" y1="603.4" x2="1332.4" y2="603.4"/>
		<line class="st0" x1="57.8" y1="495.4" x2="1334.2" y2="495.4"/>
		<line class="st0" x1="57.8" y1="404.5" x2="1334.2" y2="404.5"/>
		<line class="st0" x1="59.6" y1="313.6" x2="1336" y2="313.6"/>
		<line class="st0" x1="59.6" y1="222.6" x2="1336" y2="222.6"/>
	</g>
</g>
<rect x="435" y="80" class="st1" width="145" height="145"/>
<rect x="1077" y="80" class="st2" width="145" height="145"/>
<rect x="598" y="80" class="st3" width="145" height="145"/>
<rect x="758" y="80" class="st4" width="145" height="145"/>
<rect x="918" y="80" class="st5" width="145" height="145"/>
<rect x="117" y="237" class="st1" width="145" height="145"/>
<rect x="759" y="237" class="st2" width="145" height="145"/>
<rect x="1158.5" y="713.5" class="st6" width="145" height="145"/>
<rect x="1082" y="239" class="st7" width="145" height="145"/>
<rect x="600" y="237" class="st5" width="145" height="145"/>
<rect x="271" y="65" width="145" height="145"/>
<rect x="921" y="397" class="st2" width="145" height="145"/>
<rect x="442" y="397" class="st6" width="145" height="145"/>
<rect x="274" y="727" class="st7" width="145" height="145"/>
<rect x="74" y="399" class="st8" width="145" height="145"/>
<rect x="120" y="554" class="st1" width="145" height="145"/>
<rect x="762" y="554" class="st2" width="145" height="145"/>
<rect x="283" y="554" class="st6" width="145" height="145"/>
<rect x="291" y="298" class="st7" width="145" height="145"/>
<rect x="603" y="554" class="st5" width="145" height="145"/>
<rect x="628" y="400" width="145" height="145"/>
<rect x="922" y="714" class="st2" width="145" height="145"/>
<rect x="443" y="714" class="st6" width="145" height="145"/>
<rect x="603" y="714" class="st4" width="145" height="145"/>
<rect x="763" y="714" class="st5" width="145" height="145"/>
<g id="EPSON020.TIF_1_" class="st9">
	
		<image style="display:inline;overflow:visible;" width="3300" height="2550" id="EPSON020" xlink:href="6DEB8ACC.jpg"  transform="matrix(0.24 0 0 0.24 362 169)">
	</image>
</g>
<path class="st10" d="M358.3,421.5c-4.5-4.7-10.4-7.8-16.8-8.9c-35.8-6.5-96.7-0.1-126.5,41.5c-33,46-70,141-56,153s278-64,286-77
	C451.8,519,380.3,444.1,358.3,421.5z"/>
<linearGradient id="SVGID_1_" gradientUnits="userSpaceOnUse" x1="311.9629" y1="398.255" x2="415.0371" y2="338.745">
	<stop  offset="4.304888e-02" style="stop-color:#FFFFFF"/>
	<stop  offset="0.129" style="stop-color:#F2F2F2"/>
	<stop  offset="0.2886" style="stop-color:#CFCFCF"/>
	<stop  offset="0.5042" style="stop-color:#979797"/>
	<stop  offset="0.7645" style="stop-color:#4B4B4B"/>
	<stop  offset="1" style="stop-color:#000000"/>
</linearGradient>
<circle class="st11" cx="363.5" cy="368.5" r="59.5"/>
<polygon class="st12" points="390.5,659.8 275,639.2 427.6,591 554.2,592.6 "/>
<polygon class="st13" points="403.5,638 288,617.4 440.6,569.2 567.2,570.8 "/>
<path d="M557.2,419.3l-151.6,38.3c-4,1-6.7,4.6-6.6,8.7l4.2,159.1c0.2,6.1,6.4,10.2,12,7.9L564,573.8c3.4-1.3,5.5-4.6,5.5-8.2
	l-1.4-137.9C568,422,562.7,417.9,557.2,419.3z"/>
<path class="st14" d="M189,561c0,0-21,10-18,28s21,20,31,17s32-37,65-31c16.5,3,51,19,56,24s32,11,22.5-8S294,540,239,546
	C205.5,549.7,189,561,189,561z"/>
<path d="M957,331.4c-2.6,9.6,1.9,38.7,30.8,39.6s42.4-38.7,56.2-35.6c13.8,3.2,19.4,24.8,29.6,25.7s11.2-53.1-44.8-53.1
	C972.8,308,960.7,317.9,957,331.4z"/>
<path class="st13" d="M955,385c71.1-47.4,154.8-21.2,152.4-25.9c-2.4-4.7-54.3-21.2-101.5-8.3c-36.7,10.1-53.5-1.2-59.1-6.8
	c-1.6-1.6-2.1-3.9-1.4-6c2.5-7.5,11.9-25.1,45.1-29.7c42.5-5.9,36.6-13-10.6-5.9c-47.2,7.1-115.6,50.7-122.7,114.5
	c-3.3,29.9-1.7,48.4,0.9,59.6c1.4,5.9,9.9,6,11.4,0.1l3.5-13.7c1.5-6,10.2-5.8,11.4,0.3C890.8,494.9,818.6,594,829,590
	C844.3,584.1,940.8,398,955,385"/>
<linearGradient id="SVGID_2_" gradientUnits="userSpaceOnUse" x1="965.0781" y1="341.5019" x2="1004.9219" y2="318.4981">
	<stop  offset="4.304888e-02" style="stop-color:#FFFFFF"/>
	<stop  offset="0.129" style="stop-color:#F2F2F2"/>
	<stop  offset="0.2886" style="stop-color:#CFCFCF"/>
	<stop  offset="0.5042" style="stop-color:#979797"/>
	<stop  offset="0.7645" style="stop-color:#4B4B4B"/>
	<stop  offset="1" style="stop-color:#000000"/>
</linearGradient>
<circle class="st15" cx="985" cy="330" r="23"/>
<path class="st16" d="M1017.7,612.1c2.1-4.8-9.9-4.3-9.8-12.2c0.2-7.9,0.2-37.7-0.9-40.7c-0.6-1.6-1.9-3.7-3-5.3
	c-0.8-1.2-0.6-3.1,0.3-4c1.3-1.2,2.8-3,3-5.1c0.3-3.9-1.4-43.7,3-46.7s7.9-1.7,7.6-6s-6.1-5.1-10.6,1.1c-4.5,6.2-4,41.7-5.7,49
	s-8.7,2.8-8.9,8.8s6.4,1.9,7.5,8.3c1.1,6.4-0.5,38.3,3.3,44.3S1015.3,617.7,1017.7,612.1z"/>
<path class="st16" d="M595.2,125.3c-3.9,6.3,18.2,5.7,17.9,16.2c-0.3,10.5-0.3,50.1,1.7,54c1.1,2.1,3.5,4.9,5.6,7
	c1.5,1.6,1.2,4.1-0.6,5.3c-2.4,1.6-5.2,3.9-5.5,6.7c-0.6,5.1,2.6,58-5.4,62c-8,4-14.5,2.3-13.9,8s11.1,6.8,19.3-1.4
	c8.2-8.2,7.4-55.5,10.5-65.1c3.1-9.7,15.9-3.7,16.2-11.7c0.3-8-11.7-2.6-13.7-11.1s0.9-50.9-6-58.9
	C614.5,128.5,599.8,117.9,595.2,125.3z"/>
<path class="st16" d="M1030.3,3.2l-164,164c-2.3,2.3-6.2,2.3-8.5,0l0,0c-2.3-2.3-2.3-6.2,0-8.5l164-164c2.3-2.3,6.2-2.3,8.5,0l0,0
	C1032.6-2.9,1032.6,0.9,1030.3,3.2z"/>
<path class="st16" d="M744.6,685.1L625.1,565.6c-0.9-0.9-0.9-2.3,0-3.2l0,0c0.9-0.9,2.3-0.9,3.2,0l119.5,119.5
	c0.9,0.9,0.9,2.3,0,3.2l0,0C747,686,745.5,686,744.6,685.1z"/>
<circle class="st16" cx="1094" cy="187" r="16"/>
<circle class="st16" cx="110.5" cy="413.5" r="11.5"/>
<circle class="st16" cx="880" cy="642" r="16"/>
<g>
	<path class="st16" d="M1226.6,659.2l-63.6-52.3c-1-0.8-2.4-0.7-3.2,0.3l0,0c-0.8,1-0.7,2.4,0.3,3.2l63.6,52.3
		c1,0.8,2.4,0.7,3.2-0.3l0,0C1227.7,661.5,1227.6,660,1226.6,659.2z"/>
	<path class="st16" d="M1224.3,659.5l-73.1,38c-1.1,0.6-1.6,2-1,3.1l0,0c0.6,1.1,2,1.6,3.1,1l73.1-38c1.1-0.6,1.6-2,1-3.1v0
		C1226.8,659.3,1225.4,658.9,1224.3,659.5z"/>
</g>
<g>
	<path class="st16" d="M75.3,90.5l60.1,56.3c0.9,0.9,2.4,0.8,3.2-0.1h0c0.9-0.9,0.8-2.4-0.1-3.2L78.4,87.1c-0.9-0.9-2.4-0.8-3.2,0.1
		l0,0C74.3,88.1,74.4,89.6,75.3,90.5z"/>
	<path class="st16" d="M77.7,90.4l75.4-33.2c1.2-0.5,1.7-1.9,1.2-3v0c-0.5-1.2-1.9-1.7-3-1.2L75.8,86.2c-1.2,0.5-1.7,1.9-1.2,3v0
		C75.1,90.3,76.5,90.9,77.7,90.4z"/>
</g>
<linearGradient id="SVGID_3_" gradientUnits="userSpaceOnUse" x1="883.1434" y1="739.3822" x2="908" y2="739.3822">
	<stop  offset="4.304897e-02" style="stop-color:#DAF2F1"/>
	<stop  offset="0.4366" style="stop-color:#D8F0EF"/>
	<stop  offset="0.5784" style="stop-color:#D3E9E8"/>
	<stop  offset="0.6795" style="stop-color:#C9DEDD"/>
	<stop  offset="0.7612" style="stop-color:#BACDCC"/>
	<stop  offset="0.8312" style="stop-color:#A8B7B6"/>
	<stop  offset="0.8931" style="stop-color:#919B9B"/>
	<stop  offset="0.9478" style="stop-color:#767C7C"/>
	<stop  offset="0.9977" style="stop-color:#585858"/>
	<stop  offset="1" style="stop-color:#565656"/>
</linearGradient>
<path class="st17" d="M898.8,715.4c-3.8-1-15.3,0.7-15.6,12.1c-0.4,11.4,15.3,16.7,14,22.2c-1.2,5.4-9.8,7.6-10.1,11.7
	c-0.4,4,20.9,4.4,20.9-17.7C908,721.7,904.1,716.9,898.8,715.4z"/>
<circle class="st10" cx="1118" cy="456" r="22"/>
<circle class="st18" cx="1178" cy="457" r="23"/>
<circle class="st14" cx="1274" cy="376" r="20"/>
<path class="st13" d="M234,434"/>
</svg>
