<?xml version="1.0" encoding="utf-8"?>
<!-- Generator: Adobe Illustrator 21.1.0, SVG Export Plug-In . SVG Version: 6.00 Build 0)  -->
<svg version="1.1" id="Layer_1" xmlns="http://www.w3.org/2000/svg" xmlns:xlink="http://www.w3.org/1999/xlink" x="0px" y="0px"
	 viewBox="0 0 1341 895" style="enable-background:new 0 0 1341 895;" xml:space="preserve">
<style type="text/css">
	.st0{fill:none;stroke:#B6D0EB;stroke-miterlimit:10;}
	.st1{fill:#0025FF;}
	.st2{fill:#1636BF;}
	.st3{fill:#343434;}
	.st4{fill:#999898;}
	.st5{fill:none;stroke:#000000;stroke-miterlimit:10;}
	.st6{fill:#514C4C;}
	.st7{fill:none;}
	.st8{display:none;}
	.st9{fill:#ED1C24;}
	.st10{opacity:0.9;fill:#FFFFFF;stroke:#282526;stroke-miterlimit:10;}
	.st11{fill:#F9FF00;}
	.st12{fill:#20FF00;}
	.st13{opacity:7.000000e-02;fill:url(#SVGID_1_);}
	.st14{fill:url(#SVGID_2_);}
	.st15{fill:url(#SVGID_3_);}
	.st16{fill:url(#SVGID_4_);}
	.st17{fill:url(#SVGID_5_);}
	.st18{fill:#404D56;}
	.st19{fill:#15161A;}
	.st20{fill:url(#SVGID_6_);}
	.st21{fill:#EF2975;}
	.st22{fill:#102D11;}
	.st23{fill:#EFB0F4;}
	.st24{fill:#2E302F;}
	.st25{fill:#40484B;}
	.st26{fill:#B2B6C1;}
	.st27{fill:#6E5B3A;}
	.st28{fill:#B8A56A;}
	.st29{fill:#95A5BE;}
	.st30{fill:#444348;}
	.st31{fill:#3A3539;}
	.st32{fill:#3B4044;}
	.st33{fill:#8C9697;}
	.st34{fill:#A44E4D;}
	.st35{fill:#929397;}
	.st36{fill:#B6BCBA;}
	.st37{fill:#2B2E33;}
	.st38{fill:#333237;}
	.st39{fill:#75767B;}
	.st40{fill:#D3D066;}
	.st41{fill:#715D2A;}
	.st42{fill:#27262B;}
	.st43{fill:#1F2024;}
	.st44{fill:#572D31;}
	.st45{fill:#8A8B8F;}
	.st46{fill:#6F6F6F;}
	.st47{fill:#984241;}
	.st48{fill:#8092A6;}
	.st49{fill:#4F393B;}
	.st50{fill:#7D2521;}
	.st51{fill:#363739;}
	.st52{fill:#8F4542;}
	.st53{fill:#6B767A;}
	.st54{fill:#222126;}
	.st55{fill:#17301E;}
	.st56{fill:#541E3D;}
	.st57{fill:#323C54;}
	.st58{fill:#4F5B7F;}
	.st59{fill:#657522;}
	.st60{fill:#3E3F29;}
	.st61{fill:#BA36B7;}
	.st62{fill:#2A2A2A;}
	.st63{fill:#D893C8;}
	.st64{fill:#351429;}
</style>
<g id="grid_1_">
	<line class="st0" x1="144" y1="99.9" x2="144" y2="770.1"/>
	<line class="st0" x1="240" y1="99.9" x2="240" y2="770.1"/>
	<line class="st0" x1="336" y1="100.9" x2="336" y2="771.1"/>
	<line class="st0" x1="432" y1="100.9" x2="432" y2="771.1"/>
	<line class="st0" x1="543" y1="99" x2="543" y2="769.2"/>
	<line class="st0" x1="639" y1="99" x2="639" y2="769.2"/>
	<line class="st0" x1="735" y1="99.9" x2="735" y2="770.1"/>
	<line class="st0" x1="831" y1="99.9" x2="831" y2="770.1"/>
	<line class="st0" x1="945" y1="100.9" x2="945" y2="771.1"/>
	<line class="st0" x1="1041" y1="100.9" x2="1041" y2="771.1"/>
	<line class="st0" x1="1137" y1="101.8" x2="1137" y2="772"/>
	<line class="st0" x1="1233" y1="101.8" x2="1233" y2="772"/>
	<g>
		<line class="st0" x1="47" y1="698.4" x2="1323.4" y2="698.4"/>
		<line class="st0" x1="47" y1="607.4" x2="1323.4" y2="607.4"/>
		<line class="st0" x1="48.8" y1="499.4" x2="1325.2" y2="499.4"/>
		<line class="st0" x1="48.8" y1="408.5" x2="1325.2" y2="408.5"/>
		<line class="st0" x1="50.6" y1="317.6" x2="1327" y2="317.6"/>
		<line class="st0" x1="50.6" y1="226.6" x2="1327" y2="226.6"/>
	</g>
</g>
<rect x="737" y="14" class="st1" width="374" height="876"/>
<polygon class="st2" points="1111,890 951,804 737,890 "/>
<g id="lady_1_">
	<path d="M924.6,531.5c0,0-2.5-5.9,0-4c2.5,1.9,6.8,9.1,6.8,9.1s-14.2,75.1-11.9,78.1c2.3,3,5.5,2.8,5.5,2.8l-2-5.5
		c0,0,10.3-12.1,20.3-10c10,2.1,35.9,8.5,36.4,10s0.1,6.4-2,8.1c0,0,4-1.9,4.9-5.9c0.8-4-1.9-10,0-17.2c1.9-7.2,2.3-32.9,2.3-32.9
		s5.5-3.2,5.5-7.6c0-4.5-3-6.2-2.1-12.3c0.8-6.2,4.7-22.3,4.7-22.3s5.1-6.8,0.6-9.8c-4.5-3-12.1-7.8-16.1-4.7
		c-4,3.2-15.7,17.8-25,13.8c-9.3-4-10.8-5.3-10.8-5.3s-8.3,6.8-11.5,7.6c-3.2,0.8-7.6,3.8-7.6,3.8L924.6,531.5z"/>
	<path class="st3" d="M986.4,813.6c-1,4.1-3.2,23.2,4.5,32.1c7.6,8.9,17.8,17.8,21.3,17.8c3.5,0,5.4,5.1,2.2,5.1s-25.8,1.6-25.8,1.6
		s-2.9-18.8-7.3-16.9s0.3,16.5,0.3,16.5l-6.7,0.6c0,0,4.1-71.6,2.9-76.1c-1.3-4.5-8.9-9.2-7.3-20.7c1.6-11.5,10.5-20.4,8-25.1
		s-10.8-26.4-11.5-29.6c-0.6-3.2-8-51.5-8-51.5l-7-2.2l10.8,142.9l9.2,8.6l-19.7,0.6c0,0-8-139.7-9.9-143.5
		c-1.9-3.8-16.9-14.3-18.5-28.3s7.3-14.3,4.8-20.4c-2.5-6-5.7-13.4-5.7-13.4s7.6-12.7,23.2-9.5s33.4,9.5,33.4,9.5l-2.2,10.5l19.7,34
		l5.4,89.7L986.4,813.6z"/>
	<path class="st4" d="M926.9,530.6c0,0-7.2,4.9-7.2,7s5.9,32.1,5.9,32.1l2.5-16.1c0,0-3.2-9.5-1.9-9.7c1.3-0.2,4.3-1.3,4.3-1.3
		l0.9-6.1L926.9,530.6z"/>
	<path class="st5" d="M974.4,526.8c0,0-1.6-6.5,1.3-5.7c2.9,0.8,11.5,11,9.7,11.8c-1.8,0.8-3.5,1.4-3.5,1.4s2.2,2.9,4.1,2.2
		s6.9-14.7,6.9-14.7s5.5-6.9,0.6-9.8s-7.8-4.6-9.8-1.6c-1.9,3-11,11.3-11,11.3L974.4,526.8z"/>
	<path class="st4" d="M977.7,523c0,0,8.5,5.3,6.4,8.5c-2.1,3.2-11.2,14.4-11.2,16.8c0,2.3,10.2,33.3,8.9,36.7s-4.5,13.2-4.5,15.9
		c0,2.8-0.4,9.1-1.3,9.3c-0.8,0.2-3-0.2-2.8-1.1c0.2-0.9,0.9-7-0.2-7s-5.3,8.4-6.8,7.8s1-4.5,1-4.5s-4.1,5.4-4.6,3
		c-0.6-2.4,3.7-6.6,3.7-6.6s-4.9,5-5.1,3.4c-0.2-1.6,14.2-17.3,14.1-19.6s-10.6-41.8-9.8-44.4C966.3,538.6,977.7,523,977.7,523z"/>
	<path class="st6" d="M991.6,466c-1.3-2.2-8.4-9.5-16.4-7.6c-8,1.9-12.1,8.8-13,15.6c-1,6.8-6.4,8-6.7,11.5s1.3,9.4-1.1,10.3
		c-2.4,1-28.3,15.2-4.5,26.2c14.3,6.6,24-12.5,28.3-13.2c13.6-2.1,15,3.9,16.9,2.8c1.9-1.1-3.9-11.8-2.3-16.3s7.2-17.2,4.5-21.8
		S991.6,466,991.6,466z"/>
	<path d="M993.4,481.7l-3,9.9c0,0-5.4-1.4-3.5-6.2C988.8,480.6,993.4,481.7,993.4,481.7z"/>
	<polygon points="992.3,496.4 997.4,497.9 995.8,486.2 	"/>
	<polyline class="st5" points="932.9,633 947.1,658.5 958.2,658.3 959,667.6 	"/>
	<line class="st7" x1="947.6" y1="664.1" x2="952" y2="665.3"/>
</g>
<path class="st3" d="M2281,454c71.1-47.4,154.8-21.2,152.4-25.9s-54.3-21.2-101.5-8.3c-36.7,10.1-53.5-1.2-59.1-6.8
	c-1.6-1.6-2.1-3.9-1.4-6c2.5-7.5,11.9-25.1,45.1-29.7c42.5-5.9,36.6-13-10.6-5.9c-47.2,7.1-115.6,50.7-122.7,114.5
	c-3.3,29.9-1.7,48.4,0.9,59.6c1.4,5.9,9.9,6,11.4,0.1l3.5-13.7c1.5-6,10.2-5.8,11.4,0.3c6.3,31.7-65.9,130.9-55.5,126.8
	C2170.3,653.1,2266.8,467,2281,454"/>
<g id="lady">
	<path d="M2004.5,228.7c0,0-2-4.7,0-3.2s5.3,7.2,5.3,7.2s-11.2,59-9.3,61.3c1.8,2.3,4.3,2.2,4.3,2.2l-1.6-4.3c0,0,8.1-9.5,15.9-7.8
		c7.8,1.7,28.2,6.7,28.6,7.8c0.4,1.2,0.1,5-1.6,6.3c0,0,3.2-1.5,3.8-4.7c0.7-3.2-1.5-7.8,0-13.5c1.5-5.7,1.8-25.8,1.8-25.8
		s4.3-2.5,4.3-6s-2.3-4.8-1.7-9.7c0.7-4.8,3.7-17.5,3.7-17.5s4-5.3,0.5-7.7s-9.5-6.2-12.7-3.7c-3.2,2.5-12.3,14-19.7,10.8
		c-7.3-3.2-8.5-4.2-8.5-4.2s-6.5,5.3-9,6s-6,3-6,3L2004.5,228.7z"/>
	<path class="st3" d="M2053,450.4c-0.8,3.3-2.5,18.3,3.5,25.3s14,14,16.8,14s4.3,4,1.8,4s-20.3,1.3-20.3,1.3s-2.3-14.8-5.8-13.3
		s0.3,13,0.3,13l-5.3,0.5c0,0,3.3-56.3,2.3-59.8s-7-7.3-5.8-16.3s8.3-16,6.3-19.8s-8.5-20.8-9-23.3s-6.3-40.5-6.3-40.5l-5.5-1.8
		l8.5,112.3l7.3,6.8l-15.5,0.5c0,0-6.3-109.8-7.8-112.8s-13.3-11.3-14.5-22.3s5.8-11.3,3.8-16s-4.5-10.5-4.5-10.5s6-10,18.3-7.5
		s26.3,7.5,26.3,7.5l-1.8,8.3l15.5,26.8l4.3,70.5L2053,450.4z"/>
	<path class="st4" d="M2006.3,228c0,0-5.6,3.9-5.6,5.5s4.6,25.3,4.6,25.3l2-12.6c0,0-2.5-7.5-1.5-7.6s3.4-1,3.4-1l0.7-4.8
		L2006.3,228z"/>
	<path class="st5" d="M2043.6,225c0,0-1.3-5.1,1-4.5s9,8.6,7.6,9.3s-2.8,1.1-2.8,1.1s1.8,2.3,3.3,1.8s5.4-11.6,5.4-11.6
		s4.3-5.4,0.5-7.7c-3.8-2.3-6.2-3.6-7.7-1.3s-8.6,8.9-8.6,8.9L2043.6,225z"/>
	<path class="st4" d="M2046.2,222c0,0,6.7,4.2,5,6.7c-1.7,2.5-8.8,11.3-8.8,13.2s8,26.2,7,28.8c-1,2.7-3.5,10.3-3.5,12.5
		c0,2.2-0.3,7.2-1,7.3c-0.7,0.2-2.3-0.2-2.2-0.9s0.7-5.5-0.2-5.5s-4.2,6.6-5.3,6.1s0.8-3.6,0.8-3.6s-3.2,4.3-3.6,2.4
		s2.9-5.2,2.9-5.2s-3.9,3.9-4,2.7s11.2-13.6,11.1-15.4s-8.3-32.8-7.7-34.9C2037.2,234.3,2046.2,222,2046.2,222z"/>
	<path class="st6" d="M2057.1,177.3c-1-1.8-6.6-7.5-12.9-6s-9.5,6.9-10.3,12.3s-5,6.3-5.3,9s1,7.4-0.9,8.1s-22.2,11.9-3.5,20.6
		c11.2,5.2,18.9-9.8,22.2-10.3c10.7-1.7,11.8,3,13.3,2.2s-3.1-9.3-1.8-12.8s5.6-13.5,3.5-17.1S2057.1,177.3,2057.1,177.3z"/>
	<path d="M2058.5,189.6l-2.4,7.8c0,0-4.3-1.1-2.8-4.9S2058.5,189.6,2058.5,189.6z"/>
	<polygon points="2057.7,201.2 2061.7,202.3 2060.4,193.2 	"/>
	<polyline class="st5" points="2011,308.5 2022.1,328.5 2030.9,328.4 2031.5,335.6 	"/>
	<line class="st7" x1="2022.5" y1="332.9" x2="2026" y2="333.9"/>
</g>
<g id="grid">
	<line class="st0" x1="1479" y1="164.9" x2="1479" y2="835.1"/>
	<line class="st0" x1="1575" y1="164.9" x2="1575" y2="835.1"/>
	<line class="st0" x1="1671" y1="165.9" x2="1671" y2="836.1"/>
	<line class="st0" x1="1767" y1="165.9" x2="1767" y2="836.1"/>
	<line class="st0" x1="1878" y1="164" x2="1878" y2="834.2"/>
	<line class="st0" x1="1974" y1="164" x2="1974" y2="834.2"/>
	<line class="st0" x1="2070" y1="164.9" x2="2070" y2="835.1"/>
	<line class="st0" x1="2166" y1="164.9" x2="2166" y2="835.1"/>
	<line class="st0" x1="2280" y1="165.9" x2="2280" y2="836.1"/>
	<line class="st0" x1="2376" y1="165.9" x2="2376" y2="836.1"/>
	<line class="st0" x1="2472" y1="166.8" x2="2472" y2="837"/>
	<line class="st0" x1="2568" y1="166.8" x2="2568" y2="837"/>
	<g>
		<line class="st0" x1="1382" y1="763.4" x2="2658.4" y2="763.4"/>
		<line class="st0" x1="1382" y1="672.4" x2="2658.4" y2="672.4"/>
		<line class="st0" x1="1383.8" y1="564.4" x2="2660.2" y2="564.4"/>
		<line class="st0" x1="1383.8" y1="473.5" x2="2660.2" y2="473.5"/>
		<line class="st0" x1="1385.6" y1="382.6" x2="2662" y2="382.6"/>
		<line class="st0" x1="1385.6" y1="291.6" x2="2662" y2="291.6"/>
	</g>
</g>
<g id="EPSON020.TIF_1_" class="st8">
	
		<image style="display:inline;overflow:visible;" width="3300" height="2550" id="EPSON020" xlink:href="B8503082.jpg"  transform="matrix(0.24 0 0 0.24 362 169)">
	</image>
</g>
<path d="M1593.5,457.5c0,0,36-31,68-18s24,30,44,26s32-16,32-28s-9.3-16-5.2-35.5c4.2-19.5,9.2-31.5-2.8-45.5s-43.2-21.8-43.2-21.8
	l-40.8-3.2l-45,46L1593.5,457.5z"/>
<rect x="1761" y="149" width="145" height="145"/>
<rect x="2403" y="149" class="st1" width="145" height="145"/>
<path class="st9" d="M643.5,483.5l-164,164c-2.3,2.3-6.2,2.3-8.5,0L77.7,254.3c-2.3-2.3-2.3-6.2,0-8.5l164-164
	c2.3-2.3,6.2-2.3,8.5,0L643.5,475C645.9,477.3,645.9,481.1,643.5,483.5z"/>
<rect x="1924" y="149" class="st10" width="145" height="145"/>
<rect x="2084" y="149" class="st11" width="145" height="145"/>
<rect x="292.1" y="134.3" class="st11" width="125.5" height="125.5"/>
<rect x="2244" y="149" class="st12" width="145" height="145"/>
<linearGradient id="SVGID_1_" gradientUnits="userSpaceOnUse" x1="-678.7659" y1="1492.1099" x2="-271.7659" y2="1492.1099" gradientTransform="matrix(-0.6159 -0.7878 0.7878 -0.6159 207.3129 992.0756)">
	<stop  offset="4.304897e-02" style="stop-color:#DAF2F1"/>
	<stop  offset="0.4366" style="stop-color:#D8F0EF"/>
	<stop  offset="0.5784" style="stop-color:#D3E9E8"/>
	<stop  offset="0.6795" style="stop-color:#C9DEDD"/>
	<stop  offset="0.7612" style="stop-color:#BACDCC"/>
	<stop  offset="0.8312" style="stop-color:#A8B7B6"/>
	<stop  offset="0.8931" style="stop-color:#919B9B"/>
	<stop  offset="0.9478" style="stop-color:#767C7C"/>
	<stop  offset="0.9977" style="stop-color:#585858"/>
	<stop  offset="1" style="stop-color:#565656"/>
</linearGradient>
<circle class="st13" cx="1675.6" cy="447.5" r="203.5"/>
<linearGradient id="SVGID_2_" gradientUnits="userSpaceOnUse" x1="1620.9629" y1="423.255" x2="1724.0371" y2="363.745">
	<stop  offset="4.304888e-02" style="stop-color:#FFFFFF"/>
	<stop  offset="0.129" style="stop-color:#F2F2F2"/>
	<stop  offset="0.2886" style="stop-color:#CFCFCF"/>
	<stop  offset="0.5042" style="stop-color:#979797"/>
	<stop  offset="0.7645" style="stop-color:#4B4B4B"/>
	<stop  offset="1" style="stop-color:#000000"/>
</linearGradient>
<circle class="st14" cx="1672.5" cy="393.5" r="59.5"/>
<path d="M1537,454c13,19,67,15,76-11s-9-57.3,10-79.7c19-22.3,32.3-30,44.7-28.7C1680,336,1688,364,1712,352s5-41-9-43s-49-8-79,9
	s-18.5,53.1-58,69C1504,412,1537,454,1537,454z"/>
<path d="M1684.3,490.5c-4.5-4.7-10.4-7.8-16.8-8.9c-35.8-6.5-96.7-0.1-126.5,41.5c-33,46-70,141-56,153s278-64,286-77
	C1777.8,588,1706.3,513.1,1684.3,490.5z"/>
<polygon class="st4" points="1716.5,728.8 1601,708.2 1753.6,660 1880.2,661.6 "/>
<polygon class="st3" points="1729.5,707 1614,686.4 1766.6,638.2 1893.2,639.8 "/>
<path d="M1883.2,488.3l-151.6,38.3c-4,1-6.7,4.6-6.6,8.7l4.2,159.1c0.2,6.1,6.4,10.2,12,7.9l148.8-59.5c3.4-1.3,5.5-4.6,5.5-8.2
	l-1.4-137.9C1894,491,1888.7,486.9,1883.2,488.3z"/>
<linearGradient id="SVGID_3_" gradientUnits="userSpaceOnUse" x1="1516.5156" y1="694.9421" x2="1647.9327" y2="619.0685">
	<stop  offset="0" style="stop-color:#565656"/>
	<stop  offset="4.275536e-04" style="stop-color:#585858"/>
	<stop  offset="9.847346e-03" style="stop-color:#767C7C"/>
	<stop  offset="2.014618e-02" style="stop-color:#919B9B"/>
	<stop  offset="3.182800e-02" style="stop-color:#A8B7B6"/>
	<stop  offset="4.502256e-02" style="stop-color:#BACDCC"/>
	<stop  offset="6.042637e-02" style="stop-color:#C9DEDD"/>
	<stop  offset="7.947854e-02" style="stop-color:#D3E9E8"/>
	<stop  offset="0.1062" style="stop-color:#D8F0EF"/>
	<stop  offset="0.1804" style="stop-color:#DAF2F1"/>
</linearGradient>
<path class="st15" d="M1515,630c0,0-21,10-18,28s21,20,31,17s32-37,65-31c16.5,3,51,19,56,24s32,11,22.5-8s-51.5-51-106.5-45
	C1531.5,618.7,1515,630,1515,630z"/>
<path d="M2283,400.4c-2.6,9.6,1.9,38.7,30.8,39.6s42.4-38.7,56.2-35.6s19.4,24.8,29.6,25.7s11.2-53.1-44.8-53.1
	C2298.8,377,2286.7,386.9,2283,400.4z"/>
<linearGradient id="SVGID_4_" gradientUnits="userSpaceOnUse" x1="1522.4967" y1="81.5832" x2="1707.3489" y2="188.3077">
	<stop  offset="4.304897e-02" style="stop-color:#DAF2F1"/>
	<stop  offset="0.4366" style="stop-color:#D8F0EF"/>
	<stop  offset="0.5784" style="stop-color:#D3E9E8"/>
	<stop  offset="0.6795" style="stop-color:#C9DEDD"/>
	<stop  offset="0.7612" style="stop-color:#BACDCC"/>
	<stop  offset="0.8312" style="stop-color:#A8B7B6"/>
	<stop  offset="0.8931" style="stop-color:#919B9B"/>
	<stop  offset="0.9478" style="stop-color:#767C7C"/>
	<stop  offset="0.9977" style="stop-color:#585858"/>
	<stop  offset="1" style="stop-color:#565656"/>
</linearGradient>
<path class="st16" d="M1540.8,50c-10.2,14.3,49.7,31,52.8,55.9s0,59-9.3,49.7s0-18.6,12.4-12.4s43.5,43.5,80.7,43.5
	c37.3,0,77.6-62.1,46.6-65.2s-24.8,71.4-55.9,46.6s-90-77.6-108.6-27.9s27.9,55.9,37.3,49.7s59-52.8,31-86.9
	C1599.8,68.6,1556.3,28.2,1540.8,50z"/>
<linearGradient id="SVGID_5_" gradientUnits="userSpaceOnUse" x1="2291.0781" y1="410.5019" x2="2330.9219" y2="387.4981">
	<stop  offset="4.304888e-02" style="stop-color:#FFFFFF"/>
	<stop  offset="0.129" style="stop-color:#F2F2F2"/>
	<stop  offset="0.2886" style="stop-color:#CFCFCF"/>
	<stop  offset="0.5042" style="stop-color:#979797"/>
	<stop  offset="0.7645" style="stop-color:#4B4B4B"/>
	<stop  offset="1" style="stop-color:#000000"/>
</linearGradient>
<circle class="st17" cx="2311" cy="399" r="23"/>
<path class="st9" d="M2343.7,681.1c2.1-4.8-9.9-4.3-9.8-12.2c0.2-7.9,0.2-37.7-0.9-40.7c-0.6-1.6-1.9-3.7-3-5.3
	c-0.8-1.2-0.6-3.1,0.3-4c1.3-1.2,2.8-3,3-5.1c0.3-3.9-1.4-43.7,3-46.7c4.3-3,7.9-1.7,7.6-6c-0.3-4.3-6.1-5.1-10.6,1.1
	c-4.5,6.2-4,41.7-5.7,49s-8.7,2.8-8.9,8.8s6.4,1.9,7.5,8.3c1.1,6.4-0.5,38.3,3.3,44.3C2333.2,678.8,2341.3,686.7,2343.7,681.1z"/>
<path class="st1" d="M362.4,148.8c-3.4,4.1,15.8,3.7,15.5,10.5s-0.2,32.4,1.5,34.9c0.9,1.4,3,3.2,4.8,4.6c1.3,1,1,2.7-0.6,3.4
	c-2.1,1-4.5,2.5-4.8,4.3c-0.5,3.3,2.2,37.5-4.7,40.1s-12.6,1.5-12.1,5.1c0.5,3.7,9.6,4.4,16.7-0.9c7.1-5.3,6.4-35.8,9.1-42.1
	c2.7-6.3,13.8-2.4,14-7.5c0.2-5.1-10.1-1.7-11.8-7.2c-1.7-5.5,0.7-32.9-5.2-38.1S366.3,144,362.4,148.8z"/>
<path class="st9" d="M2356.3,72.2l-164,164c-2.3,2.3-6.2,2.3-8.5,0l0,0c-2.3-2.3-2.3-6.2,0-8.5l164-164c2.3-2.3,6.2-2.3,8.5,0v0
	C2358.6,66.1,2358.6,69.9,2356.3,72.2z"/>
<path class="st9" d="M310.4,154.2V244c0,2.9,2.3,5.2,5.2,5.2l0,0c2.9,0,5.2-2.3,5.2-5.2v-89.7c0-2.9-2.3-5.2-5.2-5.2l0,0
	C312.7,149.1,310.4,151.4,310.4,154.2z"/>
<path class="st9" d="M2070.6,754.1l-119.5-119.5c-0.9-0.9-0.9-2.3,0-3.2h0c0.9-0.9,2.3-0.9,3.2,0l119.5,119.5c0.9,0.9,0.9,2.3,0,3.2
	l0,0C2073,755,2071.5,755,2070.6,754.1z"/>
<path class="st18" d="M1010.6,182.1L891.1,62.6c-0.9-0.9-0.9-2.3,0-3.2v0c0.9-0.9,2.3-0.9,3.2,0l119.5,119.5c0.9,0.9,0.9,2.3,0,3.2
	l0,0C1013,183,1011.5,183,1010.6,182.1z"/>
<circle class="st9" cx="2420" cy="256" r="16"/>
<circle class="st9" cx="1436.5" cy="482.5" r="11.5"/>
<circle class="st9" cx="892.5" cy="100.5" r="11.5"/>
<circle class="st9" cx="354" cy="178.9" r="10"/>
<circle class="st9" cx="2206" cy="711" r="16"/>
<g>
	<path class="st9" d="M2552.6,728.2l-63.6-52.3c-1-0.8-2.4-0.7-3.2,0.3l0,0c-0.8,1-0.7,2.4,0.3,3.2l63.6,52.3c1,0.8,2.4,0.7,3.2-0.3
		l0,0C2553.7,730.5,2553.6,729,2552.6,728.2z"/>
	<path class="st9" d="M2550.3,728.5l-73.1,38c-1.1,0.6-1.6,2-1,3.1l0,0c0.6,1.1,2,1.6,3.1,1l73.1-38c1.1-0.6,1.6-2,1-3.1v0
		C2552.8,728.3,2551.4,727.9,2550.3,728.5z"/>
</g>
<g>
	<path class="st9" d="M1401.3,159.5l60.1,56.3c0.9,0.9,2.4,0.8,3.2-0.1l0,0c0.9-0.9,0.8-2.4-0.1-3.2l-60.1-56.3
		c-0.9-0.9-2.4-0.8-3.2,0.1l0,0C1400.3,157.1,1400.4,158.6,1401.3,159.5z"/>
	<path class="st9" d="M1403.7,159.4l75.4-33.2c1.2-0.5,1.7-1.9,1.2-3v0c-0.5-1.2-1.9-1.7-3-1.2l-75.4,33.2c-1.2,0.5-1.7,1.9-1.2,3
		l0,0C1401.1,159.3,1402.5,159.9,1403.7,159.4z"/>
</g>
<g>
	<path class="st19" d="M945.3,78.5l60.1,56.3c0.9,0.9,2.4,0.8,3.2-0.1l0,0c0.9-0.9,0.8-2.4-0.1-3.2l-60.1-56.3
		c-0.9-0.9-2.4-0.8-3.2,0.1v0C944.3,76.1,944.4,77.6,945.3,78.5z"/>
	<path class="st19" d="M947.7,78.4l75.4-33.2c1.2-0.5,1.7-1.9,1.2-3v0c-0.5-1.2-1.9-1.7-3-1.2l-75.4,33.2c-1.2,0.5-1.7,1.9-1.2,3v0
		C945.1,78.3,946.5,78.9,947.7,78.4z"/>
</g>
<linearGradient id="SVGID_6_" gradientUnits="userSpaceOnUse" x1="2209.1433" y1="808.3822" x2="2234" y2="808.3822">
	<stop  offset="4.304897e-02" style="stop-color:#DAF2F1"/>
	<stop  offset="0.4366" style="stop-color:#D8F0EF"/>
	<stop  offset="0.5784" style="stop-color:#D3E9E8"/>
	<stop  offset="0.6795" style="stop-color:#C9DEDD"/>
	<stop  offset="0.7612" style="stop-color:#BACDCC"/>
	<stop  offset="0.8312" style="stop-color:#A8B7B6"/>
	<stop  offset="0.8931" style="stop-color:#919B9B"/>
	<stop  offset="0.9478" style="stop-color:#767C7C"/>
	<stop  offset="0.9977" style="stop-color:#585858"/>
	<stop  offset="1" style="stop-color:#565656"/>
</linearGradient>
<path class="st20" d="M2224.8,784.4c-3.8-1-15.3,0.7-15.6,12.1c-0.4,11.4,15.3,16.7,14,22.2c-1.2,5.4-9.8,7.6-10.1,11.7
	c-0.4,4,20.9,4.4,20.9-17.7C2234,790.7,2230.1,785.9,2224.8,784.4z"/>
<circle class="st21" cx="2444" cy="525" r="22"/>
<circle class="st22" cx="2504" cy="526" r="23"/>
<circle class="st23" cx="2600" cy="445" r="20"/>
<g>
	<path d="M155.3,825.1c0-0.9,0-2.6,1.7-2.6v-1.7h-1.7V825.1z"/>
	<path d="M166.6,825.1c0-1.2,0-3.6,1.7-3.6v-2.4h-1.7V825.1z"/>
	<path d="M177.8,824.3c0-1.2,0-3.6,3.5-3.6v-2.4h-3.5V824.3z"/>
	<path d="M191.7,821.7c0-1.6,0-4.7,3.5-4.7v-3.1h-3.5V821.7z"/>
	<polygon class="st24" points="150.5,820.5 150.1,826 155.3,826 155.3,821.2 160.5,821.2 160.5,826 166.6,826 166.6,819.3 
		170.9,819.3 170.9,825 177.8,825 177.8,818.3 185.6,818.3 185.6,822.2 191.7,822.2 191.7,814.5 195.1,812.5 195.1,817.3 
		200.3,817.3 201.2,808.7 184.7,814.5 157,818.3 	"/>
	<path class="st25" d="M201.2,812.1c2.6-3.5,16.4-20.8,19-21.6c2.6-0.9,12.1-6.1,12.1-6.9c0-0.9-0.9-4.3,1.7-3.5s6.1,2.6,13-3.5
		c6.9-6.1,6.9-6.9,8.7-6.9c1.7,0,2.6-13,2.6-13s-7.8-21.6-9.5-25.1c-1.7-3.5-3.5-14.7-0.9-23.4c2.6-8.7,8.7-31.2,6.9-35.5
		c-1.7-4.3-10.4-11.3-15.6-13.9c-5.2-2.6-47.6,13.9-45,21.6c2.6,7.8,10,23.8,11.7,31.6c1.7,7.8,3.5,25.1-3.5,39.8
		c-6.9,14.7-29.4,52.8-36.4,57.1c-6.9,4.3-18.6,4.8-18.6,9.1c0,4.3,8.7,2.6,14.7,2.6c7,0,22.8-1,25.5-1.3
		C191.7,819.1,201.2,812.1,201.2,812.1z"/>
	<path class="st26" d="M208.5,778.8c0,0,26.8-31.2,32-48.5c5.2-17.3,10.4-39,11.3-47.6c0.9-8.7-0.9-9.5-0.9-9.5s-5.2,47.6-15.6,62.3
		c-10.4,14.7-17.3,21.6-17.3,21.6s4.3-26.8,1.7-36.4c-2.6-9.5-4.3-9.5-4.3-9.5s0,36.4-2.6,48.5S208.5,778.8,208.5,778.8z"/>
	<path class="st27" d="M242.3,701.8c0,0,11.3-17.3,8.7-24.2c-2.6-6.9-9.5-15.6-9.5-15.6L242.3,701.8z"/>
	<path class="st28" d="M196.4,687.3c0,0,0.9,21.4,5.2,21.4s7.8-0.9,10.4,0.9c2.6,1.7,3.5,1.7,3.5,1.7s0.9-8.7-7.8-14.7
		C199,690.5,196.4,687.3,196.4,687.3z"/>
	<path class="st29" d="M227.2,739.4c0,0,6.9-6.1,12.1-20.8c5.2-14.7,8.7-26.5,8.7-26.5l-19,33.5c0,0-3.8-8.9-8.7-12.1
		c-2.6-1.7-4.3-2.6-4.3-2.6c0.1,0,4.4,2.6,6.9,8.7C225.4,725.6,227.2,739.4,227.2,739.4z"/>
	<path class="st30" d="M218.1,756.7c0,0,18.3-20.2,19.3-23.5c1-3.3,6.2-14.3,6.2-16.6c0-2.3,5.8-24,5.1-24.8l-21.1,46.3
		c0,0-0.9-18.2-6.1-22.5c-5.2-4.3-6.1-4.3-6.1-4.3s6.6,8.7,5.5,18.2C219.8,739,218.1,756.7,218.1,756.7z"/>
	<path class="st31" d="M206.2,713.7c0,0,4.1,3.7,9.3,2.8c5.2-0.9,30.3-6.9,32-8.7l-1.7,7.8c0,0-25.5,7.8-30.1,7.4s-8.9-3-8.9-3
		L206.2,713.7z"/>
	<path class="st32" d="M162.7,815.2c-3.5,0.9-7.8,0.9-5.2,1.7c2.6,0.9,2.6,0.9,2.6,0.9s27.7,0,30.3-1.7c2.6-1.7,5.2-5.2,5.2-5.2
		s-1.7,3.5-8.7,4.3C180,816,162.7,815.2,162.7,815.2z"/>
	<path class="st32" d="M241.4,732.1c0,0,4.3,18.2-2.6,27.7c-6.9,9.5-6.9,12.1-5.2,13.9s13.9-16.4,13.9-25.1
		C247.5,739.9,241.4,732.1,241.4,732.1z"/>
	<path class="st33" d="M174.8,794.4c0,0,4.2-7.8,8.1-14.5c3-5.2,5.9-9.7,6.6-9.7c1.7,0,14.7,2.6,19,8.7c4.3,6.1,9.1,14.1,9.1,14.1
		l-14.9,18.2c0,0,0.6-7.1-14.1-11.5C173.9,795.3,174.8,794.4,174.8,794.4z"/>
	<path class="st34" d="M223.7,715c-2.2,0.6-2.6,1.9-0.9,4.5c1.7,2.6,20.8-4.5,20.8-4.5l-1.7-5.2L223.7,715z"/>
	<circle class="st35" cx="225.4" cy="716.9" r="1.3"/>
	<path class="st24" d="M233.2,779.9c0,0,3.2,0.7,5.9,0.8c2.7,0.1,18.5-18.2,18.5-18.2l0.6-4.9l-0.9,17.9l-4.3,4.5
		c0,0-3.5-1.8-4.3-0.9c-0.9,0.9-4.3,6.3-6.9,6.3s-4.3-1.8-4.3-1.8s-0.9,0-2.6,0c-1.7,0-3.5,0.9-3.5,0.9s0-4.5,0.9-4.5
		C233.2,779.9,233.2,779.9,233.2,779.9z"/>
	<path class="st26" d="M175.3,793.5l3.1-5.8c0,0,4.7,1.1,5.5,1.9l-3.5,6.1L175.3,793.5z"/>
	<path class="st26" d="M179.6,785.7l3.1-5.8c0,0,4.7,1.1,5.5,1.9l-3.5,6.1L179.6,785.7z"/>
	<path class="st26" d="M183.9,778.4l4-6.3c0,0,4.7,1.1,5.5,1.9l-3.5,6.1L183.9,778.4z"/>
	<path class="st26" d="M196,800.9c1.7,0.9,4.3,1.7,4.3,2.6l4.3-5.2l-4.3-4.3L196,800.9z"/>
	<polygon class="st26" points="201.2,793.1 205.5,797.4 209,793.1 204.6,786.2 	"/>
	<polygon class="st26" points="205.5,784.4 208.1,779.3 213.3,787 209.8,792.2 	"/>
	<polyline class="st36" points="181.3,795.7 186.5,797.4 189.9,791.4 184.7,788.8 181.3,795.7 	"/>
	<path class="st37" d="M473,699.6c0,0-1.7,32-0.9,32.9c0.9,0.9,53.7,57.1,56.3,58.9s24.2,13.9,26.8,14.7s3.9,1.3,4.8,2.2
		s0.9,4.3,0.9,4.3s-4.3,1.7-6.9,2.6c-2.6,0.9-48.5-5.2-49.3-5.2s-3.5-0.9-4.3-3.5s-3.5-3.5-4.3-4.3s-26-19-26-19s-0.9-3.5-4.3-2.6
		c-3.5,0.9-6.1,1.7-7.8,0.9s-17.3-8.7-19-13.9c-1.7-5.2,0-16.4,0.9-22.5c0.9-6.1,3.5-16.4,0.9-23.4c-2.6-6.9-8.7-21.6-15.6-30.3
		l-3.5-4.3c0,0,0-11.3,4.3-14.7c4.3-3.5,12.4-3.7,12.4-3.7l35.2,19.3C473.5,687.9,472.6,699.2,473,699.6z"/>
	<path class="st38" d="M504.6,797.9c0,0-1.7,3.5,0.9,5.2c2.6,1.7,45,7.8,44.2,6.1s-26-19-32-23.4c-6.1-4.3-21.6-15.6-26.8-23.4
		c-5.2-7.8-14.7-20.8-13.9-17.3s8.7,25.1,6.9,24.2s-12.1-19-13-25.1s0.9-9.5,0.9-12.1c0,0-5.2,6.1-3.5,12.1s16.4,32,16.4,32
		s2.6,9.5-3.5,8.7C475.2,784,504.6,797.9,504.6,797.9z"/>
	<path class="st38" d="M448.3,743.3c0,0,21.6,26,24.2,28.6c2.6,2.6,3.5,6.9,0.9,6.9c-2.6,0-10.4,0.9-13-2.6s-1.7-13-7.8-22.5
		c-6.1-9.5-10.4-18.2-12.1-25.1c-1.7-6.9-3.5-11.3-3.5-11.3s6.9,13.9,8.7,18.2C447.5,739.9,448.3,743.3,448.3,743.3z"/>
	<path class="st39" d="M479.5,772.8c0,0-17.3-32.9-19-45.9s-3.8-15.9-1.4-18.3s11.8-11.1,16.2-10.2c4.3,0.9,6.9-4.3,6.1-5.2
		c-0.9-0.9-0.9-13-0.9-13s-13.6,17.3-17.6,22.1c-4,4.8-6.9,7.1-6.3,9.8s2.3,22.7,6.6,33c4.3,10.4,5.2,13,5.2,13s-9.1-5.6-16-18.6
		s-13.7-23.1-13.7-23.1s4.6,25.3,20.2,40.8S479.5,772.8,479.5,772.8z"/>
	<path class="st40" d="M461.3,703.8c0,0,8.4-5.8,10.7-4.8c2.3,1,11.8-1.6,11-6.8s-2-13.4-2-13.4L461.3,703.8z"/>
	<path class="st41" d="M437.1,668.9c0,0-9.5,0.9-7.8,7.8c1.7,6.9,24.2,53.7,24.2,53.7s0.6-15,2.9-18.3c2.3-3.3,0,0,0,0
		s-12.1-8.8-13.1-11.3C442.3,698.3,437.1,668.9,437.1,668.9z"/>
	<path class="st42" d="M422.2,687.5l7.1-10l24.2,53.7c0,0-0.9-15.6,2.6-18.2c0,0,6.8,37.5,14.3,48c0,0-13.7-10.5-22.2-27.1
		c-8.5-16.6-14.3-29.3-17-32.5C428.4,698.3,422.2,687.5,422.2,687.5z"/>
	<path class="st43" d="M463.9,712.2c5.1-0.9,9.5-2.6,9.5-2.6s0.9,6.1-0.9,6.9c-1.7,0.9-24.2,5.2-34.6,0c0,0-5.2-7.8-4.3-7.8
		S454.4,713.9,463.9,712.2z"/>
	<path class="st44" d="M433.6,709.6l3.5,6.9c0,0,15.6,3.5,17.3,1.7c1.7-1.7,1.7-5.2-3-6.1S433.6,709.6,433.6,709.6z"/>
	<circle class="st45" cx="450.1" cy="715.6" r="1.7"/>
	<path class="st19" d="M479.5,778.8c0,0,10.4-13.9,15.6-15.6c5.2-1.7,7.8,0,7.8,0l17.3,18.2c0,0-5.2-1.7-6.1,0s-17.3,18.2-16.4,21.6
		l1.9,2.2l-24.1-17.7L479.5,778.8z"/>
	<path class="st46" d="M326.3,452.4c0,0-4.3,5.2-3.5,8.7c0.9,3.5,4.3,29.4,6.1,32.9c1.7,3.5,4.3,9.5,4.3,9.5s-6.1-2.6-7.8-2.6
		s-3.5-6.9-2.6-10.4c0.9-3.5-6.1-26-5.2-30.3c0.9-4.3,0-8.7,3.5-7.8C324.5,453.3,326.3,452.4,326.3,452.4z"/>
	<path class="st47" d="M243.2,694.8c0,0,2.6-7.8,1.7-8.7c-0.9-0.9-1.7-24.2-2.6-39s-3.5-35.5-6.1-42.4c-2.6-6.9-16.4-21.6-19-24.2
		s-12.1-16.4-11.3-22.5c0.9-6.1,0.9-8.7,4.3-9.5c3.5-0.9,2.6-5.2,6.9-6.1s13-6.9,13.9-8.7c0.9-1.7,14.7-6.1,18.2-8.7
		s1.7-6.9,6.9-7.8c5.2-0.9,17.3-2.6,17.3-5.2s7.8-10.4,10.4-11.3s26.8-8.7,28.6-9.5c1.7-0.9,8.7-10.4,12.1-9.5
		c3.5,0.9,23.4,5.2,33.8,9.5s30.3,14.7,31.2,18.2s6.9,0,9.5,5.2c2.6,5.2,0.9,13.9,4.3,16.4c3.5,2.6,13,6.9,15.6,13
		c2.6,6.1,6.1,10.4,6.1,10.4l6.1,7.8c0,0-3.5-15.6-11.3-23.4c-7.8-7.8-13.9-8.7-14.7-15.6c-0.9-6.9-15.6-20.8-25.1-26
		c-9.5-5.2-44.2-18.2-49.3-19c-5.2-0.9-13,2.6-17.3,6.1c-4.3,3.5-11.3,6.9-16.4,7.8c-5.2,0.9-18.2,6.9-21.6,9.5
		c-3.5,2.6-5.2,6.1-10.4,7.8c-5.2,1.7-6.9,2.6-10.4,5.2c-3.5,2.6-5.2,5.2-8.7,6.9s-6.9,0-9.5,3.5c-2.6,3.5-9.5,11.3-14.7,12.1
		s-9.5,3.5-11.3,5.2c-1.7,1.7-6.1,4.3-7.8,6.1c-1.7,1.7-4.3,6.1-2.6,8.7c1.7,2.6-0.9,8.7,14.7,24.2s19,30.3,20.8,35.5
		C237.1,622.1,243.2,694.8,243.2,694.8z"/>
	<path class="st48" d="M154.9,567.6c0,0,30.3,23.4,41.6,24.2s25.1-1.7,26.8-2.6c1.7-0.9-0.9-5.2-0.9-5.2s-10.4,5.2-23.4,1.7
		C186,582.3,154.9,567.6,154.9,567.6z"/>
	<path class="st49" d="M491.6,515.6c0,0-1.7,5.2,0.9,9.5s6.1,6.1,6.1,6.1s0-9.5-0.9-10.4C496.8,520,491.6,515.6,491.6,515.6z"/>
	<path class="st50" d="M485.6,512.2c0,0-9.5,7.8-5.2,16.4c4.3,8.7,13.9,15.6,16.4,13.9c2.6-1.7,1.7-11.3,1.7-11.3s-4.3-0.9-6.1-6.1
		s-0.9-9.5-0.9-9.5L485.6,512.2z"/>
	<path class="st51" d="M481.2,508.7c0,0-9.5,4.3-7.8,13.9c1.7,9.5,6.9,22.5,13,25.1c6.1,2.6,6.1,0.9,6.1,0.9l4.3-2.6v-3.5
		c0,0-10-2.6-13.6-9.1c-3.7-6.5-2.8-16,0.2-19C486.4,511.3,481.2,508.7,481.2,508.7z"/>
	<path class="st52" d="M473.5,503.5c0,0-15.6,6.9-12.1,20.8c3.5,13.9,6.9,22.5,13,26c6.1,3.5,9.5,4.3,9.5,4.3l7.6-5.4
		c0,0-5.8,0.2-10.2-7.6c-4.3-7.8-10.4-20.3-8.2-23.2c2.2-2.8,8.2-9.7,8.2-9.7L473.5,503.5z"/>
	<path class="st53" d="M463.1,494.9c-2.6,3.5-7.8,2.6-7.8,5.2s1.7,4.3-0.9,6.9c-2.6,2.6-6.1,5.2-5.2,6.9s-4.3,5.2-2.6,6.9
		c1.7,1.7,4.3,6.1,3.5,6.9s-1.7,4.3,0,6.1c1.7,1.7,2.6,0.9,2.6,4.3s0,4.3,2.6,5.2c2.6,0.9,1.7,0,2.6,3.5c0.9,3.5-0.9,4.3,1.7,5.2
		s1.7-1.7,2.6,1.7s0,5.2,3.5,6.1c3.5,0.9,3.5-0.9,5.2,1.7c1.7,2.6,0,3.5,3.5,2.6c3.5-0.9,4.3-4.3,6.1-2.6c1.7,1.7,3.5-6.9,3.5-6.9
		s-13.9-5.2-18.2-18.2c-4.3-13-6.9-19.9-0.9-25.1c6.1-5.2,8.7-7.8,8.7-7.8s-4.3-6.1-6.1-8.7C465.7,492.3,463.1,494.9,463.1,494.9z"
		/>
	<path class="st18" d="M324.5,500.9c-3.5,0-3.5,6.1-6.9,6.9s-9.5,2.6-12.1,5.2c-2.6,2.6-6.9,8.7-9.5,8.7c-2.6,0-7.8,0-9.5,1.7
		c-1.7,1.7-6.1,3.5-6.9,5.2c-0.9,1.7-3.5,3.5-6.1,3.5c-2.6,0-2.6,5.2-5.2,6.1s-6.9,0-10.4,1.7c-3.5,1.7-11.3,11.3-14.7,12.1
		s-6.9,6.9-11.3,7.8s-14.7-1.7-18.2,1.7s-0.9,8.7,3.5,14.7s16.4,25.1,19,41.6c2.6,16.4,7.4,80.6,6.9,83.1c-0.4,2.2-5.6,9.1-6.5,10
		c-0.9,0.9-12.1,3.5-12.1,3.5s-6.5-5.6-10.8-10.8c-4.3-5.2-17.3-13.9-18.2-17.3c-0.9-3.5,0-5.2,0-5.2s-7.8-5.2-9.5-8.7
		c-1.7-3.5-24.2-64.9-25.1-69.3c-0.9-4.3-6.1-27.7-7.8-29.4c-1.7-1.7-13.9-21.6-14.7-27.7c-0.9-6.1-3.5-26,4.3-27.7s39-15.6,45-21.6
		c6.1-6.1,13-13,17.3-14.7s7.8-0.9,8.7-1.7s3.5-4.3,7.8-4.3s13.9-9.5,17.3-9.5s-0.9-4.3,1.7-6.1c2.6-1.7,6.1-6.9,10.4-8.7
		s6.9-6.9,7.8-8.7s6.1-6.9,7.8-5.2c1.7,1.7,2.6-3.5,3.5-3.5s48.5,15.6,56.3,13.9s28.6-1.7,34.6-3.5c6.1-1.7,13.9-2.6,13.9-2.6
		s3.5-0.9,4.3,0.9s5.2,2.6,6.1,2.6s5.2,2.6,5.2,2.6s4.3,1.7,5.2,3.5s12.1,5.2,12.1,5.2s6.1-0.9,8.7,0.9s4.3,6.9,6.1,8.7
		c1.7,1.7,12.1,11.3,19,14.7c6.9,3.5,13.9,9.5,15.6,12.1c1.7,2.6,39,22.5,40.7,27.7c1.7,5.2-2.6,58-5.2,68.4
		c-2.6,10.4-9.5,86.6-12.1,90c-2.6,3.5-8.9,11.4-13.4,17.7c-4.3,6.1-10.4,14.7-10.4,14.7s-8.7-4.3-11.3-4.3
		c-2.6,0-8.2-41.1-8.2-45.5s-5.2-77.9-4.3-81.4c0.9-3.5,0-13.9-2.6-18.2c-2.6-4.3-9.5-13.9-13-14.7s-26-11.3-28.6-15.6
		c-2.6-4.3-2.6-9.5-6.1-12.1c-3.5-2.6-32.9-13.9-34.6-13c-1.7,0.9-17.3-3.5-18.2-5.2C328.9,500.1,324.5,500.9,324.5,500.9z"/>
	<path class="st54" d="M267.4,442.1c-0.8,3,14.7,17.3,34.6,24.2c19.9,6.9,19,10.4,18.2,12.1c-0.9,1.7-113.4,2.6-116,11.3
		s0,9.5,4.3,9.5s0-6.9,41.6-8.7s51.1-3.5,45,0c-6.1,3.5-16.4,5.2-14.7,7.8c1.7,2.6,5.2,5.2,0.9,6.1c-4.3,0.9-19,0.9-16.4,4.3
		c2.6,3.5,8.7,5.2,8.7,5.2s-15.6,0-12.1,3.5c3.5,3.5,20.8,2.6,19,4.3c-1.7,1.7-62.3-3.5-62.3-3.5s31.2,3.5,29.4,5.2
		c-1.7,1.7-13.9,6.9-13.9,8.7c0,1.7-3.5,4.3-5.2,2.6c-1.7-1.7,2.6-10.4-6.9-9.5s-14.7-3.5-19-0.9c-4.3,2.6,20.8,13.9,13,15.6
		c-7.8,1.7-27.7-12.1-27.7-6.1c0,6.1,6.9,8.7,4.3,12.1s-27.7,0-26,4.3c1.7,4.3,20.8,12.1,16.4,13.9s-27.7-9.5-25.1-4.3
		c2.6,5.2,31.2,19.9,35.5,20.8s-26-5.2-32.9-10.4c-6.9-5.2-10.4-3.5-10.4-3.5s27.7,91.8,47.6,107.3s23.4,17.3,25.1,14.7
		c1.7-2.6-50.2-90.9-50.2-90.9s51.1,89.2,55.4,90.9c4.3,1.7-30.3-75.3-30.3-75.3s32.9,70.1,38.1,71.9c5.2,1.7-0.9-58-0.9-58
		s5.2-16.4-14.3-45.9c-19.5-29.4,6.5-19,11.7-21.6c5.2-2.6,6.1-6.1,9.1-6.5c3-0.4,12.6-11.7,16.9-13.4c4.3-1.7,6.9,1.7,10.4-1.7
		c3.5-3.5,2.6-6.1,5.2-6.1c2.6,0,3.9-0.4,5-1.9s5-4.1,7.8-5.8c2.8-1.7,8-2.6,9.7-2.6c1.7,0,8.7-10,12.1-10.6
		c3.5-0.6,10-1.9,10.6-3.5s1.5-6.7,5.8-6.7c4.3,0,17.3,6.1,21.6,6.1c4.3,0,34.6,9.5,36.4,13s4.3,10.4,6.1,12.1
		c1.7,1.7,26.4,13,29.7,16c3.2,3,14.5,15.2,14.5,20.3c0,5.2,4.3,100.9,7.4,116.2c3,15.4,7.4,21.4,10.8,21.4s37.2-153.2,39-148.9
		c1.7,4.3-22.5,113.4-19.9,114.3c2.6,0.9,27.1-125.1,27.1-125.1s-56.5,38.5-56.5,30.7c0-7.8,18.2-32,16.4-39
		c-1.7-6.9-39-1.7-44.2-6.1c-5.2-4.3-6.9-10.4-4.3-10.4s38.1,2.6,37.2,0s-7.8-9.5-41.6-6.1c-33.8,3.5-16.4-18.2-16.4-18.2
		s11.3-8.7-8.7-13c-19.9-4.3-33.8-4.3-31.2-6.9c2.6-2.6,58.9,1.7,61.5-0.9c2.6-2.6-51.1-5.2-62.3-6.1c-11.3-0.9-11.3-3.5,0-4.3
		c11.3-0.9,72.7,3.5,71,0.9s-60.6-7.8-68.4-6.9s46.7-3.5,47.6-3.5c0.9,0-3.5-6.1-15.6-4.3c-12.1,1.7-48.5,7.8-47.6,2.6
		c0.9-5.2,38.1-6.1,39.8-8.7c1.7-2.6-26.8,2.6-38.1,4.3c-11.3,1.7-11.3,2.6-13.9,1.7c-2.6-0.9-6.1,3.5-5.2,6.1s0,6.9-3.5,3.5
		c-3.5-3.5-35.5-24.2-33.8-22.5c1.7,1.7,32,22.5,29.4,22.5S268.3,438.6,267.4,442.1z"/>
	<path class="st19" d="M500.6,807.1l1.8,6h3.5c0,0,0.9-2.6,1.7-1.7s3.5,3.5,3.5,3.5h7.8c0,0-1.7-0.9,0.9-0.9c2.6,0,7.8,0.9,7.8,0.9
		s0.9,2.6,1.7,2.6s9.5-0.9,9.5,0c0,0.9,9.5,0.9,9.5,0.9l12.1-0.9c0,0,0.2-5.4,0.5-5.3s-38.6-0.8-43.8-1.6
		C512,809.6,500.6,807.1,500.6,807.1z"/>
	<path class="st19" d="M438.1,758.3c0,0,1.2,19.3,2.1,20.1s5.2,1.7,5.2,1.7s0-1.7,0.9-1.7s2.6,3.5,2.6,3.5s6.9,3.5,9.5,3.5
		s5.2-3.5,8.7-2.6c3.5,0.9,3.5,0.9,3.5,0.9s-0.9-5.2-6.1-5.2c-5.2,0-22.7-5.4-24.3-8.8C438.4,766.3,438.1,758.3,438.1,758.3z"/>
</g>
<path class="st19" d="M374.3,441.6c0,0,23.4-90.9,28.6-84c5.2,6.9,42.4,109.1,34.6,110.8s-63.2,0.9-77,14.7s-26,41.6-17.3,47.6
	c8.7,6.1,32-38.1,48.5-38.1s80.5-0.9,83.1-18.2c2.6-17.3-22.5-153.2-56.3-158.4s-142-40.7-154.1-39c-12.1,1.7-84.8,204.3-103,213
	S125,515.2,125,523.9c0,8.7,8.7,22.5,13,21.6s-5.6-20.3,3.9-24.7s39-13.9,45.9-24.2c6.9-10.4,69.3-172.3,74.5-168.8
	c5.2,3.5,19.9,85.7,13.9,96.1s-7.8,16.4-7.8,16.4s55.4,15.6,63.6,12.1C340.1,449,374.3,441.6,374.3,441.6z"/>
<g>
	<path class="st55" d="M833.5,195.5c-2,10-11,63-23,76s-21,28-13,36s82,29,82,29s-8-7-6-11s6-8,6-8s-67-20-66-23s29-31,31-36
		s17-43,7-55S833.5,195.5,833.5,195.5z"/>
	<path class="st56" d="M875,206c0,0,75,21,79,34s2,18,4,23s77.5,133.5,87.5,214.5s-5,126-15,131s-18,9-19,16s-13,24-34,25
		s-31,0-30,4s6,1,8,8s-13,21-34,34s-22,46-22,46s-16-21-3-42s-6-27-10-33s-3-11-5-14s-8-9-11-8s7.5,9.5,7.5,9.5s-4.5,3.5-12.5-4.5
		s-1-16-16-27s-32-19-32-40s38-71,35-126s-6-193-6-193s-8.6-45.6-0.5-59.4c1.9-3.2,4.6-4.7,8.5-3.6C875.5,206.5,875,206,875,206z"/>
	<path class="st57" d="M836.5,200.5l-14-37l16.8,30.2c0,0,3.2,2.8,0.2,5.8S836.5,200.5,836.5,200.5z"/>
	<path class="st58" d="M841.7,201.2c-0.3-2.2,8.1-34.3,8.1-34.3l-2.4,33.2c0,0,0.3,2.2-1,2.8C845.1,203.5,841.7,201.2,841.7,201.2z"
		/>
	<path class="st58" d="M838.5,207.5l-19-23l18.8,16.2c0,0,3.2,2.8,3.2,4.8S838.5,207.5,838.5,207.5z"/>
	<path class="st59" d="M887.7,210.5c0,0-8.2,19.5-5.2,32.5s25.8,62.1,33,127c4,36-0.5,51-0.5,51l9-1c0,0-2.5-45-12.5-90
		s-26-77-27-88s5-31.3,5-31.3L887.7,210.5z"/>
	<path class="st59" d="M899.5,741.5c0,0-11-10,9-55s33-116,27-174s-12-93-12-93l-3-10l-8,20c0,0,25,132,7,198S891,729,899.5,741.5z"
		/>
	<path class="st55" d="M953.5,240.5c0,0-10-16-19,13s-34,82-35,85s3,14,14,22s47,39,53,50s6,15,6,15l16-5c0,0-21-37-38-51
		s-33-26-29-32s32-61,34-71S953.5,240.5,953.5,240.5z"/>
	<path class="st60" d="M841.5,521.5c0,0,7,14,14,12s66-118.5,66-118.5l-1-6.5c0,0-51,93-60,97S848,498,848,498L841.5,521.5z"/>
	<path class="st60" d="M1041.5,455c0,0-21,70.5-37,73.5S917,424,917,424l3-16c0,0,75.5,122.5,88.5,102.5s30-65.5,30-65.5L1041.5,455
		z"/>
	<circle class="st61" cx="928.5" cy="505.5" r="3"/>
	<ellipse class="st61" cx="930" cy="553.8" rx="2.5" ry="2.3"/>
	<ellipse class="st61" cx="927" cy="601.5" rx="1.5" ry="2"/>
	<path class="st58" d="M947.5,248.5c2,1,5.7,3,6.8-0.5c1.2-3.5-4.8-41.5-4.8-41.5L947.5,248.5z"/>
	
		<ellipse transform="matrix(0.3481 -0.9375 0.9375 0.3481 -11.1065 1282.0284)" class="st61" cx="916.3" cy="649" rx="2.5" ry="1.8"/>
	<circle class="st61" cx="923" cy="460" r="3"/>
	<path class="st58" d="M939.7,243.3l-8.2-34.8l13,29c0,0,2,4-1,6S939.7,243.3,939.7,243.3z"/>
	<path class="st57" d="M943.5,254.5l-2-32l9.5,28.2c0,0,0.5,1.8-1.5,2.8S943.5,254.5,943.5,254.5z"/>
	<circle class="st61" cx="919" cy="424" r="3.5"/>
	<path class="st62" d="M886,250.6c0,0,19.5-5.1,25.5-11.1s11.1-17.6,11.1-17.6l2.8,1c0,0-5.9,13.6-13.9,18.6s-25,11-25,11L886,250.6
		z"/>
	<path class="st62" d="M884,250.1c0,0-26.5-32.6-27.5-39.6s0-9,0-9l-2-1c0,0-4,5,1,14s29.6,39.4,29.6,39.4L884,250.1z"/>
	<polygon class="st59" points="886.9,254 933.4,257.5 933.5,254.5 887.5,252 	"/>
	<polygon class="st59" points="886,253.5 845,252.5 845,250.5 884.8,251.5 	"/>
	<circle class="st63" cx="885.5" cy="252.5" r="3"/>
	<path class="st64" d="M878,654c0,0-9-5-5-9s39-123,40-165s0-47,0-47s-21,144-36,180s-12,33-9,37S878,654,878,654z"/>
	<path class="st64" d="M899,741c-2-3,4-38,21-47s36-26,34.5-31.5S946,656,946,652s13-44,5-97s-25-117-25-117s10.5,51.5,8.5,115.5
		s-17,112-23,126s-12.1,32.2-14,41C895,732,899,741,899,741z"/>
	<path class="st64" d="M1011,624c0,0-1,18-19.5,23s-21,2.5-21,2.5S988,620,967,556s-26-74-26-74L1011,624z"/>
	<path class="st64" d="M883.3,657.8c0,0-0.3,4.3,2.8,8.3s7.8,6.3,7.8,6.3S920,614,921,578s0-59,0-59s-3,57-16,94
		S883.3,657.8,883.3,657.8z"/>
</g>
<path class="st11" d="M876.7,179.1c2.1-4.8-9.9-4.3-9.8-12.2s0.2-37.7-0.9-40.7c-0.6-1.6-1.9-3.7-3-5.3c-0.8-1.2-0.6-3.1,0.3-4
	c1.3-1.2,2.8-3,3-5.1c0.3-3.9-1.4-43.7,3-46.7c4.3-3,7.9-1.7,7.6-6s-6.1-5.1-10.6,1.1c-4.5,6.2-4,41.7-5.7,49s-8.7,2.8-8.9,8.8
	c-0.2,6,6.4,1.9,7.5,8.3c1.1,6.4-0.5,38.3,3.3,44.3S874.3,184.7,876.7,179.1z"/>
</svg>
