<?xml version="1.0" encoding="utf-8"?>
<!-- Generator: Adobe Illustrator 21.1.0, SVG Export Plug-In . SVG Version: 6.00 Build 0)  -->
<svg version="1.1" id="Layer_1" xmlns="http://www.w3.org/2000/svg" xmlns:xlink="http://www.w3.org/1999/xlink" x="0px" y="0px"
	 viewBox="0 0 100 100" style="enable-background:new 0 0 100 100;" xml:space="preserve">
<style type="text/css">
	.st0{fill:none;stroke:#282526;stroke-miterlimit:10;}
	.st1{fill:#20FF00;}
	.st2{fill:#FFFFFF;stroke:#282526;stroke-miterlimit:10;}
	.st3{font-family:'LeelawadeeUI-Semilight';}
	.st4{font-size:12px;}
</style>
<rect x="10.8" y="13.1" class="st2" width="80.7" height="76.4"/>
<rect x="10.8" y="13.1" width="80.7" height="18.3"/>
<path class="st1" d="M26.2,40.3V81h-1.1V40.3H26.2z"/>
<path d="M36,57.3l-3.9-15.4h2.1l1.8,7.8c0.5,1.9,0.9,3.8,1.1,5.3l0,0c0.3-1.5,0.7-3.4,1.3-5.3l2.1-7.8h2.1l1.9,7.8
	c0.4,1.8,0.8,3.7,1.1,5.3l0,0c0.3-1.7,0.8-3.4,1.2-5.3l2-7.8h2l-4.4,15.4h-2.1l-1.9-8c-0.5-2-0.8-3.5-1-5l0,0c-0.3,1.5-0.6,3-1.2,5
	l-2.2,8H36z"/>
<path d="M41.6,69.1l1.5,5.6c0.3,1.2,0.6,2.4,0.8,3.5H44c0.3-1.1,0.6-2.3,1-3.5l1.8-5.6h1.7l1.7,5.5c0.4,1.3,0.7,2.5,1,3.6h0.1
	c0.2-1.1,0.5-2.3,0.8-3.6l1.6-5.6h2l-3.6,11.1h-1.8l-1.7-5.3c-0.4-1.2-0.7-2.3-1-3.6l0,0c-0.3,1.3-0.6,2.5-1,3.7l-1.8,5.3H43
	l-3.3-11.1L41.6,69.1L41.6,69.1z"/>
<text transform="matrix(1 0 0 1 56 79.75)" class="st3 st4">orld</text>
<text transform="matrix(1 0 0 1 49.5 57.5)" class="st3 st4">eb</text>
</svg>
