<?xml version="1.0" encoding="utf-8"?>
<!-- Generator: Adobe Illustrator 21.1.0, SVG Export Plug-In . SVG Version: 6.00 Build 0)  -->
<svg version="1.1" id="Layer_1" xmlns="http://www.w3.org/2000/svg" xmlns:xlink="http://www.w3.org/1999/xlink" x="0px" y="0px"
	 viewBox="0 0 100 100" style="enable-background:new 0 0 100 100;" xml:space="preserve">
<style type="text/css">
	.st0{fill:none;stroke:#282526;stroke-miterlimit:10;}
	.st1{fill:#20FF00;}
	.st2{fill:#FFFFFF;fill-opacity:0.5;stroke:#282526;stroke-miterlimit:10;}
</style>
<rect x="-109" y="12.6" class="st0" width="80.7" height="76.4"/>
<rect x="-109" y="12.6" width="80.7" height="18.3"/>
<path class="st1" d="M-92.2,48.2V71h-1.5V48.2H-92.2z"/>
<path d="M-82,65.3l-3.9-15.4h2.1l1.8,7.8c0.5,1.9,0.9,3.8,1.1,5.3l0,0c0.3-1.5,0.7-3.4,1.3-5.3l2.1-7.8h2.1l1.9,7.8
	c0.4,1.8,0.8,3.7,1.1,5.3l0,0c0.3-1.7,0.8-3.4,1.2-5.3l2-7.8h2l-4.4,15.4h-2.1l-1.9-8c-0.5-2-0.8-3.5-1-5l0,0c-0.3,1.5-0.6,3-1.2,5
	l-2.2,8H-82z"/>
<path d="M-64.5,54.3l1.5,5.6c0.3,1.2,0.6,2.4,0.8,3.5h0.1c0.3-1.1,0.6-2.3,1-3.5l1.8-5.6h1.7l1.7,5.5c0.4,1.3,0.7,2.5,1,3.6h0.1
	c0.2-1.1,0.5-2.3,0.8-3.6l1.6-5.6h2L-54,65.3h-1.8l-1.7-5.3c-0.4-1.2-0.7-2.3-1-3.6l0,0c-0.3,1.3-0.6,2.5-1,3.7l-1.8,5.3h-1.8
	l-3.3-11.1L-64.5,54.3L-64.5,54.3z"/>
<rect x="10.8" y="13.1" class="st2" width="80.7" height="76.4"/>
<rect x="10.8" y="13.1" width="80.7" height="18.3"/>
<path class="st1" d="M26.2,40.3V81h-1.1V40.3H26.2z"/>
<path d="M37.3,63.6l-3.9-15.4h2.1l1.8,7.8c0.5,1.9,0.9,3.8,1.1,5.3l0,0c0.3-1.5,0.7-3.4,1.3-5.3l2.1-7.8h2.1l1.9,7.8
	c0.4,1.8,0.8,3.7,1.1,5.3l0,0c0.3-1.7,0.8-3.4,1.2-5.3l2-7.8h2l-4.4,15.4h-2.1l-1.9-8c-0.5-2-0.8-3.5-1-5l0,0c-0.3,1.5-0.6,3-1.2,5
	l-2.2,8H37.3z"/>
<path d="M56.4,52.6l1.5,5.6c0.3,1.2,0.6,2.4,0.8,3.5h0.1c0.3-1.1,0.6-2.3,1-3.5l1.8-5.6h1.7l1.7,5.5c0.4,1.3,0.7,2.5,1,3.6h0.1
	c0.2-1.1,0.5-2.3,0.8-3.6l1.6-5.6h2l-3.6,11.1h-1.8l-1.7-5.3c-0.4-1.2-0.7-2.3-1-3.6l0,0c-0.3,1.3-0.6,2.5-1,3.7l-1.8,5.3h-1.8
	l-3.3-11.1L56.4,52.6L56.4,52.6z"/>
<g>
	<path class="st1" d="M39.5,24.4H39l-0.8-2.6c0-0.1,0-0.2-0.1-0.3h0c0,0,0,0.1,0,0.1c0,0.1,0,0.1-0.1,0.2l-0.8,2.6h-0.4l-1.1-3.6
		h0.5l0.8,2.8c0,0.1,0,0.2,0,0.3h0c0,0,0-0.1,0-0.1c0-0.1,0-0.1,0-0.2l0.9-2.8h0.4l0.8,2.8c0,0.1,0,0.2,0.1,0.3h0c0,0,0-0.1,0-0.1
		c0-0.1,0-0.1,0-0.2l0.8-2.8h0.4L39.5,24.4z"/>
	<path class="st1" d="M41.4,22.7c0,0.2,0,0.4,0.1,0.6s0.1,0.3,0.2,0.4c0.1,0.1,0.2,0.2,0.4,0.3c0.1,0.1,0.3,0.1,0.5,0.1
		c0.4,0,0.8-0.1,1.1-0.4v0.4c-0.3,0.2-0.8,0.4-1.2,0.4c-0.2,0-0.5,0-0.7-0.1s-0.4-0.2-0.5-0.4c-0.1-0.2-0.2-0.4-0.3-0.6
		c-0.1-0.2-0.1-0.5-0.1-0.8c0-0.3,0-0.5,0.1-0.7c0.1-0.2,0.2-0.4,0.3-0.6c0.1-0.2,0.3-0.3,0.5-0.4c0.2-0.1,0.4-0.1,0.6-0.1
		c0.2,0,0.4,0,0.6,0.1c0.2,0.1,0.3,0.2,0.4,0.3c0.1,0.1,0.2,0.3,0.3,0.5C44,22,44,22.2,44,22.5v0.2H41.4z M43.5,22.3
		c0-0.4-0.1-0.7-0.3-0.9s-0.4-0.3-0.7-0.3c-0.2,0-0.3,0-0.4,0.1c-0.1,0.1-0.2,0.1-0.3,0.2c-0.1,0.1-0.2,0.2-0.2,0.4
		c-0.1,0.1-0.1,0.3-0.1,0.5H43.5z"/>
	<path class="st1" d="M45.3,23.8v0.6h-0.4v-5.3h0.4v2.4h0c0.1-0.2,0.3-0.4,0.5-0.6c0.2-0.1,0.5-0.2,0.8-0.2c0.2,0,0.4,0,0.6,0.1
		c0.2,0.1,0.3,0.2,0.5,0.4c0.1,0.2,0.2,0.3,0.3,0.6c0.1,0.2,0.1,0.5,0.1,0.7c0,0.3,0,0.6-0.1,0.8c-0.1,0.2-0.2,0.5-0.3,0.6
		s-0.3,0.3-0.5,0.4c-0.2,0.1-0.4,0.1-0.7,0.1C45.9,24.5,45.6,24.3,45.3,23.8L45.3,23.8z M45.3,22.9c0,0.2,0,0.3,0.1,0.5
		c0.1,0.1,0.1,0.3,0.2,0.4c0.1,0.1,0.2,0.2,0.4,0.3c0.1,0.1,0.3,0.1,0.5,0.1c0.2,0,0.3,0,0.5-0.1c0.1-0.1,0.3-0.2,0.4-0.3
		c0.1-0.1,0.2-0.3,0.2-0.5c0.1-0.2,0.1-0.4,0.1-0.7c0-0.2,0-0.4-0.1-0.6c-0.1-0.2-0.1-0.3-0.2-0.4c-0.1-0.1-0.2-0.2-0.3-0.3
		c-0.1-0.1-0.3-0.1-0.4-0.1c-0.2,0-0.4,0-0.5,0.1c-0.1,0.1-0.3,0.2-0.4,0.3c-0.1,0.1-0.2,0.3-0.2,0.4c-0.1,0.2-0.1,0.3-0.1,0.5V22.9
		z"/>
	<path class="st1" d="M54.1,24.4h-0.4l-0.8-2.6c0-0.1,0-0.2-0.1-0.3h0c0,0,0,0.1,0,0.1c0,0.1,0,0.1-0.1,0.2L52,24.4h-0.4l-1.1-3.6
		h0.5l0.8,2.8c0,0.1,0,0.2,0,0.3h0c0,0,0-0.1,0-0.1c0-0.1,0-0.1,0-0.2l0.9-2.8h0.4l0.8,2.8c0,0.1,0,0.2,0.1,0.3h0c0,0,0-0.1,0-0.1
		c0-0.1,0-0.1,0-0.2l0.8-2.8h0.4L54.1,24.4z"/>
	<path class="st1" d="M57.3,24.5c-0.3,0-0.5,0-0.7-0.1c-0.2-0.1-0.4-0.2-0.5-0.4c-0.1-0.2-0.3-0.4-0.3-0.6c-0.1-0.2-0.1-0.5-0.1-0.7
		c0-0.3,0-0.6,0.1-0.8c0.1-0.2,0.2-0.4,0.4-0.6c0.2-0.2,0.3-0.3,0.6-0.4c0.2-0.1,0.5-0.1,0.7-0.1c0.3,0,0.5,0,0.7,0.1
		c0.2,0.1,0.4,0.2,0.5,0.4s0.3,0.4,0.3,0.6s0.1,0.5,0.1,0.8c0,0.3,0,0.5-0.1,0.8c-0.1,0.2-0.2,0.4-0.3,0.6s-0.3,0.3-0.5,0.4
		C57.9,24.4,57.6,24.5,57.3,24.5z M57.4,21.1c-0.2,0-0.4,0-0.5,0.1c-0.2,0.1-0.3,0.2-0.4,0.3c-0.1,0.1-0.2,0.3-0.3,0.5
		c-0.1,0.2-0.1,0.4-0.1,0.6c0,0.2,0,0.4,0.1,0.6s0.1,0.3,0.3,0.5c0.1,0.1,0.2,0.2,0.4,0.3c0.2,0.1,0.3,0.1,0.5,0.1
		c0.2,0,0.4,0,0.5-0.1c0.2-0.1,0.3-0.2,0.4-0.3c0.1-0.1,0.2-0.3,0.2-0.5c0.1-0.2,0.1-0.4,0.1-0.6c0-0.5-0.1-0.8-0.3-1.1
		C58.1,21.3,57.8,21.1,57.4,21.1z"/>
	<path class="st1" d="M61.7,21.3c-0.1-0.1-0.2-0.1-0.4-0.1c-0.1,0-0.2,0-0.3,0.1c-0.1,0-0.2,0.1-0.2,0.2c-0.1,0.1-0.1,0.2-0.2,0.3
		c0,0.1-0.1,0.2-0.1,0.3c0,0.1-0.1,0.2-0.1,0.3c0,0.1,0,0.2,0,0.3v1.7H60v-3.6h0.4v0.8h0c0-0.1,0.1-0.2,0.2-0.4
		c0.1-0.1,0.1-0.2,0.2-0.3c0.1-0.1,0.2-0.1,0.3-0.2c0.1,0,0.2-0.1,0.3-0.1c0.1,0,0.1,0,0.2,0c0.1,0,0.1,0,0.2,0V21.3z"/>
	<path class="st1" d="M62.4,24.4v-5.3h0.4v5.3H62.4z"/>
	<path class="st1" d="M66.5,24.4v-0.6h0c-0.1,0.2-0.3,0.4-0.5,0.5c-0.2,0.1-0.5,0.2-0.7,0.2c-0.2,0-0.4,0-0.6-0.1
		c-0.2-0.1-0.3-0.2-0.5-0.4c-0.1-0.2-0.2-0.3-0.3-0.6c-0.1-0.2-0.1-0.5-0.1-0.7c0-0.3,0-0.6,0.1-0.8c0.1-0.2,0.2-0.4,0.3-0.6
		c0.1-0.2,0.3-0.3,0.5-0.4c0.2-0.1,0.4-0.1,0.7-0.1c0.5,0,0.9,0.2,1.1,0.6h0v-2.2h0.4v5.3H66.5z M66.5,22.2c0-0.2,0-0.3-0.1-0.4
		c-0.1-0.1-0.1-0.3-0.2-0.4c-0.1-0.1-0.2-0.2-0.3-0.2c-0.1-0.1-0.3-0.1-0.4-0.1c-0.2,0-0.3,0-0.5,0.1c-0.1,0.1-0.3,0.2-0.4,0.3
		c-0.1,0.1-0.2,0.3-0.2,0.5c-0.1,0.2-0.1,0.4-0.1,0.6c0,0.2,0,0.4,0.1,0.6c0.1,0.2,0.1,0.3,0.2,0.5c0.1,0.1,0.2,0.2,0.4,0.3
		c0.1,0.1,0.3,0.1,0.5,0.1c0.2,0,0.3,0,0.5-0.1c0.1-0.1,0.3-0.2,0.4-0.3c0.1-0.1,0.2-0.2,0.2-0.4c0.1-0.2,0.1-0.3,0.1-0.5V22.2z"/>
</g>
</svg>
