<?xml version="1.0" encoding="utf-8"?>
<!-- Generator: Adobe Illustrator 21.1.0, SVG Export Plug-In . SVG Version: 6.00 Build 0)  -->
<svg version="1.1" id="Layer_1" xmlns="http://www.w3.org/2000/svg" xmlns:xlink="http://www.w3.org/1999/xlink" x="0px" y="0px"
	 viewBox="0 0 100 60" style="enable-background:new 0 0 100 60;" xml:space="preserve">
<style type="text/css">
	.st0{fill:none;stroke:#282526;stroke-miterlimit:10;}
	.st1{fill:#20FF00;}
	.st2{fill:#FFFFFF;stroke:#282526;stroke-miterlimit:10;}
	.st3{fill:#FFFFFF;}
</style>
<rect x="9.3" y="13.9" class="st2" width="80.7" height="33.4"/>
<rect x="9.3" y="13.9" width="80.7" height="14.9"/>
<path d="M34,39.2l-2.2-8.5H33l1,4.3c0.3,1.1,0.5,2.1,0.6,2.9l0,0c0.2-0.8,0.4-1.9,0.7-2.9l1.2-4.3h1.2l1.1,4.3
	c0.2,1,0.4,2.1,0.6,2.9l0,0C39.5,37,39.8,36,40,35l1.1-4.3h1.1l-2.4,8.5h-1.2l-1.1-4.4c-0.3-1.1-0.4-1.9-0.6-2.8l0,0
	c-0.2,0.8-0.3,1.7-0.7,2.8l-1.2,4.4H34z"/>
<g>
	<path class="st3" d="M43.3,18.7l0.8,3.1c0.2,0.7,0.3,1.3,0.4,1.9h0.1c0.2-0.6,0.3-1.3,0.6-1.9l1-3.1h0.9l0.9,3
		c0.2,0.7,0.4,1.4,0.6,2h0.1c0.1-0.6,0.3-1.3,0.4-2l0.9-3.1h1.1l-2,6.2h-1l-0.9-2.9c-0.2-0.7-0.4-1.3-0.6-2l0,0
		c-0.2,0.7-0.3,1.4-0.6,2.1l-1,2.9h-1l-1.8-6.2L43.3,18.7L43.3,18.7z"/>
</g>
<path class="st1" d="M20.2,18.3v22.8h-1.5V18.3H20.2z"/>
<path d="M49.9,36c0,0.6-0.1,1.1-0.2,1.5c-0.1,0.4-0.3,0.8-0.6,1c-0.2,0.3-0.5,0.5-0.8,0.6c-0.3,0.1-0.7,0.2-1,0.2
	c-0.8,0-1.5-0.3-1.9-0.8s-0.6-1.4-0.6-2.4c0-0.6,0.1-1.1,0.2-1.5c0.1-0.4,0.3-0.8,0.6-1c0.2-0.3,0.5-0.5,0.8-0.6
	c0.3-0.1,0.7-0.2,1-0.2c0.8,0,1.5,0.3,1.9,0.8S49.9,35,49.9,36z M48.7,36.1c0-0.8-0.1-1.3-0.3-1.7s-0.5-0.6-1-0.6
	c-0.2,0-0.4,0-0.6,0.1s-0.3,0.2-0.4,0.4c-0.1,0.2-0.2,0.4-0.2,0.7s-0.1,0.6-0.1,0.9c0,0.8,0.1,1.3,0.3,1.7c0.2,0.4,0.5,0.6,1,0.6
	c0.2,0,0.4,0,0.6-0.1c0.2-0.1,0.3-0.2,0.4-0.4s0.2-0.4,0.2-0.7S48.7,36.4,48.7,36.1z"/>
<path d="M57,39.3l-0.9-2.1c-0.1-0.2-0.2-0.3-0.4-0.4c-0.2-0.1-0.3-0.1-0.5-0.1H55v2.6h-1.2v-6.4h1.9c0.4,0,0.7,0,1,0.1
	s0.5,0.2,0.7,0.3s0.4,0.3,0.5,0.5c0.1,0.2,0.2,0.5,0.2,0.8c0,0.2,0,0.4-0.1,0.6s-0.2,0.3-0.3,0.5S57.3,36,57.1,36
	c-0.2,0.1-0.4,0.1-0.6,0.2c0.2,0,0.3,0.1,0.4,0.3s0.3,0.4,0.4,0.6l1,2.1H57z M56.7,34.7c0-0.3-0.1-0.5-0.3-0.7s-0.5-0.2-0.9-0.2H55
	v1.8h0.5c0.2,0,0.4,0,0.5-0.1c0.2,0,0.3-0.1,0.4-0.2s0.2-0.2,0.2-0.3S56.7,34.9,56.7,34.7z"/>
<path d="M62.6,39.3v-6.4h1.2v5.4h2.7v1H62.6z"/>
<path d="M74.4,36c0,0.5-0.1,0.9-0.2,1.3c-0.1,0.4-0.3,0.7-0.6,1c-0.3,0.3-0.6,0.5-1,0.7s-0.9,0.2-1.5,0.2h-1.6v-6.4h1.9
	c0.5,0,0.9,0.1,1.3,0.2c0.4,0.1,0.7,0.3,0.9,0.6s0.4,0.6,0.5,1C74.3,35,74.4,35.4,74.4,36z M73.1,36.1c0-0.3,0-0.7-0.1-0.9
	s-0.1-0.5-0.3-0.7c-0.1-0.2-0.3-0.3-0.5-0.4s-0.5-0.1-0.8-0.1h-0.6v4.4h0.5c0.6,0,1-0.2,1.3-0.5S73.1,36.8,73.1,36.1z"/>
<path class="st3" d="M58.4,22c0,0.1,0,0.2,0,0.3c0,0.1,0,0.3,0,0.4h-3.3c0,0.2,0,0.4,0.1,0.6c0.1,0.2,0.2,0.3,0.3,0.4
	c0.1,0.1,0.3,0.2,0.4,0.3c0.2,0.1,0.4,0.1,0.6,0.1c0.2,0,0.5,0,0.8-0.1c0.3,0,0.6-0.1,0.9-0.2v0.9c-0.1,0-0.3,0.1-0.4,0.1
	s-0.3,0.1-0.5,0.1s-0.3,0-0.5,0.1s-0.3,0-0.5,0c-0.4,0-0.7-0.1-1-0.2s-0.6-0.3-0.8-0.5s-0.4-0.5-0.5-0.8s-0.2-0.7-0.2-1.1
	c0-0.4,0.1-0.8,0.2-1.1s0.3-0.6,0.5-0.8s0.4-0.4,0.7-0.5c0.3-0.1,0.6-0.2,1-0.2c0.4,0,0.7,0.1,0.9,0.2s0.5,0.3,0.7,0.5
	s0.3,0.4,0.4,0.7S58.4,21.7,58.4,22z M57.2,21.8c0-0.2,0-0.4-0.1-0.5S57,21.1,56.9,21c-0.1-0.1-0.2-0.2-0.3-0.2
	c-0.1,0-0.2-0.1-0.4-0.1c-0.3,0-0.5,0.1-0.7,0.3s-0.3,0.5-0.3,0.8H57.2z"/>
<path class="st3" d="M66.1,22.3c0,0.5-0.1,0.8-0.2,1.2c-0.1,0.3-0.3,0.6-0.5,0.8c-0.2,0.2-0.5,0.4-0.8,0.5s-0.7,0.2-1,0.2
	c-0.4,0-0.7,0-1-0.1c-0.3-0.1-0.6-0.1-0.9-0.2V18h1.2v1.6l0,1c0.2-0.2,0.4-0.4,0.6-0.6c0.2-0.1,0.5-0.2,0.9-0.2
	c0.3,0,0.6,0.1,0.8,0.2s0.4,0.3,0.6,0.5c0.2,0.2,0.3,0.5,0.4,0.8S66.1,21.9,66.1,22.3z M64.8,22.3c0-0.3,0-0.5-0.1-0.7
	s-0.1-0.4-0.2-0.5c-0.1-0.1-0.2-0.2-0.3-0.3c-0.1-0.1-0.2-0.1-0.4-0.1c-0.2,0-0.4,0.1-0.6,0.2c-0.2,0.2-0.4,0.4-0.6,0.7v2.2
	c0.1,0,0.2,0.1,0.3,0.1c0.1,0,0.3,0,0.4,0c0.2,0,0.4,0,0.5-0.1c0.2-0.1,0.3-0.2,0.4-0.3c0.1-0.1,0.2-0.3,0.3-0.5
	S64.8,22.6,64.8,22.3z"/>
</svg>
