<?xml version="1.0" encoding="utf-8"?>
<!-- Generator: Adobe Illustrator 23.0.1, SVG Export Plug-In . SVG Version: 6.00 Build 0)  -->
<svg version="1.1" id="Layer_1" xmlns="http://www.w3.org/2000/svg" xmlns:xlink="http://www.w3.org/1999/xlink" x="0px" y="0px"
	 viewBox="0 0 1341 895" style="enable-background:new 0 0 1341 895;" xml:space="preserve">
<style type="text/css">
	.st0{fill:#BDD7F0;}
	.st1{fill:#48A0D9;}
	.st2{fill:#F6968A;}
	.st3{fill:#0025FF;}
	.st4{fill:#1636BF;}
	.st5{fill:#343434;}
	.st6{fill:#999898;}
	.st7{fill:none;stroke:#000000;stroke-miterlimit:10;}
	.st8{fill:#514C4C;}
	.st9{fill:none;}
	.st10{fill:none;stroke:#B6D0EB;stroke-miterlimit:10;}
	.st11{display:none;}
	.st12{fill:#ED1C24;}
	.st13{opacity:0.9;fill:#FFFFFF;stroke:#282526;stroke-miterlimit:10;enable-background:new    ;}
	.st14{fill:#F9FF00;}
	.st15{fill:#20FF00;}
	.st16{opacity:7.000000e-02;fill:url(#SVGID_1_);enable-background:new    ;}
	.st17{fill:url(#SVGID_2_);}
	.st18{fill:#263357;}
	.st19{fill:url(#SVGID_3_);}
	.st20{fill:url(#SVGID_4_);}
	.st21{fill:url(#SVGID_5_);}
	.st22{fill:#404D56;}
	.st23{fill:#15161A;}
	.st24{fill:url(#SVGID_6_);}
	.st25{fill:#EF2975;}
	.st26{fill:#102D11;}
	.st27{fill:#2E302F;}
	.st28{fill:#40484B;}
	.st29{fill:#B2B6C1;}
	.st30{fill:#6E5B3A;}
	.st31{fill:#B8A56A;}
	.st32{fill:#95A5BE;}
	.st33{fill:#444348;}
	.st34{fill:#3A3539;}
	.st35{fill:#3B4044;}
	.st36{fill:#8C9697;}
	.st37{fill:#A44E4D;}
	.st38{fill:#929397;}
	.st39{fill:#B6BCBA;}
	.st40{fill:#2B2E33;}
	.st41{fill:#333237;}
	.st42{fill:#75767B;}
	.st43{fill:#D3D066;}
	.st44{fill:#715D2A;}
	.st45{fill:#27262B;}
	.st46{fill:#1F2024;}
	.st47{fill:#572D31;}
	.st48{fill:#8A8B8F;}
	.st49{fill:#6F6F6F;}
	.st50{fill:#984241;}
	.st51{fill:#8092A6;}
	.st52{fill:#4F393B;}
	.st53{fill:#7D2521;}
	.st54{fill:#363739;}
	.st55{fill:#8F4542;}
	.st56{fill:#6B767A;}
	.st57{fill:#222126;}
	.st58{fill:#17301E;}
	.st59{fill:#541E3D;}
	.st60{fill:#323C54;}
	.st61{fill:#4F5B7F;}
	.st62{fill:#657522;}
	.st63{fill:#3E3F29;}
	.st64{fill:#BA36B7;}
	.st65{fill:#2A2A2A;}
	.st66{fill:#D893C8;}
	.st67{fill:#351429;}
	.st68{fill:none;stroke:#263357;stroke-width:2;stroke-miterlimit:10;}
	.st69{fill:#3EBDA7;}
	.st70{fill:#222F59;}
	.st71{fill:#EFB0F4;}
</style>
<rect x="2903.4" y="406.3" class="st0" width="156.1" height="41.6"/>
<polygon class="st1" points="2925.7,384.2 2968,384.2 2954.6,281.4 2941.6,270.6 "/>
<circle class="st2" cx="3113.1" cy="422.4" r="14.3"/>
<rect x="737" y="14" class="st3" width="374" height="876"/>
<polygon class="st4" points="1111,890 951,804 737,890 "/>
<g id="lady_1_">
	<path d="M924.6,531.5c0,0-2.5-5.9,0-4s6.8,9.1,6.8,9.1s-14.2,75.1-11.9,78.1s5.5,2.8,5.5,2.8l-2-5.5c0,0,10.3-12.1,20.3-10
		s35.9,8.5,36.4,10s0.1,6.4-2,8.1c0,0,4-1.9,4.9-5.9c0.8-4-1.9-10,0-17.2s2.3-32.9,2.3-32.9s5.5-3.2,5.5-7.6c0-4.5-3-6.2-2.1-12.3
		c0.8-6.2,4.7-22.3,4.7-22.3s5.1-6.8,0.6-9.8s-12.1-7.8-16.1-4.7c-4,3.2-15.7,17.8-25,13.8s-10.8-5.3-10.8-5.3s-8.3,6.8-11.5,7.6
		s-7.6,3.8-7.6,3.8L924.6,531.5z"/>
	<path class="st5" d="M986.4,813.6c-1,4.1-3.2,23.2,4.5,32.1c7.6,8.9,17.8,17.8,21.3,17.8s5.4,5.1,2.2,5.1s-25.8,1.6-25.8,1.6
		s-2.9-18.8-7.3-16.9s0.3,16.5,0.3,16.5l-6.7,0.6c0,0,4.1-71.6,2.9-76.1c-1.3-4.5-8.9-9.2-7.3-20.7c1.6-11.5,10.5-20.4,8-25.1
		s-10.8-26.4-11.5-29.6c-0.6-3.2-8-51.5-8-51.5l-7-2.2l10.8,142.9l9.2,8.6l-19.7,0.6c0,0-8-139.7-9.9-143.5s-16.9-14.3-18.5-28.3
		s7.3-14.3,4.8-20.4c-2.5-6-5.7-13.4-5.7-13.4s7.6-12.7,23.2-9.5s33.4,9.5,33.4,9.5l-2.2,10.5l19.7,34l5.4,89.7L986.4,813.6z"/>
	<path class="st6" d="M926.9,530.6c0,0-7.2,4.9-7.2,7s5.9,32.1,5.9,32.1l2.5-16.1c0,0-3.2-9.5-1.9-9.7s4.3-1.3,4.3-1.3l0.9-6.1
		L926.9,530.6z"/>
	<path class="st7" d="M974.4,526.8c0,0-1.6-6.5,1.3-5.7c2.9,0.8,11.5,11,9.7,11.8s-3.5,1.4-3.5,1.4s2.2,2.9,4.1,2.2
		s6.9-14.7,6.9-14.7s5.5-6.9,0.6-9.8s-7.8-4.6-9.8-1.6c-1.9,3-11,11.3-11,11.3L974.4,526.8z"/>
	<path class="st6" d="M977.7,523c0,0,8.5,5.3,6.4,8.5s-11.2,14.4-11.2,16.8c0,2.3,10.2,33.3,8.9,36.7s-4.5,13.2-4.5,15.9
		c0,2.8-0.4,9.1-1.3,9.3c-0.8,0.2-3-0.2-2.8-1.1c0.2-0.9,0.9-7-0.2-7s-5.3,8.4-6.8,7.8s1-4.5,1-4.5s-4.1,5.4-4.6,3
		c-0.6-2.4,3.7-6.6,3.7-6.6s-4.9,5-5.1,3.4c-0.2-1.6,14.2-17.3,14.1-19.6s-10.6-41.8-9.8-44.4C966.3,538.6,977.7,523,977.7,523z"/>
	<path class="st8" d="M991.6,466c-1.3-2.2-8.4-9.5-16.4-7.6s-12.1,8.8-13,15.6c-1,6.8-6.4,8-6.7,11.5s1.3,9.4-1.1,10.3
		c-2.4,1-28.3,15.2-4.5,26.2c14.3,6.6,24-12.5,28.3-13.2c13.6-2.1,15,3.9,16.9,2.8c1.9-1.1-3.9-11.8-2.3-16.3s7.2-17.2,4.5-21.8
		S991.6,466,991.6,466z"/>
	<path d="M993.4,481.7l-3,9.9c0,0-5.4-1.4-3.5-6.2C988.8,480.6,993.4,481.7,993.4,481.7z"/>
	<polygon points="992.3,496.4 997.4,497.9 995.8,486.2 	"/>
	<polyline class="st7" points="932.9,633 947.1,658.5 958.2,658.3 959,667.6 	"/>
	<line class="st9" x1="947.6" y1="664.1" x2="952" y2="665.3"/>
</g>
<path class="st5" d="M2245.6,425.2c7.3,17.8,15.4,227.3,26.8,239.2c7.7,8.1-15.4-112.4,3.8-138.4c3.7-5,11.6-1.5,10.4,4.6l-2.7,13.9
	c-1.2,6,6.6,9.5,10.4,4.8c7.1-9,16.4-25.1,26.2-53.5c20.7-60.7-22.6-129.3-62.3-155.9c-39.7-26.5-48-22.6-12.1,0.8
	c28.1,18.3,29.1,38.2,28.2,46.1c-0.3,2.2-1.7,4.1-3.8,4.8c-7.5,2.7-27.5,5.8-56.4-19c-37.2-31.8-91.2-38.9-95.4-35.7
	S2201.4,352,2245.6,425.2"/>
<g id="lady">
	<path d="M2004.5,228.7c0,0-2-4.7,0-3.2s5.3,7.2,5.3,7.2s-11.2,59-9.3,61.3c1.8,2.3,4.3,2.2,4.3,2.2l-1.6-4.3c0,0,8.1-9.5,15.9-7.8
		s28.2,6.7,28.6,7.8c0.4,1.2,0.1,5-1.6,6.3c0,0,3.2-1.5,3.8-4.7c0.7-3.2-1.5-7.8,0-13.5s1.8-25.8,1.8-25.8s4.3-2.5,4.3-6
		s-2.3-4.8-1.7-9.7c0.7-4.8,3.7-17.5,3.7-17.5s4-5.3,0.5-7.7s-9.5-6.2-12.7-3.7s-12.3,14-19.7,10.8c-7.3-3.2-8.5-4.2-8.5-4.2
		s-6.5,5.3-9,6s-6,3-6,3L2004.5,228.7z"/>
	<path class="st5" d="M2053,450.4c-0.8,3.3-2.5,18.3,3.5,25.3s14,14,16.8,14s4.3,4,1.8,4s-20.3,1.3-20.3,1.3s-2.3-14.8-5.8-13.3
		s0.3,13,0.3,13l-5.3,0.5c0,0,3.3-56.3,2.3-59.8s-7-7.3-5.8-16.3s8.3-16,6.3-19.8s-8.5-20.8-9-23.3s-6.3-40.5-6.3-40.5l-5.5-1.8
		l8.5,112.3l7.3,6.8l-15.5,0.5c0,0-6.3-109.8-7.8-112.8s-13.3-11.3-14.5-22.3s5.8-11.3,3.8-16s-4.5-10.5-4.5-10.5s6-10,18.3-7.5
		s26.3,7.5,26.3,7.5l-1.8,8.3l15.5,26.8l4.3,70.5L2053,450.4z"/>
	<path class="st6" d="M2006.3,228c0,0-5.6,3.9-5.6,5.5s4.6,25.3,4.6,25.3l2-12.6c0,0-2.5-7.5-1.5-7.6s3.4-1,3.4-1l0.7-4.8
		L2006.3,228z"/>
	<path class="st7" d="M2043.6,225c0,0-1.3-5.1,1-4.5s9,8.6,7.6,9.3s-2.8,1.1-2.8,1.1s1.8,2.3,3.3,1.8s5.4-11.6,5.4-11.6
		s4.3-5.4,0.5-7.7s-6.2-3.6-7.7-1.3s-8.6,8.9-8.6,8.9L2043.6,225z"/>
	<path class="st6" d="M2046.2,222c0,0,6.7,4.2,5,6.7s-8.8,11.3-8.8,13.2s8,26.2,7,28.8c-1,2.7-3.5,10.3-3.5,12.5s-0.3,7.2-1,7.3
		c-0.7,0.2-2.3-0.2-2.2-0.9s0.7-5.5-0.2-5.5s-4.2,6.6-5.3,6.1s0.8-3.6,0.8-3.6s-3.2,4.3-3.6,2.4s2.9-5.2,2.9-5.2s-3.9,3.9-4,2.7
		s11.2-13.6,11.1-15.4s-8.3-32.8-7.7-34.9C2037.2,234.3,2046.2,222,2046.2,222z"/>
	<path class="st8" d="M2057.1,177.3c-1-1.8-6.6-7.5-12.9-6s-9.5,6.9-10.3,12.3s-5,6.3-5.3,9s1,7.4-0.9,8.1s-22.2,11.9-3.5,20.6
		c11.2,5.2,18.9-9.8,22.2-10.3c10.7-1.7,11.8,3,13.3,2.2s-3.1-9.3-1.8-12.8s5.6-13.5,3.5-17.1S2057.1,177.3,2057.1,177.3z"/>
	<path d="M2058.5,189.6l-2.4,7.8c0,0-4.3-1.1-2.8-4.9S2058.5,189.6,2058.5,189.6z"/>
	<polygon points="2057.7,201.2 2061.7,202.3 2060.4,193.2 	"/>
	<polyline class="st7" points="2011,308.5 2022.1,328.5 2030.9,328.4 2031.5,335.6 	"/>
	<line class="st9" x1="2022.5" y1="332.9" x2="2026" y2="333.9"/>
</g>
<g id="grid">
	<line class="st10" x1="1256.9" y1="1844.3" x2="1256.9" y2="2514.5"/>
	<line class="st10" x1="1352.9" y1="1844.3" x2="1352.9" y2="2514.5"/>
	<line class="st10" x1="1448.9" y1="1845.3" x2="1448.9" y2="2515.5"/>
	<line class="st10" x1="1544.9" y1="1845.3" x2="1544.9" y2="2515.5"/>
	<line class="st10" x1="1655.9" y1="1843.4" x2="1655.9" y2="2513.6"/>
	<line class="st10" x1="1751.9" y1="1843.4" x2="1751.9" y2="2513.6"/>
	<line class="st10" x1="1847.9" y1="1844.3" x2="1847.9" y2="2514.5"/>
	<line class="st10" x1="1943.9" y1="1844.3" x2="1943.9" y2="2514.5"/>
	<line class="st10" x1="2057.9" y1="1845.3" x2="2057.9" y2="2515.5"/>
	<line class="st10" x1="2153.9" y1="1845.3" x2="2153.9" y2="2515.5"/>
	<line class="st10" x1="2249.9" y1="1846.2" x2="2249.9" y2="2516.4"/>
	<line class="st10" x1="2345.9" y1="1846.2" x2="2345.9" y2="2516.4"/>
	<g>
		<line class="st10" x1="1159.9" y1="2442.8" x2="2436.3" y2="2442.8"/>
		<line class="st10" x1="1159.9" y1="2351.8" x2="2436.3" y2="2351.8"/>
		<line class="st10" x1="1161.7" y1="2243.8" x2="2438.1" y2="2243.8"/>
		<line class="st10" x1="1161.7" y1="2152.9" x2="2438.1" y2="2152.9"/>
		<line class="st10" x1="1163.5" y1="2062" x2="2439.9" y2="2062"/>
		<line class="st10" x1="1163.5" y1="1971" x2="2439.9" y2="1971"/>
	</g>
</g>
<g id="EPSON020.TIF_1_" class="st11">
	
		<image style="display:inline;overflow:visible;enable-background:new    ;" width="3300" height="2550" id="EPSON020" xlink:href="B8503082.jpg"  transform="matrix(0.24 0 0 0.24 362 169)">
	</image>
</g>
<path d="M1593.5,457.5c0,0,36-31,68-18s24,30,44,26s32-16,32-28s-9.3-16-5.2-35.5c4.2-19.5,9.2-31.5-2.8-45.5s-43.2-21.8-43.2-21.8
	l-40.8-3.2l-45,46L1593.5,457.5z"/>
<rect x="1752.3" y="-191" width="145" height="145"/>
<rect x="2394.3" y="-191" class="st3" width="145" height="145"/>
<path class="st12" d="M643.5,483.5l-164,164c-2.3,2.3-6.2,2.3-8.5,0L77.7,254.3c-2.3-2.3-2.3-6.2,0-8.5l164-164
	c2.3-2.3,6.2-2.3,8.5,0L643.5,475C645.9,477.3,645.9,481.1,643.5,483.5z"/>
<rect x="1915.3" y="-191" class="st13" width="145" height="145"/>
<rect x="2075.3" y="-191" class="st14" width="145" height="145"/>
<rect x="292.1" y="134.3" class="st14" width="125.5" height="125.5"/>
<rect x="2235.3" y="-191" class="st15" width="145" height="145"/>
<linearGradient id="SVGID_1_" gradientUnits="userSpaceOnUse" x1="131.6996" y1="-347.0115" x2="538.7253" y2="-347.0115" gradientTransform="matrix(-0.6159 -0.7878 -0.7878 0.6159 1608.6816 925.3047)">
	<stop  offset="4.304897e-02" style="stop-color:#DAF2F1"/>
	<stop  offset="0.4366" style="stop-color:#D8F0EF"/>
	<stop  offset="0.5784" style="stop-color:#D3E9E8"/>
	<stop  offset="0.6795" style="stop-color:#C9DEDD"/>
	<stop  offset="0.7612" style="stop-color:#BACDCC"/>
	<stop  offset="0.8312" style="stop-color:#A8B7B6"/>
	<stop  offset="0.8931" style="stop-color:#919B9B"/>
	<stop  offset="0.9478" style="stop-color:#767C7C"/>
	<stop  offset="0.9977" style="stop-color:#585858"/>
	<stop  offset="1" style="stop-color:#565656"/>
</linearGradient>
<circle class="st16" cx="1675.6" cy="447.5" r="203.5"/>
<linearGradient id="SVGID_2_" gradientUnits="userSpaceOnUse" x1="1620.9629" y1="472.745" x2="1724.0371" y2="532.255" gradientTransform="matrix(1 0 0 -1 0 896)">
	<stop  offset="4.304888e-02" style="stop-color:#FFFFFF"/>
	<stop  offset="0.129" style="stop-color:#F2F2F2"/>
	<stop  offset="0.2886" style="stop-color:#CFCFCF"/>
	<stop  offset="0.5042" style="stop-color:#979797"/>
	<stop  offset="0.7645" style="stop-color:#4B4B4B"/>
	<stop  offset="1" style="stop-color:#000000"/>
</linearGradient>
<circle class="st17" cx="1672.5" cy="393.5" r="59.5"/>
<path d="M1537,454c13,19,67,15,76-11s-9-57.3,10-79.7c19-22.3,32.3-30,44.7-28.7C1680,336,1688,364,1712,352s5-41-9-43s-49-8-79,9
	s-18.5,53.1-58,69C1504,412,1537,454,1537,454z"/>
<path d="M1684.3,490.5c-4.5-4.7-10.4-7.8-16.8-8.9c-35.8-6.5-96.7-0.1-126.5,41.5c-33,46-70,141-56,153s278-64,286-77
	C1777.8,588,1706.3,513.1,1684.3,490.5z"/>
<polygon class="st6" points="1716.5,728.8 1601,708.2 1753.6,660 1880.2,661.6 "/>
<polygon class="st18" points="1729.5,707 1614,686.4 1766.6,638.2 1893.2,639.8 "/>
<path class="st0" d="M1883.2,488.3l-151.6,38.3c-4,1-6.7,4.6-6.6,8.7l4.2,159.1c0.2,6.1,6.4,10.2,12,7.9l148.8-59.5
	c3.4-1.3,5.5-4.6,5.5-8.2l-1.4-137.9C1894,491,1888.7,486.9,1883.2,488.3z"/>
<polygon class="st18" points="2187.5,1127.3 2072,1106.7 2224.6,1058.5 2351.2,1060.1 "/>
<path class="st0" d="M2341.2,908.6l-151.6,38.3c-4,1-6.7,4.6-6.6,8.7l4.2,159.1c0.2,6.1,6.4,10.2,12,7.9l148.8-59.5
	c3.4-1.3,5.5-4.6,5.5-8.2l-1.4-137.9C2352,911.3,2346.7,907.2,2341.2,908.6z"/>
<linearGradient id="SVGID_3_" gradientUnits="userSpaceOnUse" x1="1516.5156" y1="201.0579" x2="1647.9327" y2="276.9315" gradientTransform="matrix(1 0 0 -1 0 896)">
	<stop  offset="0" style="stop-color:#565656"/>
	<stop  offset="4.275536e-04" style="stop-color:#585858"/>
	<stop  offset="9.847346e-03" style="stop-color:#767C7C"/>
	<stop  offset="2.014618e-02" style="stop-color:#919B9B"/>
	<stop  offset="3.182800e-02" style="stop-color:#A8B7B6"/>
	<stop  offset="4.502256e-02" style="stop-color:#BACDCC"/>
	<stop  offset="6.042637e-02" style="stop-color:#C9DEDD"/>
	<stop  offset="7.947854e-02" style="stop-color:#D3E9E8"/>
	<stop  offset="0.1062" style="stop-color:#D8F0EF"/>
	<stop  offset="0.1804" style="stop-color:#DAF2F1"/>
</linearGradient>
<path class="st19" d="M1515,630c0,0-21,10-18,28s21,20,31,17s32-37,65-31c16.5,3,51,19,56,24s32,11,22.5-8s-51.5-51-106.5-45
	C1531.5,618.7,1515,630,1515,630z"/>
<linearGradient id="SVGID_4_" gradientUnits="userSpaceOnUse" x1="1522.453" y1="814.2913" x2="1707.3772" y2="707.5252" gradientTransform="matrix(1 0 0 -1 0 896)">
	<stop  offset="4.304897e-02" style="stop-color:#DAF2F1"/>
	<stop  offset="0.4366" style="stop-color:#D8F0EF"/>
	<stop  offset="0.5784" style="stop-color:#D3E9E8"/>
	<stop  offset="0.6795" style="stop-color:#C9DEDD"/>
	<stop  offset="0.7612" style="stop-color:#BACDCC"/>
	<stop  offset="0.8312" style="stop-color:#A8B7B6"/>
	<stop  offset="0.8931" style="stop-color:#919B9B"/>
	<stop  offset="0.9478" style="stop-color:#767C7C"/>
	<stop  offset="0.9977" style="stop-color:#585858"/>
	<stop  offset="1" style="stop-color:#565656"/>
</linearGradient>
<path class="st20" d="M1540.8,50c-10.2,14.3,49.7,31,52.8,55.9s0,59-9.3,49.7s0-18.6,12.4-12.4s43.5,43.5,80.7,43.5
	c37.3,0,77.6-62.1,46.6-65.2s-24.8,71.4-55.9,46.6s-90-77.6-108.6-27.9s27.9,55.9,37.3,49.7s59-52.8,31-86.9
	C1599.8,68.6,1556.3,28.2,1540.8,50z"/>
<linearGradient id="SVGID_5_" gradientUnits="userSpaceOnUse" x1="2384.9895" y1="485.4007" x2="2424.8333" y2="508.4046" gradientTransform="matrix(-0.9048 -0.4258 0.4258 -0.9048 4206.1895 1836.3556)">
	<stop  offset="4.304888e-02" style="stop-color:#FFFFFF"/>
	<stop  offset="0.129" style="stop-color:#F2F2F2"/>
	<stop  offset="0.2886" style="stop-color:#CFCFCF"/>
	<stop  offset="0.5042" style="stop-color:#979797"/>
	<stop  offset="0.7645" style="stop-color:#4B4B4B"/>
	<stop  offset="1" style="stop-color:#000000"/>
</linearGradient>
<circle class="st21" cx="2241.8" cy="362.6" r="23"/>
<path class="st12" d="M2040.7,731.5c6,3.8,37.9,2.2,44.3,3.3c6.4,1.1,2.3,7.7,8.3,7.5s1.5-7.2,8.8-8.9c7.3-1.7,42.8-1.2,49-5.7
	s5.4-10.3,1.1-10.6c-4.3-0.3-3,3.3-6,7.6c-3,4.4-42.8,2.7-46.7,3c-2.1,0.2-3.9,1.7-5.1,3c-0.9,0.9-2.8,1.1-4,0.3
	c-1.6-1.1-3.7-2.4-5.3-3c-3-1.1-32.8-1.1-40.7-0.9c-7.9,0.1-7.4-11.9-12.2-9.8C2026.6,719.7,2034.5,727.8,2040.7,731.5z"/>
<path class="st3" d="M362.4,148.8c-3.4,4.1,15.8,3.7,15.5,10.5s-0.2,32.4,1.5,34.9c0.9,1.4,3,3.2,4.8,4.6c1.3,1,1,2.7-0.6,3.4
	c-2.1,1-4.5,2.5-4.8,4.3c-0.5,3.3,2.2,37.5-4.7,40.1s-12.6,1.5-12.1,5.1c0.5,3.7,9.6,4.4,16.7-0.9c7.1-5.3,6.4-35.8,9.1-42.1
	s13.8-2.4,14-7.5s-10.1-1.7-11.8-7.2c-1.7-5.5,0.7-32.9-5.2-38.1S366.3,144,362.4,148.8z"/>
<path class="st12" d="M2356.3,72.2l-164,164c-2.3,2.3-6.2,2.3-8.5,0l0,0c-2.3-2.3-2.3-6.2,0-8.5l164-164c2.3-2.3,6.2-2.3,8.5,0l0,0
	C2358.6,66.1,2358.6,69.9,2356.3,72.2z"/>
<path class="st12" d="M310.4,154.2V244c0,2.9,2.3,5.2,5.2,5.2l0,0c2.9,0,5.2-2.3,5.2-5.2v-89.7c0-2.9-2.3-5.2-5.2-5.2l0,0
	C312.7,149.1,310.4,151.4,310.4,154.2z"/>
<path class="st22" d="M1010.6,182.1L891.1,62.6c-0.9-0.9-0.9-2.3,0-3.2l0,0c0.9-0.9,2.3-0.9,3.2,0l119.5,119.5
	c0.9,0.9,0.9,2.3,0,3.2l0,0C1013,183,1011.5,183,1010.6,182.1z"/>
<circle class="st12" cx="2420" cy="256" r="16"/>
<circle class="st12" cx="1436.5" cy="482.5" r="11.5"/>
<circle class="st12" cx="892.5" cy="100.5" r="11.5"/>
<circle class="st12" cx="354" cy="178.9" r="10"/>
<circle class="st12" cx="2272.4" cy="1180.7" r="16"/>
<g>
	<path class="st12" d="M2373.1,688.5L2373.1,688.5c-1,0.8-1.1,2.2-0.3,3.2l52.3,63.6c0.8,1,2.2,1.1,3.2,0.3l0,0
		c1-0.8,1.1-2.2,0.3-3.2l-52.3-63.6C2375.5,687.8,2374,687.7,2373.1,688.5z"/>
	<path class="st12" d="M2375,688L2375,688c-1.1-0.6-2.5-0.1-3.1,1l-38,73.1c-0.6,1.1-0.1,2.5,1,3.1l0,0c1.1,0.6,2.5,0.1,3.1-1
		l38-73.1C2376.6,690,2376.2,688.6,2375,688z"/>
</g>
<g>
	<path class="st12" d="M1401.3,159.5l60.1,56.3c0.9,0.9,2.4,0.8,3.2-0.1l0,0c0.9-0.9,0.8-2.4-0.1-3.2l-60.1-56.3
		c-0.9-0.9-2.4-0.8-3.2,0.1l0,0C1400.3,157.1,1400.4,158.6,1401.3,159.5z"/>
	<path class="st12" d="M1403.7,159.4l75.4-33.2c1.2-0.5,1.7-1.9,1.2-3l0,0c-0.5-1.2-1.9-1.7-3-1.2l-75.4,33.2
		c-1.2,0.5-1.7,1.9-1.2,3l0,0C1401.1,159.3,1402.5,159.9,1403.7,159.4z"/>
</g>
<g>
	<path class="st23" d="M945.3,78.5l60.1,56.3c0.9,0.9,2.4,0.8,3.2-0.1l0,0c0.9-0.9,0.8-2.4-0.1-3.2l-60.1-56.3
		c-0.9-0.9-2.4-0.8-3.2,0.1l0,0C944.3,76.1,944.4,77.6,945.3,78.5z"/>
	<path class="st23" d="M947.7,78.4l75.4-33.2c1.2-0.5,1.7-1.9,1.2-3l0,0c-0.5-1.2-1.9-1.7-3-1.2l-75.4,33.2c-1.2,0.5-1.7,1.9-1.2,3
		l0,0C945.1,78.3,946.5,78.9,947.7,78.4z"/>
</g>
<linearGradient id="SVGID_6_" gradientUnits="userSpaceOnUse" x1="2765.1914" y1="188.7227" x2="2790.0481" y2="188.7227" gradientTransform="matrix(-1 0 0 -1 4762.623 896)">
	<stop  offset="4.304897e-02" style="stop-color:#DAF2F1"/>
	<stop  offset="0.4366" style="stop-color:#D8F0EF"/>
	<stop  offset="0.5784" style="stop-color:#D3E9E8"/>
	<stop  offset="0.6795" style="stop-color:#C9DEDD"/>
	<stop  offset="0.7612" style="stop-color:#BACDCC"/>
	<stop  offset="0.8312" style="stop-color:#A8B7B6"/>
	<stop  offset="0.8931" style="stop-color:#919B9B"/>
	<stop  offset="0.9478" style="stop-color:#767C7C"/>
	<stop  offset="0.9977" style="stop-color:#585858"/>
	<stop  offset="1" style="stop-color:#565656"/>
</linearGradient>
<path class="st24" d="M1972.6,711.6c0,22.1,21.3,21.7,20.9,17.7c-0.3-4.1-8.9-6.3-10.1-11.7c-1.3-5.5,14.4-10.8,14-22.2
	c-0.3-11.4-11.8-13.1-15.6-12.1C1976.5,684.8,1972.6,689.6,1972.6,711.6z"/>
<circle class="st25" cx="2040.2" cy="670.3" r="22"/>
<circle class="st26" cx="2138.4" cy="663.9" r="23"/>
<g>
	<path d="M155.3,825.1c0-0.9,0-2.6,1.7-2.6v-1.7h-1.7V825.1z"/>
	<path d="M166.6,825.1c0-1.2,0-3.6,1.7-3.6v-2.4h-1.7V825.1z"/>
	<path d="M177.8,824.3c0-1.2,0-3.6,3.5-3.6v-2.4h-3.5V824.3z"/>
	<path d="M191.7,821.7c0-1.6,0-4.7,3.5-4.7v-3.1h-3.5V821.7z"/>
	<polygon class="st27" points="150.5,820.5 150.1,826 155.3,826 155.3,821.2 160.5,821.2 160.5,826 166.6,826 166.6,819.3 
		170.9,819.3 170.9,825 177.8,825 177.8,818.3 185.6,818.3 185.6,822.2 191.7,822.2 191.7,814.5 195.1,812.5 195.1,817.3 
		200.3,817.3 201.2,808.7 184.7,814.5 157,818.3 	"/>
	<path class="st28" d="M201.2,812.1c2.6-3.5,16.4-20.8,19-21.6c2.6-0.9,12.1-6.1,12.1-6.9c0-0.9-0.9-4.3,1.7-3.5s6.1,2.6,13-3.5
		s6.9-6.9,8.7-6.9c1.7,0,2.6-13,2.6-13s-7.8-21.6-9.5-25.1s-3.5-14.7-0.9-23.4s8.7-31.2,6.9-35.5c-1.7-4.3-10.4-11.3-15.6-13.9
		c-5.2-2.6-47.6,13.9-45,21.6c2.6,7.8,10,23.8,11.7,31.6s3.5,25.1-3.5,39.8c-6.9,14.7-29.4,52.8-36.4,57.1
		c-6.9,4.3-18.6,4.8-18.6,9.1s8.7,2.6,14.7,2.6c7,0,22.8-1,25.5-1.3C191.7,819.1,201.2,812.1,201.2,812.1z"/>
	<path class="st29" d="M208.5,778.8c0,0,26.8-31.2,32-48.5s10.4-39,11.3-47.6c0.9-8.7-0.9-9.5-0.9-9.5s-5.2,47.6-15.6,62.3
		c-10.4,14.7-17.3,21.6-17.3,21.6s4.3-26.8,1.7-36.4c-2.6-9.5-4.3-9.5-4.3-9.5s0,36.4-2.6,48.5S208.5,778.8,208.5,778.8z"/>
	<path class="st30" d="M242.3,701.8c0,0,11.3-17.3,8.7-24.2s-9.5-15.6-9.5-15.6L242.3,701.8z"/>
	<path class="st31" d="M196.4,687.3c0,0,0.9,21.4,5.2,21.4s7.8-0.9,10.4,0.9c2.6,1.7,3.5,1.7,3.5,1.7s0.9-8.7-7.8-14.7
		C199,690.5,196.4,687.3,196.4,687.3z"/>
	<path class="st32" d="M227.2,739.4c0,0,6.9-6.1,12.1-20.8c5.2-14.7,8.7-26.5,8.7-26.5l-19,33.5c0,0-3.8-8.9-8.7-12.1
		c-2.6-1.7-4.3-2.6-4.3-2.6c0.1,0,4.4,2.6,6.9,8.7C225.4,725.6,227.2,739.4,227.2,739.4z"/>
	<path class="st33" d="M218.1,756.7c0,0,18.3-20.2,19.3-23.5s6.2-14.3,6.2-16.6s5.8-24,5.1-24.8l-21.1,46.3c0,0-0.9-18.2-6.1-22.5
		c-5.2-4.3-6.1-4.3-6.1-4.3s6.6,8.7,5.5,18.2C219.8,739,218.1,756.7,218.1,756.7z"/>
	<path class="st34" d="M206.2,713.7c0,0,4.1,3.7,9.3,2.8s30.3-6.9,32-8.7l-1.7,7.8c0,0-25.5,7.8-30.1,7.4s-8.9-3-8.9-3L206.2,713.7z
		"/>
	<path class="st35" d="M162.7,815.2c-3.5,0.9-7.8,0.9-5.2,1.7c2.6,0.9,2.6,0.9,2.6,0.9s27.7,0,30.3-1.7s5.2-5.2,5.2-5.2
		s-1.7,3.5-8.7,4.3C180,816,162.7,815.2,162.7,815.2z"/>
	<path class="st35" d="M241.4,732.1c0,0,4.3,18.2-2.6,27.7c-6.9,9.5-6.9,12.1-5.2,13.9s13.9-16.4,13.9-25.1
		C247.5,739.9,241.4,732.1,241.4,732.1z"/>
	<path class="st36" d="M174.8,794.4c0,0,4.2-7.8,8.1-14.5c3-5.2,5.9-9.7,6.6-9.7c1.7,0,14.7,2.6,19,8.7c4.3,6.1,9.1,14.1,9.1,14.1
		l-14.9,18.2c0,0,0.6-7.1-14.1-11.5C173.9,795.3,174.8,794.4,174.8,794.4z"/>
	<path class="st37" d="M223.7,715c-2.2,0.6-2.6,1.9-0.9,4.5c1.7,2.6,20.8-4.5,20.8-4.5l-1.7-5.2L223.7,715z"/>
	<circle class="st38" cx="225.4" cy="716.9" r="1.3"/>
	<path class="st27" d="M233.2,779.9c0,0,3.2,0.7,5.9,0.8s18.5-18.2,18.5-18.2l0.6-4.9l-0.9,17.9L253,780c0,0-3.5-1.8-4.3-0.9
		c-0.9,0.9-4.3,6.3-6.9,6.3s-4.3-1.8-4.3-1.8s-0.9,0-2.6,0c-1.7,0-3.5,0.9-3.5,0.9s0-4.5,0.9-4.5
		C233.2,779.9,233.2,779.9,233.2,779.9z"/>
	<path class="st29" d="M175.3,793.5l3.1-5.8c0,0,4.7,1.1,5.5,1.9l-3.5,6.1L175.3,793.5z"/>
	<path class="st29" d="M179.6,785.7l3.1-5.8c0,0,4.7,1.1,5.5,1.9l-3.5,6.1L179.6,785.7z"/>
	<path class="st29" d="M183.9,778.4l4-6.3c0,0,4.7,1.1,5.5,1.9l-3.5,6.1L183.9,778.4z"/>
	<path class="st29" d="M196,800.9c1.7,0.9,4.3,1.7,4.3,2.6l4.3-5.2l-4.3-4.3L196,800.9z"/>
	<polygon class="st29" points="201.2,793.1 205.5,797.4 209,793.1 204.6,786.2 	"/>
	<polygon class="st29" points="205.5,784.4 208.1,779.3 213.3,787 209.8,792.2 	"/>
	<polyline class="st39" points="181.3,795.7 186.5,797.4 189.9,791.4 184.7,788.8 181.3,795.7 	"/>
	<path class="st40" d="M473,699.6c0,0-1.7,32-0.9,32.9c0.9,0.9,53.7,57.1,56.3,58.9s24.2,13.9,26.8,14.7s3.9,1.3,4.8,2.2
		s0.9,4.3,0.9,4.3s-4.3,1.7-6.9,2.6c-2.6,0.9-48.5-5.2-49.3-5.2s-3.5-0.9-4.3-3.5s-3.5-3.5-4.3-4.3s-26-19-26-19s-0.9-3.5-4.3-2.6
		c-3.5,0.9-6.1,1.7-7.8,0.9s-17.3-8.7-19-13.9s0-16.4,0.9-22.5s3.5-16.4,0.9-23.4c-2.6-6.9-8.7-21.6-15.6-30.3l-3.5-4.3
		c0,0,0-11.3,4.3-14.7c4.3-3.5,12.4-3.7,12.4-3.7l35.2,19.3C473.5,687.9,472.6,699.2,473,699.6z"/>
	<path class="st41" d="M504.6,797.9c0,0-1.7,3.5,0.9,5.2s45,7.8,44.2,6.1s-26-19-32-23.4c-6.1-4.3-21.6-15.6-26.8-23.4
		c-5.2-7.8-14.7-20.8-13.9-17.3s8.7,25.1,6.9,24.2s-12.1-19-13-25.1s0.9-9.5,0.9-12.1c0,0-5.2,6.1-3.5,12.1s16.4,32,16.4,32
		s2.6,9.5-3.5,8.7C475.2,784,504.6,797.9,504.6,797.9z"/>
	<path class="st41" d="M448.3,743.3c0,0,21.6,26,24.2,28.6s3.5,6.9,0.9,6.9s-10.4,0.9-13-2.6s-1.7-13-7.8-22.5
		c-6.1-9.5-10.4-18.2-12.1-25.1c-1.7-6.9-3.5-11.3-3.5-11.3s6.9,13.9,8.7,18.2C447.5,739.9,448.3,743.3,448.3,743.3z"/>
	<path class="st42" d="M479.5,772.8c0,0-17.3-32.9-19-45.9s-3.8-15.9-1.4-18.3s11.8-11.1,16.2-10.2c4.3,0.9,6.9-4.3,6.1-5.2
		c-0.9-0.9-0.9-13-0.9-13s-13.6,17.3-17.6,22.1s-6.9,7.1-6.3,9.8s2.3,22.7,6.6,33c4.3,10.4,5.2,13,5.2,13s-9.1-5.6-16-18.6
		s-13.7-23.1-13.7-23.1s4.6,25.3,20.2,40.8S479.5,772.8,479.5,772.8z"/>
	<path class="st43" d="M461.3,703.8c0,0,8.4-5.8,10.7-4.8c2.3,1,11.8-1.6,11-6.8s-2-13.4-2-13.4L461.3,703.8z"/>
	<path class="st44" d="M437.1,668.9c0,0-9.5,0.9-7.8,7.8c1.7,6.9,24.2,53.7,24.2,53.7s0.6-15,2.9-18.3s0,0,0,0s-12.1-8.8-13.1-11.3
		C442.3,698.3,437.1,668.9,437.1,668.9z"/>
	<path class="st45" d="M422.2,687.5l7.1-10l24.2,53.7c0,0-0.9-15.6,2.6-18.2c0,0,6.8,37.5,14.3,48c0,0-13.7-10.5-22.2-27.1
		s-14.3-29.3-17-32.5C428.4,698.3,422.2,687.5,422.2,687.5z"/>
	<path class="st46" d="M463.9,712.2c5.1-0.9,9.5-2.6,9.5-2.6s0.9,6.1-0.9,6.9c-1.7,0.9-24.2,5.2-34.6,0c0,0-5.2-7.8-4.3-7.8
		S454.4,713.9,463.9,712.2z"/>
	<path class="st47" d="M433.6,709.6l3.5,6.9c0,0,15.6,3.5,17.3,1.7c1.7-1.7,1.7-5.2-3-6.1S433.6,709.6,433.6,709.6z"/>
	<circle class="st48" cx="450.1" cy="715.6" r="1.7"/>
	<path class="st23" d="M479.5,778.8c0,0,10.4-13.9,15.6-15.6c5.2-1.7,7.8,0,7.8,0l17.3,18.2c0,0-5.2-1.7-6.1,0s-17.3,18.2-16.4,21.6
		l1.9,2.2l-24.1-17.7L479.5,778.8z"/>
	<path class="st49" d="M326.3,452.4c0,0-4.3,5.2-3.5,8.7c0.9,3.5,4.3,29.4,6.1,32.9c1.7,3.5,4.3,9.5,4.3,9.5s-6.1-2.6-7.8-2.6
		s-3.5-6.9-2.6-10.4s-6.1-26-5.2-30.3s0-8.7,3.5-7.8C324.5,453.3,326.3,452.4,326.3,452.4z"/>
	<path class="st50" d="M243.2,694.8c0,0,2.6-7.8,1.7-8.7c-0.9-0.9-1.7-24.2-2.6-39s-3.5-35.5-6.1-42.4s-16.4-21.6-19-24.2
		s-12.1-16.4-11.3-22.5c0.9-6.1,0.9-8.7,4.3-9.5c3.5-0.9,2.6-5.2,6.9-6.1s13-6.9,13.9-8.7c0.9-1.7,14.7-6.1,18.2-8.7
		s1.7-6.9,6.9-7.8c5.2-0.9,17.3-2.6,17.3-5.2s7.8-10.4,10.4-11.3s26.8-8.7,28.6-9.5c1.7-0.9,8.7-10.4,12.1-9.5
		c3.5,0.9,23.4,5.2,33.8,9.5s30.3,14.7,31.2,18.2s6.9,0,9.5,5.2s0.9,13.9,4.3,16.4c3.5,2.6,13,6.9,15.6,13s6.1,10.4,6.1,10.4
		l6.1,7.8c0,0-3.5-15.6-11.3-23.4c-7.8-7.8-13.9-8.7-14.7-15.6c-0.9-6.9-15.6-20.8-25.1-26s-44.2-18.2-49.3-19
		c-5.2-0.9-13,2.6-17.3,6.1s-11.3,6.9-16.4,7.8c-5.2,0.9-18.2,6.9-21.6,9.5c-3.5,2.6-5.2,6.1-10.4,7.8c-5.2,1.7-6.9,2.6-10.4,5.2
		s-5.2,5.2-8.7,6.9s-6.9,0-9.5,3.5s-9.5,11.3-14.7,12.1s-9.5,3.5-11.3,5.2c-1.7,1.7-6.1,4.3-7.8,6.1c-1.7,1.7-4.3,6.1-2.6,8.7
		c1.7,2.6-0.9,8.7,14.7,24.2s19,30.3,20.8,35.5C237.1,622.1,243.2,694.8,243.2,694.8z"/>
	<path class="st51" d="M154.9,567.6c0,0,30.3,23.4,41.6,24.2s25.1-1.7,26.8-2.6c1.7-0.9-0.9-5.2-0.9-5.2s-10.4,5.2-23.4,1.7
		C186,582.3,154.9,567.6,154.9,567.6z"/>
	<path class="st52" d="M491.6,515.6c0,0-1.7,5.2,0.9,9.5s6.1,6.1,6.1,6.1s0-9.5-0.9-10.4C496.8,520,491.6,515.6,491.6,515.6z"/>
	<path class="st53" d="M485.6,512.2c0,0-9.5,7.8-5.2,16.4c4.3,8.7,13.9,15.6,16.4,13.9c2.6-1.7,1.7-11.3,1.7-11.3s-4.3-0.9-6.1-6.1
		s-0.9-9.5-0.9-9.5L485.6,512.2z"/>
	<path class="st54" d="M481.2,508.7c0,0-9.5,4.3-7.8,13.9c1.7,9.5,6.9,22.5,13,25.1s6.1,0.9,6.1,0.9l4.3-2.6v-3.5
		c0,0-10-2.6-13.6-9.1c-3.7-6.5-2.8-16,0.2-19C486.4,511.3,481.2,508.7,481.2,508.7z"/>
	<path class="st55" d="M473.5,503.5c0,0-15.6,6.9-12.1,20.8c3.5,13.9,6.9,22.5,13,26s9.5,4.3,9.5,4.3l7.6-5.4c0,0-5.8,0.2-10.2-7.6
		c-4.3-7.8-10.4-20.3-8.2-23.2c2.2-2.8,8.2-9.7,8.2-9.7L473.5,503.5z"/>
	<path class="st56" d="M463.1,494.9c-2.6,3.5-7.8,2.6-7.8,5.2s1.7,4.3-0.9,6.9s-6.1,5.2-5.2,6.9s-4.3,5.2-2.6,6.9
		c1.7,1.7,4.3,6.1,3.5,6.9s-1.7,4.3,0,6.1c1.7,1.7,2.6,0.9,2.6,4.3s0,4.3,2.6,5.2s1.7,0,2.6,3.5s-0.9,4.3,1.7,5.2s1.7-1.7,2.6,1.7
		s0,5.2,3.5,6.1c3.5,0.9,3.5-0.9,5.2,1.7c1.7,2.6,0,3.5,3.5,2.6s4.3-4.3,6.1-2.6c1.7,1.7,3.5-6.9,3.5-6.9s-13.9-5.2-18.2-18.2
		c-4.3-13-6.9-19.9-0.9-25.1c6.1-5.2,8.7-7.8,8.7-7.8s-4.3-6.1-6.1-8.7C465.7,492.3,463.1,494.9,463.1,494.9z"/>
	<path class="st22" d="M324.5,500.9c-3.5,0-3.5,6.1-6.9,6.9s-9.5,2.6-12.1,5.2c-2.6,2.6-6.9,8.7-9.5,8.7s-7.8,0-9.5,1.7
		s-6.1,3.5-6.9,5.2c-0.9,1.7-3.5,3.5-6.1,3.5s-2.6,5.2-5.2,6.1s-6.9,0-10.4,1.7s-11.3,11.3-14.7,12.1s-6.9,6.9-11.3,7.8
		s-14.7-1.7-18.2,1.7s-0.9,8.7,3.5,14.7s16.4,25.1,19,41.6c2.6,16.4,7.4,80.6,6.9,83.1c-0.4,2.2-5.6,9.1-6.5,10s-12.1,3.5-12.1,3.5
		s-6.5-5.6-10.8-10.8s-17.3-13.9-18.2-17.3c-0.9-3.5,0-5.2,0-5.2s-7.8-5.2-9.5-8.7s-24.2-64.9-25.1-69.3c-0.9-4.3-6.1-27.7-7.8-29.4
		s-13.9-21.6-14.7-27.7c-0.9-6.1-3.5-26,4.3-27.7s39-15.6,45-21.6c6.1-6.1,13-13,17.3-14.7s7.8-0.9,8.7-1.7s3.5-4.3,7.8-4.3
		s13.9-9.5,17.3-9.5s-0.9-4.3,1.7-6.1c2.6-1.7,6.1-6.9,10.4-8.7s6.9-6.9,7.8-8.7s6.1-6.9,7.8-5.2c1.7,1.7,2.6-3.5,3.5-3.5
		s48.5,15.6,56.3,13.9s28.6-1.7,34.6-3.5c6.1-1.7,13.9-2.6,13.9-2.6s3.5-0.9,4.3,0.9s5.2,2.6,6.1,2.6s5.2,2.6,5.2,2.6
		s4.3,1.7,5.2,3.5s12.1,5.2,12.1,5.2s6.1-0.9,8.7,0.9s4.3,6.9,6.1,8.7c1.7,1.7,12.1,11.3,19,14.7c6.9,3.5,13.9,9.5,15.6,12.1
		s39,22.5,40.7,27.7c1.7,5.2-2.6,58-5.2,68.4s-9.5,86.6-12.1,90c-2.6,3.5-8.9,11.4-13.4,17.7c-4.3,6.1-10.4,14.7-10.4,14.7
		s-8.7-4.3-11.3-4.3c-2.6,0-8.2-41.1-8.2-45.5s-5.2-77.9-4.3-81.4c0.9-3.5,0-13.9-2.6-18.2s-9.5-13.9-13-14.7s-26-11.3-28.6-15.6
		s-2.6-9.5-6.1-12.1s-32.9-13.9-34.6-13s-17.3-3.5-18.2-5.2C328.9,500.1,324.5,500.9,324.5,500.9z"/>
	<path class="st57" d="M267.4,442.1c-0.8,3,14.7,17.3,34.6,24.2c19.9,6.9,19,10.4,18.2,12.1c-0.9,1.7-113.4,2.6-116,11.3
		s0,9.5,4.3,9.5s0-6.9,41.6-8.7s51.1-3.5,45,0s-16.4,5.2-14.7,7.8c1.7,2.6,5.2,5.2,0.9,6.1c-4.3,0.9-19,0.9-16.4,4.3
		c2.6,3.5,8.7,5.2,8.7,5.2s-15.6,0-12.1,3.5s20.8,2.6,19,4.3c-1.7,1.7-62.3-3.5-62.3-3.5s31.2,3.5,29.4,5.2
		c-1.7,1.7-13.9,6.9-13.9,8.7c0,1.7-3.5,4.3-5.2,2.6s2.6-10.4-6.9-9.5s-14.7-3.5-19-0.9s20.8,13.9,13,15.6
		c-7.8,1.7-27.7-12.1-27.7-6.1c0,6.1,6.9,8.7,4.3,12.1s-27.7,0-26,4.3s20.8,12.1,16.4,13.9s-27.7-9.5-25.1-4.3
		c2.6,5.2,31.2,19.9,35.5,20.8s-26-5.2-32.9-10.4s-10.4-3.5-10.4-3.5s27.7,91.8,47.6,107.3s23.4,17.3,25.1,14.7
		c1.7-2.6-50.2-90.9-50.2-90.9s51.1,89.2,55.4,90.9c4.3,1.7-30.3-75.3-30.3-75.3s32.9,70.1,38.1,71.9c5.2,1.7-0.9-58-0.9-58
		s5.2-16.4-14.3-45.9c-19.5-29.4,6.5-19,11.7-21.6s6.1-6.1,9.1-6.5s12.6-11.7,16.9-13.4s6.9,1.7,10.4-1.7c3.5-3.5,2.6-6.1,5.2-6.1
		s3.9-0.4,5-1.9s5-4.1,7.8-5.8s8-2.6,9.7-2.6s8.7-10,12.1-10.6c3.5-0.6,10-1.9,10.6-3.5s1.5-6.7,5.8-6.7s17.3,6.1,21.6,6.1
		c4.3,0,34.6,9.5,36.4,13s4.3,10.4,6.1,12.1c1.7,1.7,26.4,13,29.7,16c3.2,3,14.5,15.2,14.5,20.3c0,5.2,4.3,100.9,7.4,116.2
		c3,15.4,7.4,21.4,10.8,21.4s37.2-153.2,39-148.9c1.7,4.3-22.5,113.4-19.9,114.3c2.6,0.9,27.1-125.1,27.1-125.1
		s-56.5,38.5-56.5,30.7s18.2-32,16.4-39c-1.7-6.9-39-1.7-44.2-6.1c-5.2-4.3-6.9-10.4-4.3-10.4s38.1,2.6,37.2,0s-7.8-9.5-41.6-6.1
		c-33.8,3.5-16.4-18.2-16.4-18.2s11.3-8.7-8.7-13c-19.9-4.3-33.8-4.3-31.2-6.9c2.6-2.6,58.9,1.7,61.5-0.9s-51.1-5.2-62.3-6.1
		c-11.3-0.9-11.3-3.5,0-4.3c11.3-0.9,72.7,3.5,71,0.9s-60.6-7.8-68.4-6.9s46.7-3.5,47.6-3.5s-3.5-6.1-15.6-4.3
		c-12.1,1.7-48.5,7.8-47.6,2.6c0.9-5.2,38.1-6.1,39.8-8.7c1.7-2.6-26.8,2.6-38.1,4.3c-11.3,1.7-11.3,2.6-13.9,1.7s-6.1,3.5-5.2,6.1
		s0,6.9-3.5,3.5c-3.5-3.5-35.5-24.2-33.8-22.5s32,22.5,29.4,22.5S268.3,438.6,267.4,442.1z"/>
	<path class="st23" d="M500.6,807.1l1.8,6h3.5c0,0,0.9-2.6,1.7-1.7s3.5,3.5,3.5,3.5h7.8c0,0-1.7-0.9,0.9-0.9c2.6,0,7.8,0.9,7.8,0.9
		s0.9,2.6,1.7,2.6s9.5-0.9,9.5,0s9.5,0.9,9.5,0.9l12.1-0.9c0,0,0.2-5.4,0.5-5.3s-38.6-0.8-43.8-1.6
		C512,809.6,500.6,807.1,500.6,807.1z"/>
	<path class="st23" d="M438.1,758.3c0,0,1.2,19.3,2.1,20.1s5.2,1.7,5.2,1.7s0-1.7,0.9-1.7s2.6,3.5,2.6,3.5s6.9,3.5,9.5,3.5
		s5.2-3.5,8.7-2.6s3.5,0.9,3.5,0.9s-0.9-5.2-6.1-5.2s-22.7-5.4-24.3-8.8C438.4,766.3,438.1,758.3,438.1,758.3z"/>
</g>
<path class="st23" d="M374.3,441.6c0,0,23.4-90.9,28.6-84s42.4,109.1,34.6,110.8s-63.2,0.9-77,14.7s-26,41.6-17.3,47.6
	c8.7,6.1,32-38.1,48.5-38.1s80.5-0.9,83.1-18.2c2.6-17.3-22.5-153.2-56.3-158.4s-142-40.7-154.1-39s-84.8,204.3-103,213
	S125,515.2,125,523.9s8.7,22.5,13,21.6s-5.6-20.3,3.9-24.7s39-13.9,45.9-24.2c6.9-10.4,69.3-172.3,74.5-168.8s19.9,85.7,13.9,96.1
	s-7.8,16.4-7.8,16.4s55.4,15.6,63.6,12.1C340.1,449,374.3,441.6,374.3,441.6z"/>
<g>
	<path class="st58" d="M833.5,195.5c-2,10-11,63-23,76s-21,28-13,36s82,29,82,29s-8-7-6-11s6-8,6-8s-67-20-66-23s29-31,31-36
		s17-43,7-55S833.5,195.5,833.5,195.5z"/>
	<path class="st59" d="M875,206c0,0,75,21,79,34s2,18,4,23s77.5,133.5,87.5,214.5s-5,126-15,131s-18,9-19,16s-13,24-34,25
		s-31,0-30,4s6,1,8,8s-13,21-34,34s-22,46-22,46s-16-21-3-42s-6-27-10-33s-3-11-5-14s-8-9-11-8s7.5,9.5,7.5,9.5s-4.5,3.5-12.5-4.5
		s-1-16-16-27s-32-19-32-40s38-71,35-126s-6-193-6-193s-8.6-45.6-0.5-59.4c1.9-3.2,4.6-4.7,8.5-3.6C875.5,206.5,875,206,875,206z"/>
	<path class="st60" d="M836.5,200.5l-14-37l16.8,30.2c0,0,3.2,2.8,0.2,5.8S836.5,200.5,836.5,200.5z"/>
	<path class="st61" d="M841.7,201.2c-0.3-2.2,8.1-34.3,8.1-34.3l-2.4,33.2c0,0,0.3,2.2-1,2.8S841.7,201.2,841.7,201.2z"/>
	<path class="st61" d="M838.5,207.5l-19-23l18.8,16.2c0,0,3.2,2.8,3.2,4.8S838.5,207.5,838.5,207.5z"/>
	<path class="st62" d="M887.7,210.5c0,0-8.2,19.5-5.2,32.5s25.8,62.1,33,127c4,36-0.5,51-0.5,51l9-1c0,0-2.5-45-12.5-90
		s-26-77-27-88s5-31.3,5-31.3L887.7,210.5z"/>
	<path class="st62" d="M899.5,741.5c0,0-11-10,9-55s33-116,27-174s-12-93-12-93l-3-10l-8,20c0,0,25,132,7,198S891,729,899.5,741.5z"
		/>
	<path class="st58" d="M953.5,240.5c0,0-10-16-19,13s-34,82-35,85s3,14,14,22s47,39,53,50s6,15,6,15l16-5c0,0-21-37-38-51
		s-33-26-29-32s32-61,34-71S953.5,240.5,953.5,240.5z"/>
	<path class="st63" d="M841.5,521.5c0,0,7,14,14,12s66-118.5,66-118.5l-1-6.5c0,0-51,93-60,97S848,498,848,498L841.5,521.5z"/>
	<path class="st63" d="M1041.5,455c0,0-21,70.5-37,73.5S917,424,917,424l3-16c0,0,75.5,122.5,88.5,102.5s30-65.5,30-65.5L1041.5,455
		z"/>
	<circle class="st64" cx="928.5" cy="505.5" r="3"/>
	<ellipse class="st64" cx="930" cy="553.8" rx="2.5" ry="2.3"/>
	<ellipse class="st64" cx="927" cy="601.5" rx="1.5" ry="2"/>
	<path class="st61" d="M947.5,248.5c2,1,5.7,3,6.8-0.5c1.2-3.5-4.8-41.5-4.8-41.5L947.5,248.5z"/>
	
		<ellipse transform="matrix(0.3481 -0.9375 0.9375 0.3481 -10.9872 1282.0284)" class="st64" cx="916.3" cy="648.9" rx="2.5" ry="1.8"/>
	<circle class="st64" cx="923" cy="460" r="3"/>
	<path class="st61" d="M939.7,243.3l-8.2-34.8l13,29c0,0,2,4-1,6S939.7,243.3,939.7,243.3z"/>
	<path class="st60" d="M943.5,254.5l-2-32l9.5,28.2c0,0,0.5,1.8-1.5,2.8S943.5,254.5,943.5,254.5z"/>
	<circle class="st64" cx="919" cy="424" r="3.5"/>
	<path class="st65" d="M886,250.6c0,0,19.5-5.1,25.5-11.1s11.1-17.6,11.1-17.6l2.8,1c0,0-5.9,13.6-13.9,18.6s-25,11-25,11L886,250.6
		z"/>
	<path class="st65" d="M884,250.1c0,0-26.5-32.6-27.5-39.6s0-9,0-9l-2-1c0,0-4,5,1,14s29.6,39.4,29.6,39.4L884,250.1z"/>
	<polygon class="st62" points="886.9,254 933.4,257.5 933.5,254.5 887.5,252 	"/>
	<polygon class="st62" points="886,253.5 845,252.5 845,250.5 884.8,251.5 	"/>
	<circle class="st66" cx="885.5" cy="252.5" r="3"/>
	<path class="st67" d="M878,654c0,0-9-5-5-9s39-123,40-165s0-47,0-47s-21,144-36,180s-12,33-9,37S878,654,878,654z"/>
	<path class="st67" d="M899,741c-2-3,4-38,21-47s36-26,34.5-31.5S946,656,946,652s13-44,5-97s-25-117-25-117s10.5,51.5,8.5,115.5
		s-17,112-23,126s-12.1,32.2-14,41C895,732,899,741,899,741z"/>
	<path class="st67" d="M1011,624c0,0-1,18-19.5,23s-21,2.5-21,2.5S988,620,967,556s-26-74-26-74L1011,624z"/>
	<path class="st67" d="M883.3,657.8c0,0-0.3,4.3,2.8,8.3s7.8,6.3,7.8,6.3S920,614,921,578s0-59,0-59s-3,57-16,94
		S883.3,657.8,883.3,657.8z"/>
</g>
<path class="st14" d="M876.7,179.1c2.1-4.8-9.9-4.3-9.8-12.2s0.2-37.7-0.9-40.7c-0.6-1.6-1.9-3.7-3-5.3c-0.8-1.2-0.6-3.1,0.3-4
	c1.3-1.2,2.8-3,3-5.1c0.3-3.9-1.4-43.7,3-46.7c4.3-3,7.9-1.7,7.6-6s-6.1-5.1-10.6,1.1s-4,41.7-5.7,49s-8.7,2.8-8.9,8.8
	s6.4,1.9,7.5,8.3s-0.5,38.3,3.3,44.3S874.3,184.7,876.7,179.1z"/>
<image style="overflow:visible;" width="512" height="512" xlink:href="E5AE298F.jpg"  transform="matrix(1 0 0 1 3291.7952 206.3494)">
</image>
<path class="st68" d="M3227.1,464.9h-328.2c-6.6,0-12-5.4-12-12v-56.7c0-6.6,5.4-12,12-12h328.2c6.6,0,12,5.4,12,12v56.7
	C3239.1,459.5,3233.7,464.9,3227.1,464.9z"/>
<rect x="2909.5" y="401.5" class="st68" width="156.1" height="41.6"/>
<rect x="2216.8" y="1318.5" class="st0" width="156.1" height="41.6"/>
<path class="st68" d="M2540.5,1377h-328.2c-6.6,0-12-5.4-12-12v-56.7c0-6.6,5.4-12,12-12h328.2c6.6,0,12,5.4,12,12v56.7
	C2552.5,1371.6,2547.1,1377,2540.5,1377z"/>
<rect x="2222.9" y="1313.7" class="st68" width="156.1" height="41.6"/>
<rect x="2931.8" y="464.4" class="st18" width="46" height="27.8"/>
<rect x="3151.7" y="464.4" class="st18" width="46" height="27.8"/>
<circle class="st68" cx="3117" cy="419.1" r="14.3"/>
<circle class="st68" cx="2953.9" cy="270.3" r="14.3"/>
<g>
	<g>
		<g>
			<rect x="1791.1" y="1131.2" class="st18" width="7.8" height="288.2"/>
			<rect x="1745.5" y="1411" class="st18" width="54.2" height="7.7"/>
			<rect x="1745.5" y="1133.1" class="st18" width="54.2" height="7.7"/>
		</g>
	</g>
	
		<rect x="1778.4" y="1260.3" transform="matrix(-1.836970e-16 1 -1 -1.836970e-16 3074.1807 -517.0723)" class="st69" width="34.5" height="36.4"/>
	
		<rect x="1783.6" y="1264.9" transform="matrix(-1.836970e-16 1 -1 -1.836970e-16 3083.9397 -517.7229)" class="st68" width="34.5" height="36.4"/>
</g>
<g>
	<g>
		<rect x="1956.3" y="1243.6" class="st18" width="288.2" height="7.8"/>
		<rect x="2236.1" y="1242.8" class="st18" width="7.7" height="54.2"/>
		<rect x="1958.3" y="1242.8" class="st18" width="7.7" height="54.2"/>
	</g>
</g>
<g>
	<g>
		<rect x="2269.2" y="1074.9" class="st18" width="4.8" height="176.6"/>
		<rect x="2241.3" y="1246.3" class="st18" width="33.2" height="4.7"/>
		<rect x="2241.3" y="1076.1" class="st18" width="33.2" height="4.7"/>
	</g>
</g>
<rect x="2086.4" y="1228.7" class="st69" width="34.5" height="36.4"/>
<rect x="2091" y="1223.5" class="st68" width="34.5" height="36.4"/>
<circle class="st69" cx="3175.3" cy="421.7" r="14.3"/>
<circle class="st68" cx="3179.2" cy="418.5" r="14.3"/>
<g>
	<rect x="1911.9" y="1309.2" class="st0" width="68.1" height="20.6"/>
	<ellipse class="st2" cx="2003.3" cy="1317.2" rx="6.2" ry="7.1"/>
	<path class="st68" d="M2046.3,1431.9h-129.6c-6.6,0-12-5.4-12-12v-109.6c0-6.6,5.4-12,12-12h129.6c6.6,0,12,5.4,12,12v109.6
		C2058.3,1426.5,2052.9,1431.9,2046.3,1431.9z"/>
	<rect x="1914.5" y="1306.9" class="st68" width="68.1" height="20.6"/>
	<rect x="1911.3" y="1341.4" class="st0" width="125.4" height="20.6"/>
	<rect x="1916.2" y="1339.1" class="st68" width="125.4" height="20.6"/>
	<rect x="1913" y="1371.1" class="st0" width="125.4" height="20.6"/>
	<rect x="1917.9" y="1368.7" class="st68" width="125.4" height="20.6"/>
	<rect x="1914.7" y="1401.4" class="st0" width="125.4" height="20.6"/>
	<rect x="1919.6" y="1399" class="st68" width="125.4" height="20.6"/>
	<ellipse class="st68" cx="2005" cy="1315.6" rx="6.2" ry="7.1"/>
	<ellipse class="st69" cx="2030.4" cy="1316.9" rx="6.2" ry="7.1"/>
	<ellipse class="st68" cx="2032.2" cy="1315.3" rx="6.2" ry="7.1"/>
</g>
<g>
	<rect x="1597" y="1047.7" class="st0" width="68.1" height="20.6"/>
	<ellipse class="st2" cx="1688.4" cy="1055.6" rx="6.2" ry="7.1"/>
	<path class="st68" d="M1731.4,1170.3h-129.6c-6.6,0-12-5.4-12-12v-109.6c0-6.6,5.4-12,12-12h129.6c6.6,0,12,5.4,12,12v109.6
		C1743.4,1164.9,1738,1170.3,1731.4,1170.3z"/>
	<rect x="1599.6" y="1045.3" class="st68" width="68.1" height="20.6"/>
	<rect x="1596.4" y="1079.9" class="st0" width="125.4" height="20.6"/>
	<rect x="1601.3" y="1077.5" class="st68" width="125.4" height="20.6"/>
	<rect x="1598.1" y="1109.5" class="st0" width="125.4" height="20.6"/>
	<rect x="1603" y="1107.2" class="st68" width="125.4" height="20.6"/>
	<rect x="1599.8" y="1139.8" class="st0" width="125.4" height="20.6"/>
	<rect x="1604.7" y="1137.5" class="st68" width="125.4" height="20.6"/>
	<ellipse class="st68" cx="1690.1" cy="1054" rx="6.2" ry="7.1"/>
	<ellipse class="st69" cx="1715.6" cy="1055.3" rx="6.2" ry="7.1"/>
	<ellipse class="st68" cx="1717.3" cy="1053.7" rx="6.2" ry="7.1"/>
</g>
<circle class="st2" cx="2430" cy="1337.1" r="14.3"/>
<circle class="st68" cx="2433.9" cy="1333.9" r="14.3"/>
<circle class="st69" cx="2492.2" cy="1336.5" r="14.3"/>
<circle class="st69" cx="2272.3" cy="1138.7" r="14.3"/>
<circle class="st68" cx="2496.1" cy="1333.2" r="14.3"/>
<circle class="st69" cx="3187.5" cy="615" r="20.3"/>
<circle class="st68" cx="3193" cy="610.4" r="20.3"/>
<polygon class="st68" points="2930.9,383.3 2973.2,383.3 2959.8,280.5 2944.8,281.2 "/>
<circle class="st0" cx="2954.3" cy="270.1" r="12.4"/>
<path class="st70" d="M2907.1,237.3l5.8,5.5c0,0,16.5-17.6,40.8-17.9c24.3-0.3,43.4,16.8,43.4,16.8l4.9-4.6c0,0-17.1-20.5-48.3-19.7
	C2922.5,218.2,2907.1,237.3,2907.1,237.3z"/>
<path class="st70" d="M2920.7,246.4l4.1,3.9c0,0,11.6-12.4,28.7-12.6c17.1-0.2,30.5,11.8,30.5,11.8l3.5-3.3c0,0-12-14.4-33.9-13.8
	S2920.7,246.4,2920.7,246.4z"/>
<path class="st70" d="M2934.4,255.2l2.5,2.4c0,0,7.1-7.6,17.5-7.7c10.5-0.1,18.7,7.2,18.7,7.2l2.1-2c0,0-7.3-8.8-20.8-8.5
	S2934.4,255.2,2934.4,255.2z"/>
<g>
	<rect x="1405.7" y="1392.6" class="st0" width="156.1" height="41.6"/>
	<polygon class="st1" points="1428,1370.5 1470.3,1370.5 1456.9,1267.7 1443.9,1256.9 	"/>
	<circle class="st2" cx="1615.4" cy="1408.7" r="14.3"/>
	<path class="st68" d="M1729.4,1451.2h-328.2c-6.6,0-12-5.4-12-12v-56.7c0-6.6,5.4-12,12-12h328.2c6.6,0,12,5.4,12,12v56.7
		C1741.4,1445.8,1736,1451.2,1729.4,1451.2z"/>
	<rect x="1411.8" y="1387.9" class="st68" width="156.1" height="41.6"/>
	<circle class="st68" cx="1619.3" cy="1405.4" r="14.3"/>
	<circle class="st68" cx="1456.2" cy="1256.7" r="14.3"/>
	<circle class="st69" cx="1677.6" cy="1408" r="14.3"/>
	<circle class="st68" cx="1681.5" cy="1404.8" r="14.3"/>
	<polygon class="st68" points="1433.2,1369.6 1475.5,1369.6 1462.1,1266.8 1447.2,1267.5 	"/>
	<circle class="st0" cx="1456.7" cy="1256.4" r="12.4"/>
	<path class="st70" d="M1409.5,1223.6l5.8,5.5c0,0,16.5-17.6,40.8-17.9c24.3-0.3,43.4,16.8,43.4,16.8l4.9-4.6
		c0,0-17.1-20.5-48.3-19.7C1424.8,1204.5,1409.5,1223.6,1409.5,1223.6z"/>
	<path class="st70" d="M1423,1232.7l4.1,3.9c0,0,11.6-12.4,28.7-12.6c17.1-0.2,30.5,11.8,30.5,11.8l3.5-3.3c0,0-12-14.4-33.9-13.8
		C1433.7,1219.3,1423,1232.7,1423,1232.7z"/>
	<path class="st70" d="M1436.8,1241.5l2.5,2.4c0,0,7.1-7.6,17.5-7.7s18.7,7.2,18.7,7.2l2.1-2c0,0-7.3-8.8-20.8-8.5
		C1443.4,1233.3,1436.8,1241.5,1436.8,1241.5z"/>
</g>
<path class="st1" d="M3141.3,699.1c0,0-5.1-57,38.5-58.7l13.5,17l12.8-17.3c0,0,43.9-1.9,36.9,59H3141.3z"/>
<circle class="st69" cx="1905.8" cy="978" r="20.3"/>
<circle class="st68" cx="1911.4" cy="973.4" r="20.3"/>
<path class="st1" d="M1859.7,1062.1c0,0-5.1-57,38.5-58.7l13.5,17l12.8-17.3c0,0,43.9-1.9,36.9,59H1859.7z"/>
<circle class="st69" cx="2904.7" cy="615" r="20.3"/>
<circle class="st68" cx="2910.2" cy="610.4" r="20.3"/>
<path class="st71" d="M2858.5,699.1c0,0-5.1-57,38.5-58.7l13.5,17l12.8-17.3c0,0,43.9-1.9,36.9,59H2858.5z"/>
<circle class="st69" cx="2051.1" cy="975.4" r="20.3"/>
<circle class="st68" cx="2056.7" cy="970.8" r="20.3"/>
<path class="st71" d="M2005,1059.5c0,0-5.1-57,38.5-58.7l13.5,17l12.8-17.3c0,0,43.9-1.9,36.9,59H2005z"/>
<polygon points="2961.5,865.4 3015.7,1032.2 3191.1,1032.2 3049.2,1135.3 3103.4,1302.1 2961.5,1199 2819.6,1302.1 2873.8,1135.3 
	2731.9,1032.2 2907.3,1032.2 "/>
</svg>
