<svg id="Layer_1" data-name="Layer 1" xmlns="http://www.w3.org/2000/svg" xmlns:xlink="http://www.w3.org/1999/xlink" viewBox="0 0 1280 793.17"><defs><style>.cls-1{fill:#343434;}.cls-2{fill:#999898;}.cls-3,.cls-5,.cls-6{fill:none;}.cls-3{stroke:#000;}.cls-3,.cls-6{stroke-miterlimit:10;}.cls-4{fill:#514c4c;}.cls-6{stroke:#b6d0eb;}.cls-7{opacity:0.07;fill:url(#linear-gradient);}.cls-8{fill:url(#linear-gradient-2);}.cls-9{fill:url(#linear-gradient-3);}.cls-10{fill:url(#linear-gradient-4);}.cls-11{fill:url(#linear-gradient-5);}.cls-12{fill:#ed1c24;}.cls-13{fill:url(#linear-gradient-6);}.cls-14{fill:#ef2975;}.cls-15{fill:#102d11;}.cls-16{fill:#efb0f4;}</style><linearGradient id="linear-gradient" x1="149.34" y1="436.07" x2="556.34" y2="436.07" gradientTransform="translate(-102.52 798.36) rotate(-90)" gradientUnits="userSpaceOnUse"><stop offset="0.04" stop-color="#daf2f1"/><stop offset="0.44" stop-color="#d8f0ef"/><stop offset="0.58" stop-color="#d3e9e8"/><stop offset="0.68" stop-color="#c9dedd"/><stop offset="0.76" stop-color="#bacdcc"/><stop offset="0.83" stop-color="#a8b7b6"/><stop offset="0.89" stop-color="#919b9b"/><stop offset="0.95" stop-color="#767c7c"/><stop offset="1" stop-color="#585858"/><stop offset="1" stop-color="#565656"/></linearGradient><linearGradient id="linear-gradient-2" x1="238.96" y1="379.43" x2="342.04" y2="319.92" gradientUnits="userSpaceOnUse"><stop offset="0.04" stop-color="#fff"/><stop offset="0.13" stop-color="#f2f2f2"/><stop offset="0.29" stop-color="#cfcfcf"/><stop offset="0.5" stop-color="#979797"/><stop offset="0.76" stop-color="#4b4b4b"/><stop offset="1"/></linearGradient><linearGradient id="linear-gradient-3" x1="174.52" y1="692.94" x2="305.93" y2="617.07" gradientUnits="userSpaceOnUse"><stop offset="0" stop-color="#565656"/><stop offset="0" stop-color="#585858"/><stop offset="0.01" stop-color="#767c7c"/><stop offset="0.02" stop-color="#919b9b"/><stop offset="0.03" stop-color="#a8b7b6"/><stop offset="0.05" stop-color="#bacdcc"/><stop offset="0.06" stop-color="#c9dedd"/><stop offset="0.08" stop-color="#d3e9e8"/><stop offset="0.11" stop-color="#d8f0ef"/><stop offset="0.18" stop-color="#daf2f1"/></linearGradient><linearGradient id="linear-gradient-4" x1="180.5" y1="79.58" x2="365.35" y2="186.31" gradientTransform="matrix(1, 0, 0, 1, 0, 0)" xlink:href="#linear-gradient"/><linearGradient id="linear-gradient-5" x1="909.08" y1="366.67" x2="948.92" y2="343.67" xlink:href="#linear-gradient-2"/><linearGradient id="linear-gradient-6" x1="867.14" y1="806.38" x2="892" y2="806.38" gradientTransform="matrix(1, 0, 0, 1, 0, 0)" xlink:href="#linear-gradient"/></defs><title>web-world-characters</title><g id="lady"><path d="M662.5,226.71s-2-4.67,0-3.17,5.33,7.17,5.33,7.17-11.17,59-9.33,61.33a5.44,5.44,0,0,0,4.33,2.17l-1.58-4.33s8.08-9.5,15.92-7.83,28.17,6.67,28.58,7.83.08,5-1.58,6.33a7.46,7.46,0,0,0,3.83-4.67c.67-3.17-1.5-7.83,0-13.5s1.83-25.83,1.83-25.83,4.33-2.5,4.33-6-2.33-4.83-1.67-9.67,3.67-17.5,3.67-17.5,4-5.33.5-7.67-9.5-6.17-12.67-3.67-12.33,14-19.67,10.83-8.5-4.17-8.5-4.17-6.5,5.33-9,6a26.56,26.56,0,0,0-6,3Z" transform="translate(-40 -41.83)"/><path class="cls-1" d="M711,448.38c-.75,3.25-2.5,18.25,3.5,25.25s14,14,16.75,14,4.25,4,1.75,4-20.25,1.25-20.25,1.25-2.25-14.75-5.75-13.25.25,13,.25,13l-5.25.5s3.25-56.25,2.25-59.75-7-7.25-5.75-16.25,8.25-16,6.25-19.75-8.5-20.75-9-23.25-6.25-40.5-6.25-40.5l-5.5-1.75,8.5,112.25,7.25,6.75-15.5.5S678,341.63,676.5,338.63s-13.25-11.25-14.5-22.25,5.75-11.25,3.75-16-4.5-10.5-4.5-10.5,6-10,18.25-7.5a228.31,228.31,0,0,1,26.25,7.5L704,298.13l15.5,26.75,4.25,70.5Z" transform="translate(-40 -41.83)"/><path class="cls-2" d="M664.25,226s-5.62,3.88-5.62,5.5,4.63,25.25,4.63,25.25l2-12.62s-2.5-7.5-1.5-7.62a24.05,24.05,0,0,0,3.38-1l.71-4.79Z" transform="translate(-40 -41.83)"/><path class="cls-3" d="M701.63,223s-1.25-5.12,1-4.5,9,8.63,7.63,9.25-2.75,1.13-2.75,1.13,1.75,2.25,3.25,1.75S716.17,219,716.17,219s4.29-5.42.5-7.67-6.17-3.62-7.67-1.25-8.62,8.88-8.62,8.88Z" transform="translate(-40 -41.83)"/><path class="cls-2" d="M704.17,220s6.67,4.17,5,6.67-8.83,11.33-8.83,13.17,8,26.17,7,28.83-3.5,10.33-3.5,12.5-.33,7.17-1,7.33-2.33-.17-2.21-.85.69-5.5-.19-5.5-4.19,6.62-5.31,6.12.75-3.56.75-3.56-3.19,4.25-3.62,2.38,2.94-5.19,2.94-5.19-3.87,3.94-4,2.69,11.19-13.56,11.06-15.37-8.31-32.81-7.69-34.87S704.17,220,704.17,220Z" transform="translate(-40 -41.83)"/><path class="cls-4" d="M715.13,175.25c-1-1.75-6.62-7.5-12.87-6s-9.5,6.88-10.25,12.25-5,6.25-5.25,9,1,7.38-.87,8.13-22.21,11.92-3.54,20.58c11.21,5.2,18.87-9.81,22.21-10.33,10.71-1.67,11.79,3,13.29,2.17s-3.08-9.29-1.83-12.79,5.63-13.5,3.5-17.12A31.84,31.84,0,0,0,715.13,175.25Z" transform="translate(-40 -41.83)"/><path d="M716.5,187.63l-2.37,7.75s-4.25-1.12-2.75-4.87A4.44,4.44,0,0,1,716.5,187.63Z" transform="translate(-40 -41.83)"/><polygon points="675.67 157.34 679.67 158.46 678.42 149.34 675.67 157.34"/><polyline class="cls-3" points="629 264.67 640.13 284.67 648.88 284.55 649.5 291.8"/><line class="cls-5" x1="640.5" y1="289.05" x2="644" y2="290.05"/></g><g id="grid"><line class="cls-6" x1="97" y1="121.12" x2="97" y2="791.28"/><line class="cls-6" x1="193" y1="121.12" x2="193" y2="791.28"/><line class="cls-6" x1="289" y1="122.07" x2="289" y2="792.23"/><line class="cls-6" x1="385" y1="122.07" x2="385" y2="792.23"/><line class="cls-6" x1="496" y1="120.17" x2="496" y2="790.33"/><line class="cls-6" x1="592" y1="120.17" x2="592" y2="790.33"/><line class="cls-6" x1="688" y1="121.12" x2="688" y2="791.28"/><line class="cls-6" x1="784" y1="121.12" x2="784" y2="791.28"/><line class="cls-6" x1="898" y1="122.07" x2="898" y2="792.23"/><line class="cls-6" x1="994" y1="122.07" x2="994" y2="792.23"/><line class="cls-6" x1="1090" y1="123.01" x2="1090" y2="793.17"/><line class="cls-6" x1="1186" y1="123.01" x2="1186" y2="793.17"/><line class="cls-6" y1="719.53" x2="1276.39" y2="719.53"/><line class="cls-6" y1="628.59" x2="1276.39" y2="628.59"/><line class="cls-6" x1="1.8" y1="520.61" x2="1278.2" y2="520.61"/><line class="cls-6" x1="1.8" y1="429.68" x2="1278.2" y2="429.68"/><line class="cls-6" x1="3.61" y1="338.74" x2="1280" y2="338.74"/><line class="cls-6" x1="3.61" y1="247.81" x2="1280" y2="247.81"/></g><path d="M251.5,455.5s36-31,68-18,24,30,44,26,32-16,32-28-9.33-16-5.17-35.5,9.17-31.5-2.83-45.5-43.17-21.83-43.17-21.83L303.5,329.5l-45,46Z" transform="translate(-40 -41.83)"/><circle class="cls-7" cx="333.55" cy="445.52" r="203.5" transform="translate(-243.62 258.13) rotate(-38.02)"/><circle class="cls-8" cx="290.5" cy="349.67" r="59.5"/><path d="M195,452c13,19,67,15,76-11s-9-57.33,10-79.67,32.33-30,44.67-28.67S346,362,370,350s5-41-9-43-49-8-79,9-18.54,53.09-58,69C162,410,195,452,195,452Z" transform="translate(-40 -41.83)"/><path d="M342.31,488.45a31.24,31.24,0,0,0-16.81-8.95C289.7,473,228.83,479.42,199,521c-33,46-70,141-56,153s278-64,286-77C435.78,586,364.3,511.07,342.31,488.45Z" transform="translate(-40 -41.83)"/><polygon class="cls-2" points="334.47 684.98 219 664.42 371.65 616.17 498.19 617.75 334.47 684.98"/><polygon class="cls-1" points="347.47 663.17 232 642.61 384.65 594.36 511.19 595.95 347.47 663.17"/><path d="M541.18,486.27,389.53,524.54a8.77,8.77,0,0,0-6.62,8.74l4.23,159.14a8.77,8.77,0,0,0,12,7.91L548,640.79a8.77,8.77,0,0,0,5.51-8.23L552.1,494.68A8.77,8.77,0,0,0,541.18,486.27Z" transform="translate(-40 -41.83)"/><path class="cls-9" d="M173,628s-21,10-18,28,21,20,31,17,32-37,65-31c16.49,3,51,19,56,24s32,11,22.5-8S278,607,223,613C189.46,616.66,173,628,173,628Z" transform="translate(-40 -41.83)"/><path d="M941,398.4c-2.64,9.57,1.87,38.7,30.79,39.6s42.45-38.7,56.21-35.55,19.36,24.75,29.62,25.65,11.19-53.1-44.78-53.1S944.68,384.9,941,398.4Z" transform="translate(-40 -41.83)"/><path class="cls-10" d="M198.79,48c-10.21,14.29,49.67,31,52.77,55.88s0,59-9.31,49.67,0-18.63,12.42-12.42,43.46,43.46,80.71,43.46,77.61-62.08,46.56-65.19-24.83,71.4-55.88,46.56S236,88.32,217.42,138s27.94,55.88,37.25,49.67,59-52.77,31-86.92S214.31,26.23,198.79,48Z" transform="translate(-40 -41.83)"/><path class="cls-1" d="M939,452c71.08-47.38,154.79-21.19,152.43-25.91s-54.28-21.24-101.47-8.26c-36.74,10.1-53.46-1.24-59.07-6.77a5.83,5.83,0,0,1-1.42-6c2.52-7.45,11.92-25.06,45.15-29.68,42.48-5.9,36.58-13-10.62-5.9S848.36,420.19,841.28,483.91c-3.32,29.91-1.71,48.38.95,59.56a5.86,5.86,0,0,0,11.37.07l3.49-13.69a5.86,5.86,0,0,1,11.42.3C874.82,561.87,802.59,661,813,657c15.34-5.9,111.84-192,126-205" transform="translate(-40 -41.83)"/><circle class="cls-11" cx="929" cy="355.17" r="23"/><path class="cls-12" d="M1001.75,679.11c2.12-4.75-9.94-4.28-9.78-12.2s.16-37.68-.93-40.67a26.7,26.7,0,0,0-3-5.3,3.24,3.24,0,0,1,.35-4,8.15,8.15,0,0,0,3-5.06c.31-3.85-1.4-43.67,3-46.67s7.92-1.71,7.61-6-6.06-5.14-10.56,1.07-4,41.74-5.74,49-8.7,2.78-8.85,8.78,6.37,1.93,7.45,8.35-.47,38.32,3.26,44.31S999.27,684.68,1001.75,679.11Z" transform="translate(-40 -41.83)"/><path class="cls-12" d="M579.21,192.34c-3.89,6.32,18.2,5.69,17.92,16.21s-.28,50.05,1.71,54a34.77,34.77,0,0,0,5.57,7,3.45,3.45,0,0,1-.64,5.29c-2.44,1.58-5.19,3.94-5.5,6.72-.57,5.12,2.56,58-5.4,62s-14.5,2.28-13.94,8,11.09,6.83,19.34-1.42,7.39-55.46,10.52-65.13,15.93-3.7,16.21-11.66-11.66-2.56-13.65-11.09.85-50.91-6-58.87S583.76,184.95,579.21,192.34Z" transform="translate(-40 -41.83)"/><rect class="cls-12" x="806" y="142" width="244" height="12" rx="6" ry="6" transform="translate(127.15 657.72) rotate(-45)"/><rect class="cls-12" x="583.69" y="688.45" width="173.62" height="4.58" rx="2.29" ry="2.29" transform="translate(644.81 -313.63) rotate(45)"/><circle class="cls-12" cx="1038" cy="212.17" r="16"/><circle class="cls-12" cx="54.5" cy="438.67" r="11.5"/><circle class="cls-12" cx="824" cy="667.17" r="16"/><rect class="cls-12" x="1133.85" y="699.52" width="86.97" height="4.58" rx="2.29" ry="2.29" transform="translate(673.74 -629.88) rotate(39.43)"/><rect class="cls-12" x="1129.26" y="745.18" width="86.97" height="4.58" rx="2.29" ry="2.29" transform="translate(-252.49 582.49) rotate(-27.43)"/><rect class="cls-12" x="47.44" y="181.66" width="86.97" height="4.58" rx="2.29" ry="2.29" transform="translate(-8.41 338.54) rotate(-136.88)"/><rect class="cls-12" x="54.96" y="136.38" width="86.97" height="4.58" rx="2.29" ry="2.29" transform="translate(204.4 184.13) rotate(156.25)"/><path class="cls-13" d="M882.77,782.44c-3.77-1-15.27.74-15.62,12.14s15.27,16.74,14,22.17-9.76,7.64-10.12,11.68S892,832.85,892,810.77,888.09,783.91,882.77,782.44Z" transform="translate(-40 -41.83)"/><circle class="cls-14" cx="1062" cy="481.17" r="22"/><circle class="cls-15" cx="1122" cy="482.17" r="23"/><circle class="cls-16" cx="1218" cy="401.17" r="20"/></svg>